/* XPM */
static char *result[] = {
/* columns rows colors chars-per-pixel */
"64 64 88 1 ",
"  c #1D1B1F",
". c #1E1C21",
"X c #201F23",
"o c #232225",
"O c #262529",
"+ c #28272B",
"@ c #2A2A2E",
"# c #2D2C31",
"$ c #302F34",
"% c #323136",
"& c #363539",
"* c #39363B",
"= c #3A393D",
"- c #3E3D41",
"; c #423F44",
": c #444146",
"> c #464448",
", c #49464A",
"< c #4C4A4D",
"1 c #4F4C50",
"2 c #514E51",
"3 c #555255",
"4 c #585457",
"5 c #57555A",
"6 c #595659",
"7 c #5D595C",
"8 c #615D5F",
"9 c #5F5E62",
"0 c #625E60",
"q c #646264",
"w c #696566",
"e c #676669",
"r c #6A6668",
"t c #6B6A6D",
"y c #716D6D",
"u c #6E6D71",
"i c #706F73",
"p c #727275",
"a c #767679",
"s c #78777B",
"d c #7A7A7D",
"f c #7E7E81",
"g c #807F83",
"h c #828285",
"j c #868589",
"k c #88878A",
"l c #8A8A8D",
"z c #8D8C91",
"x c #919094",
"c c #9C9B9D",
"v c #9F9EA2",
"b c #A4A3A6",
"n c #A6A6A9",
"m c #ACABAE",
"M c #AEADB0",
"N c #B4B3B5",
"B c #B7B6B8",
"V c #BCBCBD",
"C c #BFBFC0",
"Z c #C4C4C4",
"A c #CDC4C3",
"S c #C8C8C7",
"D c #C7C7C8",
"F c #C8C7C8",
"G c #CBCBCC",
"H c #D1CFCE",
"J c #D5D0CE",
"K c #D8D2CF",
"L c #CFCFD0",
"P c #D4D3D3",
"I c #DAD6D4",
"U c #DBD9D7",
"Y c #D7D7D8",
"T c #DCDBDB",
"R c #E1DEDC",
"E c #E3E0DF",
"W c #E0DFE0",
"Q c #E4E3E3",
"! c #E9E6E5",
"~ c #EBE9E6",
"^ c #E8E7E8",
"/ c #ECEBEB",
"( c #F0EEED",
") c #F1F0EF",
"_ c #F4F4F3",
"` c #F8F7F6",
"' c #F9F8F7",
"] c #FBFBFA",
/* pixels */
"mxdddjlhsphjhhlljfhlljhjhhfffknM&oX  X  .o=%O...X........oX X Xo",
"lAIREQQRIIEEEQQQ^QWWQWEWETRTRRTk#-<<>::>,16>1<>><:;:>::::>,,::,O",
"pKEE)_^QRU(_~~/Q/]__'`_')))~!~Ei@2<3,:;:,1>:31>;;::;:::;,2:>:10O",
"fRER^TQTUIU/ERRGG^____]_/`_ERERe&w>=**&=-:<51:==**&*&&=*,1=&288+",
"lE~!TUQW^YZTTUSVCY/_//_QY~^QTQU0@4:*$%$$&--==#%####%&###$%#$,2:.",
"j!_~TQ^)`TVGPGVNCY^///TYY(^PTERt+,:*#@@@@##@@@@##@#@#@@@@@@@;6<.",
"dE)~Q^Q)/YFGPGNnNY__/YGYE^YZYEEi+,:*$@@@##@@@%-=$+#@@@@@@@@$=<2o",
"fE_~PGLUYYQWYTFCGW]_WLCYTGZZY!Ea+::=$@@@@+@@#:<>&#@##@@@@@$$*,<O",
"hQ_QLLPYPTQ^^QWQ^_]_/WGPPZCZT/Qa@0y6&#@@$#@@#-:%@##@#@@@@#@%*:: ",
"hT)///^TYYLQ_^Q'___^WYYW/SCZU(Qa%wy6-#@##@@#@#%#@@##@@##@@@#*;: ",
"hT_))`//TSSL^/'`)^/QQY^]/GSGT)Qp@:;:;##@@$#@@###@@#@##=&@@@$&;: ",
"jW____/TGLLFT_]/WW_]_PT^EYTRQ_!tO;;:=@@$=@@#@#%%%@@&&-&=%@@@&;: ",
"hE_)^QYGZYLYW_^YPS_`/YZGPW^/Q)EtO;:,*@#$$@###@@#%@#=%:&=$$@#&;;X",
"hQ_/QLLVCTTPP^YDDP)^GSGSLPQ(~EEy+44-$@#$%##@#@@#@@%:=;,&$@@@&;; ",
"fQ)!YLYZBTQDCGGZZPQTGCSZSGT/EQQu*y<&$#@@#@@@@#@@@@%>;*&@@%$$*;;X",
"hE)/^QQYDPYGLVDPLQWPGLGZCGT^Q!Et$8;*$$@@@@@#@####@$-&%$@&&$$&;> ",
"lR_/E!)TLYCDPSZGW^QQY/WSBSLTPERtO::*#@@@#@@%@@##@#&&>&####@#&>>.",
"sT)!LGT/QQZLLGGGW^^//_/YBZLPIQRy+:>=####%@@@@@##%=&$&&##@+@#&::.",
"aR(/SCPYYWLPLLLLTYT^_)/YCZSGREEp+>1=&#@###@@@#=&&&@&@&&##@##=-:.",
"dTE/TSGPZPTLYYLPYCGTTWTYYLZGQEEiO>52&&=#@@@@@#-$@+$=@%:#@@@#=:-.",
"fRQQ/WPPYQQY/_^YLVGYLLGGSZMmI~EuO>>:&%&#@#@@@@%@@@#%@%:#@@@#=::.",
"hQ(W//TP^/QPP/_WPSSLZTYGZZNmJQRt+>:*#@@@@@@@#@%=#+@@@@&#@@@#-52.",
"h^'/TT^^^^WCBW`QTGGLZYYLLGGSPQEy+,:*@@@@@+@@@#@&-%#@@@%#@@@#:99O",
"f^]_YSPT^]/SS/_/^LPLZLLYTT/RT!Ep+,:*%#@@@@@@@#@@%>5-@@&&#@@#&<2X",
"fE)/QYLGQ]WGYQ_)QQTLCLYLPPTYPQEp@2>>=&@@@#@@$#@@#&<>:*$*#@@#&>6o",
"hT!E^WQWT(QPW^/Q^//YCGLPGBZLT~Tto>4:%-&@@$@$&$$@@#&=2=@*&@@#&:7+",
"fT~QQ//)/)QLYYW/^^__^WLLPMMGT/QtO38*@&&@@$&&==$@@+%#=&+@&&@#&:,@",
"hQ'/Q~~))/WTQQTQ/_]]'^YWWCNLE'~a+43*%>=%$*$@##&-##&&==##-=##*:>o",
"jTE(`/!!QWWT!/!/]]'`_^)_(WGTQ'~f@w,*=7<=:-&***<<=&:,;=*%>,**=:, ",
"kTEE]'/~^Q~!~((`]]___']]'_E~)]~f%7,:,3,>8<:<<44>::37;;;;,2;,<,,.",
"vIUKEEETWE^^QTR~^QQWQQQ^/QTEEQEl*2:444,:88<d03,::>79:,883<>>,:>o",
"Mxpy0wttuuasteudfpu9etaddpqttthl:&+@+%O+$%$&@+OOOO%=****$+@+++#%",
"-=+OooOOOO@#@OO@+#@@+O@@+@@@++@;cjrtyyutiiaueuyttyaadatiiiaadffv",
"%6:;;>>::-35>>-:;,2;;,;;;;<<;;;$hIEEQEQ!Q^^^QTUTTEEEEERE!EREE!Uc",
"-q;-1y6-;;59>:>-;;,;;,>;;;;;;,;@rRE()~/__]')!E!E!!~~)_(//~~!(~Rh",
"+w13qw<&--<>>>-=***&;===*****;;OtIE!EPQ)_]_YLP!~TPERYYTTPZULU!Rl",
"+6w81>-#==;-==-&$$#$$$##$$#$&;;+tIETLPYQQQ^YLL/_PL^QGLYYSNVmL(Ek",
".-66%-<->#%=@@&&+@@@#+#&$@+$=;;+tT~RU!YGLZLTLC_QZT(_^YT/JSbzVEEl",
" :3>%%==>##-%#==#@@@@#;;=$+$-;;OtE_Q^/FGGBBGDZ^YLT)'/YL/WPNvSEEz",
".38<=#=&=@@=-##&$$@@+#&$@%@#*;;OtR/Q_)LYPZZLDSYYPPQ~^TTQRPZSR/Ex",
"o0:=$#$::=&==@@@@@$$##$+@###&:;+uR!RRQQ/QLGZZZY__/QYPLYTYLP/_`!x",
"+y>-#@%:=&%%##@#@@$#@@#@@@@#&;>+wR~TSZTQWLZBCY^_)/_QPCYTLLY!/_Wj",
"#7>&#@@@@@%%&@##@@$@@##$####&>,X6I!UZMZPYSDMMY_'___QPZYTPLLLI!Rs",
"+2:*#@#@##=>>=%@@#@$#@+#%###=;<o7KEULDGYTGPYCDW/`'/PPBSSZBGPT~Tf",
"%w<*#@@@@@$>:&=%###&$####@#%=::o9IQQJDLTW/_/WLPT``PCZCZZCmHTIEIf",
"@w1=##@@@@#&,-=&$###+$#@##%&=-:O9E/TYGZZYW/^WZZT^^YDLLGGVMTTTEUd",
".88-#$$#####%-1-######@$%+#&-31+p!_!QYVNCC/_LNMLQ^WYPLT^LGTY!/Ed",
".,2:$@#@%%#$#&,&+##--=%>,%#&-62+d^_//QLULZ/_ZVLY^^TPYY(_~RGGE)Eh",
" ::*&@@@=-@@=-%###&%=:>:=====,1+f^_^/_/QGG^WPQ_)QWTWWLQYLYDDP/Wf",
".:;=%#@@#%@#==###&=+##%%@$<1=>1+fQ_/__]_LDQW/_/)_/^QYLYGVGSLQ/Wf",
".::;&%#@##@@%#@#%=&###@@#=:>>::+aT/_//_^YL^/__/_]_/QLLDGPTQ^)_Wa",
"X,;:-,=#@@@#@#@@#%%:=++@%---&::+aQ__^^^TPLY/_^/_]/^/TZGLPQ))//Wd",
".::=$&%@@#@@##@@#%#&-@@@$--=&:>Ot^_`^QQQPYYW_'___YPW/^TPT~_)~EPa",
" ::*#&=@@@@@@@@@@%%@=%@@@#$=-:1+9TQQYPYPLYWY)]__/LCCDTWW^_]/TRJp",
" :;*=,,%@@@##@@@@#%$--@@@%%>-:1%qRTSGCLWTPPLY/)/YZCCZLTYQ_]_~EIp",
".,;***%@@@@@@##@@@@##-%##=%&>>1&tQ!QPZPTWTPLZSW^^YLPW^^W^^`'_(Rd",
"X,;*$#@@@@@@&%@@@@@$+&==&#%-<>3#i^_)TGLPJPPPPST/^WYE_]_TW/_'__Rf",
"X2;*$#@@@##@=&@@@@@@@$$%:=-=-:4&a/`/TLYLGZGLSZW'/^TZT//LY`____Wd",
"#1;-@@@@@#@####@@@@@@@@$#@##&::@a!_(TPYPZmVLDVLPW//TLLIGW`^Y~~Rh",
"#;;&$$$$#&&#####@$##$$$$###%&:;+i!_(TTTYLNCPGFFBC/_TPLPT/)QYQ(El",
"X,;*;*&*-2;-=&====&***=&&==>63:+uR(!TETUEJIERQRIY~WYREQEQ)//('^l",
"X,;1362;:,,>>::<>::2684,:<680w>+iE))/)!//~))~~_]'_!QQ!//()_)_'/x",
"X;,03,36>>2:::>2<:<4<<67:>qypy>#jRE!QQQREEEETTQ/(QTUUTERRRERWQWM",
"+XX#X .OX..X. o.X Xo  o+o o+%+o%bnlhhlfdapfdfglxxkddddhjhkjhhzmP"
};
