/* XPM */
static char *result[] = {
/* columns rows colors chars-per-pixel */
"64 64 68 1 ",
"  c #333337",
". c #36363A",
"X c #38373B",
"o c #3A3A3E",
"O c #3E3E42",
"+ c #403F43",
"@ c #434245",
"# c #464548",
"$ c #48464A",
"% c #4B4A4D",
"& c #4F4D50",
"* c #514F52",
"= c #545255",
"- c #585657",
"; c #575558",
": c #595659",
"> c #5C5A5D",
", c #605E5F",
"< c #5F5D60",
"1 c #615F60",
"2 c #646264",
"3 c #686567",
"4 c #676768",
"5 c #696768",
"6 c #6C6A6B",
"7 c #716E6F",
"8 c #716F70",
"9 c #757273",
"0 c #797676",
"q c #797778",
"w c #7D7A7A",
"e c #817E7E",
"r c #83807F",
"t c #858282",
"y c #898685",
"u c #8B8887",
"i c #8D8B8A",
"p c #918E8D",
"a c #93908F",
"s c #959496",
"d c #999795",
"f c #979699",
"g c #98979A",
"h c #9A999C",
"j c #A09D9C",
"k c #9F9EA1",
"l c #A09FA2",
"z c #A2A1A4",
"x c #C6C5C6",
"c c #C8C7C8",
"v c #CBCACB",
"b c #D0CFD0",
"n c #D6D5D5",
"m c #D8D7D7",
"M c #D9D7D8",
"N c #DDDBDC",
"B c #E0DFDF",
"V c #E1DFE0",
"C c #E3E1E2",
"Z c #E8E7E7",
"A c #E8E7E8",
"S c #EDECEC",
"D c #F0EFEF",
"F c #F0EFF0",
"G c #F5F4F4",
"H c #F8F7F7",
"J c #F9F8F7",
"K c #FAF9F9",
/* pixels */
"GGGGKKJJGHKKJJGJHGGJKJKJGGJGGFGGGGJGGGGHKKKKJKHGGGGGHHHHHHJKJHGG",
"GGVVBBBBNNNVVVNNNNNNVCCVBVVVNVGGGGVNVVNNNCCBCNNMmmmNNNNNNNNVVVFF",
"GN1:,3w7:***==:2=569up88uuaew6VJJC836161=:99670e6151>9w07=*=>>BF",
"GN*%=:5:=%#O&+&1%:258>::6655e8BJKV6:%+*@O@:2799p7::$=9751=%+%3BH",
"KN*=#&,>8>>$*%*5>=@@%@#%+:1@$*NJJV:+X++@##2w9:%2>*@O*5>=**:$15VK",
"KC=:>52::,*>=*:>>=##&=%%%=,:>1NGGV*+O$%:;26-66:&=@##-5>,,>32&*VK",
"KV1%:-gzffghhhhhhghhhhhflf:*$:MGHB61:*glhhhshhhfgsfggsssls%*>3BH",
"GN0==>zASDSDFFFSFFSSGSSFAl,%&*NGGNueprlZSSSSSSSSSSSSDSSSAl=:29MG",
"GN9>=,hFGGKKKKKKKKJHKKHGDs:,33BGFM8296hDGHHHKGHGGKJJHJGGDh=@@,NG",
"GC7>>3hDGFmvvccvvcvvvMFGSs,318BGGB=+@*hDHDNvccxccxcvvMDGSh#++*NH",
"HN6337hDGn87605-280iytMKDf978wBKKV3#+$gDKN53>>13>&%-50MGSg>=+=NG",
"GB>%$=hDHc61%13,qq4qy9cKDg8ts0BKKV:$=:gDKb>:&%#%#335dubKSg9w%=NG",
"GN=#:=hSGc;%$*@$OOO$%:xGSf:>w8BKKV:+:1gDKb,:%@  $=@%iubKSh99:=NG",
"HN444>hSJc&=2%O&#O$#,1cHSs*361nFKV=+=*gDJv28&%O.=X .12cGAfty5;NG",
"GNwtw1hFKc=%&$X#>%$#37vKDf,w*1NGHNw--2gDKv:=<++O%$X=:$xGSf31:6MG",
"JN3:r,hFKc$+o=::&*8115vGShr66pBGGNhy0egSKv$,1>&$o>;#@$xKAf$&=5NG",
"GN7w0%hSHc$+.O%:=:9e86vGSgyupiVGGBddq6fSKv&*2q9<@@O.O$vKSf$@#:BH",
"GNth9=hSHc$@XXo$*&4yt8vGSguzq2VKHNdf4=hSKv=4<:26<o#@@$cKSf=2&:NG",
"GCiw&>fSHc%$#+X@O =ttqvGAg60w0BKJBeiq8kSJv&*O.&=2@#*@&vKSg*><:NG",
"JB3&O#sSHv>%.XO#@o=*44cFSg3rsdCJHCwyq>hFJc*$. &:;#$##%xGSg42*:BG",
"HN=O@%fSHv1>#$=&$4:%;8xGSfwpijCGGB69<4hSJv;=$>5:$;<#;&vGSf69<;NG",
"GN*oO#fSHm22>>3=&4<>;<bJFs1:7sVGGN9922hSJM:=&18:#&=&::nGSh=q<;MG",
"GN6=%;gSGDMvvcxvbbbvvMGJDs-%=0BGGB312:hSGFMbvcccvvvbbNGGSh:2>>NF",
"DNw:::fSHGHHHHGHKKKKJKKKDs,9--BHGN1=$&hSJGJJJJJHGJJKKKJGSh>1<;NF",
"DM,>2=kZSSSSSSZSFFFFFDDDZk%#+*BGSm3==%kZSSSDSDSSSSSSFFFSZk%<2=NG",
"DM,%3,szhhsssgsfhhhhhhgfks@@$=NGFMu1&=skghhhhhhhffgghhhkks##+:MG",
"GM6>2,=%#$==->227-###@*:#@#+%=NDFN6%o##%%*:$%19:$%=3qw:22=#O@1NG",
"GNiy>=@@O##=7;-6q1$&@@,2#@O.O=NGGM:#Xo+%##%+#20>@$:2w9$&#:&.=>MG",
"Gmdy,@%#@%%;213;:&;4=&4,=&@@#*MDDN2;@+##++++$>:=@**1<=*$++%#*>NG",
"GCh5>:622,>5wtu6>&>42473;==;:,BDGC7::;:=***:5026=55>=<76:*>1>2CG",
"GGZBBCCNNBBBCBNNNBBNMMMNNNBBNCDDGGZBBNNNBBBBVCBNNMMBBVBBBNNBBCGG",
"DGJKKKKKKKKKGGGGGJHGGGGGGGJJJJGGGGKKJGGHJJHKKJJGHGGHJHGGGGHJJKJG",
"DHJJKKKKKKJHGHHGGGGDGHHGGJKKHHGGGFGKKGGHJKKHKHGHGDGHJHGGGGHHGHGG",
"GGSBBBVBVVNNNNNNNNNMMNNNNNNBNCGGGFBBBNMNNCBBBBBNmMNNNBNNNNNNNVGG",
"HZd7==&===&=:16482=:;>:::;*=>5ZHHB1>::6:=709et0>*==*,537>**:<<BG",
"GBgp:%+++O#>111%=2:%@%:::*+#=1BGGM=%%:9$%369t95=+o@%=*%:;+++=>MS",
"JBw022@++@6qt89:21>=%@@@**#O>0NGGN=@$=;&;>>:632;#@%*%+%95@OX$;NG",
"KB3=%;%##$2ty81=9>%%%$$$$#>>21MFGN=@=323>;;%;<6<*-*&***5*#*>*5VJ",
"JB,%##shhhhhfhsssgghgfffhs*%:2NDDN=:7,szhhfhhshhgsgghgsglsqe15BJ",
"KB4%+$hZSFFFSASSSSSSSSASZk=%+:MFGN=;92kZSSSSSSSSDSSSDSDSAlw6#*VJ",
"KN2%+%sSGKKKGGHGGHJJJHDDSs*%#>NGDM-@=6fSGHHHKKJJHHKKKGHHSh8>%=BJ",
"JN>@+#sSGFnvvbcvvccvvmSDSf#$$:NGDN;=1=fAGDmvvvvvvbvvbBFKSg96-:BJ",
"HM=O@#sSGM>;<4:=;%%%%-nHSh1=:eVGDM=;:#hAGM=%$%&%*$%%$>NHFhee*=NJ",
"GM&+O#gSJx$<>>7:::=%-&vHDh*#&6VGGM,=%%hSHc$@O##;3%%*+%bKFh65$*MG",
"HN*++#sDGx>49==@;;&+@-vHDf#%<5VJHBw667fSHc%%.@#$*$$*=6vKSk=$+*NG",
"GN*++#sSJv>:>O@;<:%O$=vKSg#+#=VJGBit93hSHc*,OX#&$+O+53bKFh$+O*BG",
"Gm=+o%hDKv<4;&o&&>6<5>vKDg*@+*BGGNrr6=fSJc=1O@@OO#$$83vKFf$+&:NG",
"HM*++%gDKv69;4>o@2962%vKFh*#+=VGHM0r6%fSJc**#XOXX=*&11vJFf$$=<BG",
"HM;++%gSKbry=$=;#499:&bKFh#O+=NGGN266%sZGc;=O XXOO#&%<bJFf#O@=NG",
"GN4##,hDKb59q#O@O#<42<vKGh#O#=BHGM3%=>hSGv>&OO+%;&44$$vKSf##+;BH",
"GB9%>5fSKv6qi2O@###&2>cKSh:221NJGM6@%3hAGv9q<264@;44#$vKSf#OO=BH",
"JN>,>%fSJvqpy<&>&O+#%>cKSh;612NGGM;%%%fSGv;;;w6=$<:=$$vHFf#O@;NH",
"KB:22=fSJv4e6&:t7$$@60vKGf$=22NHGN46=#sSGcwt=61:wqt96=vHSf#O@=BJ",
"KB=$w9gSJM<;:<6t8-$$7wNKSh#@%=NGGN1>##sAFbqi9=:8w89<79MHSg##O*BK",
"KB=@&*gSGFMvvvvxbvcbbNGGSf#+@=MGGM5%O#fSGSmcccvbbvbvvMFHSg*=#=BK",
"HN=O@%fAGGGJJJJJHHKKKKHKSf%@#>NGGN2%O#fFGHHGHKKKJKJKHGHHFg&#O&BK",
"JN&$19kAFSASSSSSSSSSFDFDAl%@@:NHGM3>#%lZSSSSSSFFSDDFSSSFAz=#O*BK",
"KV96>2szhhffffffhhhfhhhhzs#@+;MGGM5>=%skghhhgshhhgghhhhhzg2*#:VK",
"JCr6:66&>e<9q9e875%%#%%$$@#O+>NGGM:==*%%*$*$$=&#$%%5563129u900VK",
"KCw==ew#*4&419d9;>=%$=#++@@o@>NGGN:@@#%#:#+&*#++@*%162%:&>8=6wBK",
"KV6;#*8<1q-+#-r9*O@O>:@$+++@$:MJKN666:>-*#$1>>+++#$$+**5*#%*18VK",
"JZiw<:9qw48<-482:;==;:,5-***=1NGGC6:62w7:>1219>***=:*>1q711<9qCJ",
"GGVNCCVBNNCCNCBBNNNNBVBNNMMNBNAGGGCMNNNMBVVVVVBNNNNMMNVVVVVVVCGG",
"GGFJKKKJGJKKKGJGHGGHKKKGGGGGGGDGGGGGGGGHJKJJJJJGHHHGGGHKJJJJKJGH"
};
