/* XPM */
static char *result[] = {
/* columns rows colors chars-per-pixel */
"64 64 53 1 ",
"  c #353539",
". c #38373B",
"X c #3A393D",
"o c #3E3D41",
"O c #403F43",
"+ c #434246",
"@ c #464649",
"# c #48474A",
"$ c #4B4A4D",
"% c #4E4E50",
"& c #504F52",
"* c #525254",
"= c #575759",
"- c #5B5A5C",
"; c #5F5F60",
": c #605F61",
"> c #636364",
", c #676768",
"< c #686769",
"1 c #6B6B6C",
"2 c #6F6F70",
"3 c #706F70",
"4 c #727273",
"5 c #777778",
"6 c #7B7B7B",
"7 c #7F7F80",
"8 c #838384",
"9 c #8C8C8D",
"0 c #919191",
"q c #999999",
"w c #A4A4A4",
"e c #ABAAAB",
"r c #B0AFB0",
"t c #B4B3B4",
"y c #BBBABA",
"u c #C6C5C5",
"i c #C8C7C7",
"p c #C9C7C8",
"a c #CDCBCC",
"s c #D0CFCF",
"d c #D1CFD0",
"f c #D3D2D2",
"g c #D8D7D7",
"h c #DAD9D9",
"j c #E0DEDF",
"k c #E5E4E4",
"l c #E9E7E7",
"z c #EEEDED",
"x c #F0EFEF",
"c c #F1EFF0",
"v c #F5F4F4",
"b c #F8F7F7",
"n c #F9F8F8",
/* pixels */
"vvvbnnbnvvbbbvvbvvzbnvnvzvvvxvvvvvvvvvvvbbbvbbvzzzxbvvvbvvbbvvvv",
"b>     +       %   ,>4$&;88@+ avv   %XX- ;#&o#=6o. +   4X .;  iv",
"z eafafasaaaaaaaasisshsfgagaf abb=raaisasasssasfaiaaissiuuaaa az",
"v abbnbbbvvbnbbnnnnvxxnnvvvvv@gbv*svvvvvbbbbbbvvvvvvvvvvvzvzv sv",
"b abnbbbvvvbbbbbnnnvvzvbbvvvv avb avvvvvbbbbvvvvvvvbvvvbvvzvv sn",
"bXsnb$*.<  >X+*X-X  &-+ .%ivv avv avv;+  83 90#>.   ;=%#;=svz an",
"b$fbb$taiaaaafsassssgssss avz uvvosvz3rsasfagfsiiiaaaaiss+avx*ab",
"z-gnn-axvvvbbbvbnvvvnvvvz sbb azv gvz8fvvvvvxvvvzbvbvbzxv fvv-az",
"b.anb4hbvvbbbvvvvvvvbvvvv anb svz svz1fvbvvvvxvzvvvvvvvvv avv av",
"v6fbn*hbz  +- >93$7#13svv#avvXavv&abv;avv%%.&%+=;XO13%ivv1avv av",
"v>pnb6gbvXtafgsaasffs9fvv1sxv-snb=sbz sbv8essiiiiuaai>sxv*avv av",
"v&ubn.abz gvvvbvvvzvvosvv6azv+fnb*sbx abn snxzxzzvzxx;hbv,fvv*av",
"v uxn fvz abvvbvvzzzz,fxx.svv-uvb.avv&sbn4sbbvvzzvzvx8fvx3svv av",
"vOszn dbb avb +1% izx#avz ivv uvn.ivvoavv0avv   : ivv+szz6fvx uz",
"b@azn*abb abb eaf-uvz9svz3avv>fvvogvb&avn avvXeas avv uvz3avx%uv",
"v#avb gbx abb fvb-fzv4avvqsvz-svx1hvv6svn snv4svb9svv avz$avv gv",
"vOazb avz abb>avz4fzz>azv7gvv,svn-hvv+hvv#svv6fvv avv abv,avv av",
"v$hvv$abv avvX  . hvv-avz#hvb*snv;hvn%svv fvv. 3+ sbn avzOavv av",
"v gvv=pbv avvaauaajvb8alv8szv%fbn;fnn8snv.avvuaggslbn abv-avv av",
"bXavb.avv=avvbvvbbvzb*azz=ivn9gnv>fnn+hvv.avvzvnbnbnn pvv;avvXav",
"v.abvOavvoavvbvnnvvzz1uvv-sbn0avv,svv>svv avvvzbbbbbb uvv+avvXiv",
"bXavz avv --*X1#&4#  Xavv ivv7hxv,gvvoavv* 2  1+X #>%.pvvoavxXaz",
"v fxx-avcaaaaaasfsgaaalnn$svv-fvv9avv=avvafaaaauaassaslzvoavz az",
"z sbx acvvcvvzzvnbnnnnnnv sxv avv+avv avvvvvvbvvxvvbnbbzv avv az",
"z.izzXavvvvzvvzvbbnnbnnxv avn axl>avv#uvvvvvvvvvvvvbbbbxv avvXav",
"z4ivv%4#&7  o* ++   #. X  avv avz.gnn.-.  o &;o X &-544o31ivv6fv",
"x;izzfapaaaaiagagaaaaisiaikvv.azx-snnauaaaaaasfaaauisgafaalvv iv",
"xOszzbvvnvvlzvbbvnnnbnnxvnnvv uvzoannvvvbnbxvbnnvbvvvbbbvxvvv sv",
"x+gvzzvzzzvvvvbbnnvbbbvzvbnvv uzx5snnvzvbbbvbbbnbvvbnbnnbxvvbXav",
"c>w O1&%o#o-4,1*  # .o+.    -#uvv >*% .     +>*- %   ;%1     Oav",
"xfkaasaaasffgaaiaafauuaiiassssjvvasfsaaaaasaaaaiafissassaassaflv",
"xnnvnbnnnbnvvzvvxvvzvvvvvvbbvvvvvvnnnzvvbbnbnbvvvxvvvvvxzvbvbvbv",
"vnnnnbbnbnnvvvvvvxvzvvvbvnvvvvvvvvvnvzvvbnbnvvvvzxvvvvvvzvvvvvvv",
"v8O%   %   $+.%,6%   o      *3abvo--*o>% o =$$% X    +=.   - >sl",
"v3ysaaasaaiiaaaaaiaaaaaaaaaaa6avv eaaasuaafffsaauaaaauuaaaaaa sv",
"x@hvvvnnbnvvvzzbvbbvvvvvvvvvz#avx.avvnnvvzvbvvvnzzvvvzxvvvvvv uz",
"v.fvvvvnnnvvzzxzvvvvbvvvvvvvv izv anbbbbbvcvzzzcvvvnnvvlvvvvz av",
"n sxv1-  .O093X -     . .#fvb+izv+snbX-*1    +>$##X $4 3  avz,an",
"n azz.wuassguuuauaagiiaiu5avv izv snn#eaaappaasaauaufaaaa#gvv fb",
"n ixz%ivnnnnvvvxzvvvvzzvb%svv&izx ann#uvvvvvvvvvvvvvvvvvv;fzv fb",
"n avv avvvbvxvvvvvvvvvzxz ivv azx-abv4avvvvvbbvbvvbbbbbbv,svv an",
"n;avv uvv&-;,,,+;..   sxvXibv.azx avzXuzv;  .X   %   %sbn;fvz an",
"v avx uzv#wiaaaaiiaaaXfnv*fvv3abx uvz azv*eaaaaaasaaaXsbn>fvv av",
"v ivv avb avvvvvvvvvv.fbb7avb fvvoscv avv avbvvbbbbbn.sbb;avv uv",
"n ivv svv6avnnvxvvvbb,gvv avb*svv avv$avv avvvvbbbbbb6sbb5sbv av",
"z ubv svv avv  5;+abbOsbv abb avv1gvv#avv#avv##%+@abv-sbb abvXav",
"v.axv>svv5gvz5esa=fnnOsbn.avb axv@avv avvouxz waa%sbb;fbv sbv av",
"vOuzv fvn1avzwaxv,fnn abn abb avv@azz uvv avb ubv>sbb4avv abb av",
"v$uxvogvbwfvx.avb3fbb#abv anb avz axx#uxv#ann avv sbb5svv avb av",
"v5szz5avvoavv =  .sbb1fbb5snn avvosnv2anv,fnn  -;1gbb sbv=ivv+av",
"v*ixv avv+avzaaasalbvOsbb,fbb avz ann+sxv,gnnsfaiilvb avv avv an",
"b axv uvvXfbvvvvbbnbv abb.abv.azx ivx.fxv8anvvxvvvzvv avv avv an",
"b azv6avv#avvvnvvvnnb+abb.sbv abv.axv uzl2gxvvzvvnbxv.avvXavvXan",
"b anz8ivv   .o>$5# +4-fvv anv&izv.svv ixz0#86+=8*X6X90avv abv sn",
"b avv avvaaaaaasfssssslbv avn avz fvv axvgiagahhgasffalvv svb fn",
"v avz uxvzzbvvvvvvbbbnbvv#snn-avz ivv avvnvvvbbnnbbbvxvvb abn an",
"b avv*avvxzxvxvvvvvvbbbbn.avv,ivvosvv*ivvvvcznnnbvvbvvvnb sbb sb",
"b+hvv;#X5$6; #43q     O%  snvXivv4avv..1  -,  ooXoX>1$>X3ofbb=sb",
"b2fvvsaaagaafagasaaiasaaiilvv>azz#avvaiaaaaaaauaaaassgsaaglbx an",
"b6svbvvvvnbvvvxvvbbvvvvvvbvvv@avn-uzvvvnvbnvvvxcnnbbzvbvbvxbv-sb",
"b#avvbvvvnnvvvvvbvxzvbbvvvxvvoavv,uvvvvvvbbvvvvzcvbvvvbbbbbbb8ab",
"v8+>,+q=oO9 $4**o X .=1 ,     uvv>+ X *  <.#.*        #%# +@ @av",
"vaaasghsaaaghaaaaaiaasaiiiiaaijvvgauiauasagassaaauauaasffssaahkv",
"vvzvbvnvvvnvvvvvbvznnnnvvzxvvzvvvvnvxvvvbbbbbbvvvvvvzvbbbbbnnvvb"
};
