/* XPM */
static char *result[] = {
/* columns rows colors chars-per-pixel */
"64 64 162 2 ",
"   c #3E2712",
".  c #3E2814",
"X  c #3F2B1B",
"o  c #412B16",
"O  c #442E1A",
"+  c #47311D",
"@  c #48321E",
"#  c #432C22",
"$  c #463223",
"%  c #4B3523",
"&  c #4E3826",
"*  c #46342C",
"=  c #4A352B",
"-  c #4E392B",
";  c #513A26",
":  c #533D2B",
">  c #493730",
",  c #4D3B32",
"<  c #523E33",
"1  c #584127",
"2  c #56402E",
"3  c #59422E",
"4  c #564133",
"5  c #5B4534",
"6  c #5E4837",
"7  c #55433A",
"8  c #5B463A",
"9  c #57493F",
"0  c #5E493B",
"q  c #604737",
"w  c #624A36",
"e  c #624C3C",
"r  c #684F3F",
"t  c #66513E",
"y  c #6A513E",
"u  c #5A4740",
"i  c #574941",
"p  c #5D4C42",
"a  c #5F5046",
"s  c #5F5148",
"d  c #634E42",
"f  c #665143",
"g  c #6A5444",
"h  c #6D5847",
"j  c #64534A",
"k  c #6B564A",
"l  c #67584E",
"z  c #6D594C",
"x  c #705644",
"c  c #765D46",
"v  c #725C4D",
"b  c #795E4D",
"n  c #665952",
"m  c #6D5C53",
"M  c #6C5F59",
"N  c #735E52",
"B  c #785F50",
"V  c #715F59",
"C  c #76604F",
"Z  c #7C634F",
"A  c #6E615A",
"S  c #756154",
"D  c #7A6455",
"F  c #7E6857",
"G  c #74635A",
"H  c #7B665A",
"J  c #7D695C",
"K  c #746660",
"L  c #766861",
"P  c #7C6B63",
"I  c #7F6E68",
"U  c #7D716A",
"Y  c #806355",
"T  c #806A56",
"R  c #81675A",
"E  c #826C5D",
"W  c #8A6C5E",
"Q  c #86705F",
"!  c #826E63",
"~  c #8A6F62",
"^  c #836F68",
"/  c #857264",
"(  c #8A7465",
")  c #85736B",
"_  c #8A756B",
"`  c #8D796C",
"'  c #917565",
"]  c #91766C",
"[  c #927B6D",
"{  c #847671",
"}  c #8A7671",
"|  c #867A73",
" . c #8D7B72",
".. c #8D7F7A",
"X. c #927D73",
"o. c #987E74",
"O. c #917E79",
"+. c #8F8173",
"@. c #8F827A",
"#. c #948275",
"$. c #998476",
"%. c #95847B",
"&. c #9B867B",
"*. c #97897D",
"=. c #9C8A7C",
"-. c #A58475",
";. c #A0877A",
":. c #A18B7E",
">. c #978B83",
",. c #9D8C82",
"<. c #9C8E88",
"1. c #9F9084",
"2. c #9E9289",
"3. c #A28D83",
"4. c #AA8E80",
"5. c #A39285",
"6. c #A99286",
"7. c #A4948A",
"8. c #AA958A",
"9. c #A6988C",
"0. c #AB9A8C",
"q. c #B29B8E",
"w. c #B89C8D",
"e. c #A69A92",
"r. c #AC9C92",
"t. c #AE9F98",
"y. c #B29E92",
"u. c #AEA095",
"i. c #AEA29A",
"p. c #B3A195",
"a. c #B9A395",
"s. c #B3A59A",
"d. c #B9A69A",
"f. c #B6A99E",
"g. c #BAAA9E",
"h. c #B6ABA2",
"j. c #BCADA3",
"k. c #BDB1A5",
"l. c #BEB3AA",
"z. c #BFB8B0",
"x. c #C1AB9C",
"c. c #D4B39F",
"v. c #C1AFA5",
"b. c #C2B2A5",
"n. c #CBB6A5",
"m. c #C3B5AA",
"M. c #C8B7AA",
"N. c #C5B9AE",
"B. c #CABAAD",
"V. c #C2B7B1",
"C. c #C4BBB3",
"Z. c #CABDB3",
"A. c #C7BFB8",
"S. c #CDC1B6",
"D. c #C7C1BA",
"F. c #CDC3BA",
"G. c #D2C6BB",
"H. c #D5C9BD",
"J. c #CCC7C0",
"K. c #D4CAC1",
"L. c #D9CDC1",
"P. c #DAD3CB",
/* pixels */
"3.0 H k.Z.&.; 7.G.f.: ! Z.f.M./ & / 8.:.g % 9.H.G.:.% & C h _ f.e 4 % % z $.0 $ % S _ P J - & H 0 g +.l 5.C.( 5 - 0 j 4 - @.j.k.",
"2.P %.F.A.7.: <.j.*.0 k r.<.b.k.2 + G D @ S r.f.j.` @ % v $.a.j.p.5.R < _ y.E $ + % 2 4 f $ ! l.D P u.f H k.e.| S j.e.%.+.*.s.) ",
"d 8 P f.s.{ u j 8 7 - + z ` 7.7.- & j 0 @ t D S g 6 % O @ r [ 7.h.d.8.G N z ; $ < y k 9 $ + l ) 1 e *.e 5 S d m 2.C.f.m.h.< u > ",
"< - = 8 p 7 > < p s i O O - ; 5 - ) r.j @   & 0 z ' #._ [ &.G 0 ` 3.z < < = = d X.p.8.#.J p = j a 2 9 7 = * , d | s.) ) P 8 = > ",
"> # o : < , 7 k [ 3.L 7 O . f ,.r.j.b.0 O 5 R :.0.y.y.w.d.S.g.g q q O O # < ^ 8.g.b.b.f.&.) 7 * p j - > 7 m O.8.^ l j p < < - = ",
"O O < p p a H :.q.q.0.| i o 2 m.m.P m % D &.6.6.8.8.w.b.n.S.M.X.0 $ $ 5 z $.w.g.k.m.M.C.j.#.J $ + = $ 9 P 9.A.v.&.^ P V V j - # ",
"o : l z N ! 3.y.q.0.d.B.i.n X S t.m = N o.;.:.6.w.n.S.n.n.n.m.5.z o + H &.0.d.m.M.N.m.l.l.r._ z O o & J 2.D.k.f.y.8.6.o.o.O.: o ",
"o g _ _ 3.s.y.8.a.v.m.F.L.s.f = m p q ] o.&.6.w.x.x.x.x.n.M.w.=.V O % ` 6.y.m.M.m.l.b.k.k.a.X./ , o 4 | k.h.^ } y.s.f. .H %.z O ",
"o k ` 3.p.j.m.j.g.j.s.8.v.j.L 7 $ O k X.3.&.:.q.x.M.a.d.7.5.y.o.V O : &.4.a.F.G.Z.m.C.M.M.N.r.X.4   9 ` s.V u k O.f.8.j < V ) = ",
"o f O.&.E ( s.y.:.6.` z E &.P 8 O o j :.` r y F 4.y.$.W g e _ :.G $ 5 $.6.M.C.j.C.M.d.1.H  .=.#.z & k >._ 0 u = P v.h.8 m l ^ 7 ",
"O j U f < k &.p.w.#.g 7 t D ) p O O k #.w ; ; 3 ] a.:.g : ; r ] P , d ( O.=.z 0 m r.:.0 < 5 z o.P j @.e.V z < , ! h.t.^ 7 > J G ",
"O d d 4 > i j.h.k.g.) , e D ^ j O X e / 7 3 ; @ %.L.&.% ; 1 0 `  .< d ~ R g 0 5 5 =.f.p ; 7 P ,.J A e.V.)  .%.>.8.>.j t.) m 7.P ",
"+ m i < > u j.G G K.G , , 7 ) G O o p ..G A A #.j.y.p.@.f f m 3.,.p G 7.] 0 = e h  .>.5.i l r.` z j P e.j.3.O.! t.K * | X.&.P < ",
"% G I 7 k 7.h.7 - h.s.j i G 3.U $ X 4 ) =.s.n.c.;.0 5.S.8.s.,.! V u d 7.7...^ P )  .< ` r.7.&.k f 7 j G V L N >.l.s * P ^ p $ O ",
"O G k.7.0.B.2.* *  .K.r.i.j.C.O.$ O < g ` 4.-.w.` + m p.J c ! l , 7 , > z j.Z.o.5.G # 8 G g 8 7 i 7 < 2 p n L s.D.e.2.i.) = O O ",
"O z t.i.7.p.5.P m *.j.^ U *.>.M i 7 7 8 8 6 k 0.>.l G g.&.k p < , < : < < 8 f g p.| 9 p X.f * < j j 4 7 8 s ! <.r.t.j.<.! % o O ",
"O 4 A G U ` %.%...m.B.+.j p 7 j e.,._ $.0 $ 6 0.j.8.q.f.3.< = d < < B k q < = j f.h.7.l.P.P < M { ) N P z < P } ] ^ I { A 7 2 - ",
"( + @ 4 A | %.7.Z.G.b. .7 , , #.j.k.b.k.H - % X.f.j.8.;.) # $ S V ] Z.t.R d , d 8.h.m.N.V.d , I 7.V.i.%.N * m V G l j I i f *.d.",
"5.+   . 7 *.0.0.g.7.&._ 7 , 7 ) p.6.$._ 2 & - G ^ >.,.I k o : &.y.j.v.Z.3.k < < R ^ 7.y.] k u V ,.V.t.P 7 - M l j j k d p z p.B.",
"9.+ f S p m J j G P K v 4 8 0 8 x v e ;     = 0 d p N d < O 8 6.M.j.d.j.8.m j n < 8 p d d N } I V G l > * < K I ^ P K k k m u.M.",
"X.V ....M 7 = $ $ - : < 7 d d j q f N z ( G 4 & - % % - $ % < ] 8.y.^ ^ V N V N j u < < k ^ O. .> < s i , n ..s.h.r.>.G k #.k.m.",
"5 ^  .7.V # X 7 p 7 4 7 e ) ^ J m k N  .k.i. .g = O q ~ o.: < d q d + % < P r.t.&.K m } | h.k.^ > j I ^ ^ ^ =.s.C.J.A./ e H H H ",
"0  .@.J 4 : k  .O.s.,.8 H r.h.h.L d X.Z.m.&.J N - g q.j.n.0.R z e + o + } e.h.m.3.K } t.3.k.C.^ l h.h.r.<.^ O.,.h.z.5.S e = . O ",
"< k H d 9 ,.p.7.r.j.3.$ l j.G.f.^ q O.t.>.O.V d < ] 3.o.O.,.X.^ ! < % q h.V.s.3.^ z >.8.<.f.s.J O.k.V.C.h.^ E :.,.#.S k 6 & 6 o ",
"O $ $ 8 & P f.1.D h H $ $ @.*.H z d P N N P f V N ^ ] } } f 8 N B ! S  .k.j.<.! S f  .3.` ` v g N ) r.j.i.h 2 E #.J N e e _ *.7 ",
"; ; e N e O t 6 m +.2.1 . @ + S } - < < < e H y.y.^ d d e < z y.j.O.N N ^ o.R f g g d D H d 5 0 v g N J N & 4 8 k 6 3 k $.v.g._ ",
"z % ! 7.h X & D D.H.z.k & % ( D.Z.f + O D r.g.g.a.;.~ J 0 5 7.G.Z.0.0 + ; q : : g Z W e 5 5 : 5 O.! z d : 0 z J %.D 2 J y.j.v.7.",
"f 2 0.j.J   2 _ r.l.s.*.t C F.D.V.} - x M.H.G.M.$._ ;.3.J v b.G.B.V.<.- % : v 3.9.0.0.[ e % : =.A.f.$.v d S &.8.0.5.v e 6.m.Z.7.",
"< f f.S.s./ t G $.$.` U h %.s.f.3.f J M.H.S.b.5.R [ 0.a.&.( p.g.p.u.j.H w F 6.m.Z.B.m.f.O.% S s.v.B.v.&.v [ d.j.j.j.0.g N t.3.G ",
"% 0 5.C.s.D t 5 C F D f F 5.=.$.N 8 3.H.j.:.#.D v $.r.5.[ w t [ 6.r.r./ b ` =.5.0.d.s.s.p.q f $.0.0.8.#.7 h p.k.f.y.5.D 0 S f : ",
"$ 5 s.f.$.2 & % 1 5 6 % 6 +.$.Q f : w ] ( N H : g $.` ` R 6 + 6 G S  .R h ( [ _  .&.7.3.5.R c h J X.X.H % 4 $.y.8.$.] ! d D N : ",
"; g y.8.S % & 6 7 % $ % 2 D / f < : + $ k H ` : 2 J N H E e % % 2 k ! V g N v N ! ^ _ ,.o.W W d < e f : % % k $.:.$.) ) N H e < ",
"5 5 #.' e e f G H 0 % % 2 e d 2 0 H 0 % h 1.h.) d v v G H z 8 6 *.r.t.%.< q f f z ) P O.X.Y g x q < q @ % @ 5 } 8.&.) V N v h q ",
"5 2 0 g 0 H ` $.` g % : J f 5 w D ) H j e.N.z.C.<.^ ) _ H z g #.F.D.Z.h.J 7 q q e e : : w g ! 6.3.o.~ < 5 : r X.$.X.V : 7 f 5 5 ",
"c 2 2 : 4  .p.0.%.H v v E D g C #.9.P z 1.h.z.l.#.J  .` L N d %.F.b.r.8.3.N 5 e h e x f ; % 6.A.M.V.d.O.^ [ _ _ L N 5 ; e 5 @ x ",
"t e 4 5 j 7.D.s.:.k h H E ( v v 1.N.` f J 1.k.k.[ d z J V f k / r.8.3.&.] g 5 e Y ] g.r.e + P h.l.m.Z.8.%.s.5.=.>.X.E :  .>.e : ",
"% 2 6 t H $.Z.V.7.2 h ` #.1.H D #.u.#.C g F _ / H q 6 : : 5 k G ) 3.] E v r 5 v ;.8.d.b.v @ e Q f.k.9.D _ 5.:.9.f.:.` k f.A.r.0 ",
"m @ & g D =.f.V.f.f : T =.u.D S / ( _ _ y 5 ; 1 q : 4 g G v 0 e v ] E e ; < e R $.:.=.0.' v t 5 #.7./ y h Q +.$.$.( h S $.h.V.r.",
"l.S @ f v N D 7.9.( 5 6 $.6./ y C Z T F v f : $ & & : S >.b.%.t e 5 5 % - z $._ ~ ! J ` ` ( t & y #.#.T y y f v D t 0 z Q e.l.z.",
"h.J @ : : % % : P *.( : g +.J 3 5 3 t 5 0 J H 2 % : 0 N =.f.k.=.! 5 % % D y.Z.3.H k C J D 6 ; & : ` =.` e 3 2 3 6 f ! D G #.0.u.",
"` 1 @ @ % % % @ t #.S & k / C & : 6 % % 2 m +.:.%.+.J S ` 5.y.s.O.f : v k.C.f.$.) 0 : k t % & % % e v k 0 e e e N  .9.2.G W =.=.",
"f + % 5 t g 6 % 2 0 & k / ! D 3 ; ; 2 2 3 6 C %.z.h.$.C t =.9.+.S : : D 5.*.' D z z 4 O @ $ % @ + o + : z k z G _ =.k.s.S f +.*.",
"& 4 0 f P ) A @ % % C 7.5.,./ e 6 5 G :.*.e 4 z ` s.=.F & J :.J e o & 5 t S z f p k e t +.H 0 2 + 0  .8.3.( J v %.6.*.' g & 6 w ",
"2 g z | O.=./ ; % % ` h.r.=.v 5 6 C 9.N.C.i.C 2 t +.*.Q & & 6 % O O @ ; @ $ 2 0 f p 0 J u.s.e./ g S Z.S.8.$./ f g J S v 0 2 % & ",
"d S _ ,.6.a.0.S & ; ` r.7.` y t h ` h.z.s.s.=.6 $ 1 9 e % 1 t h o O + O O ; l S H ( ( J ,.f.z.1.v e :.p.3.$.g & % : e e f t 4 2 ",
"e N ] &.0.8.5./ 2 e E _ _ S w h _ *.$.=.| J t 1 1 2 t & % 6 1.s.R O @ : h 7.k.s.*.$.X.H #.C.F.s.v 5 ' :.#.D 5 % ; % 0 k P | _ t ",
"% : J 3.b.:.! 6 : N k S t & % 5 h f h D S e & & 1 G D $ % 6 :.k.h.e : S 1.u.i.=.` Q G D  .N.m.$.z 2 D F 5 V ! 6 2 ! ) ^ ` %.#.2 ",
"o % 0 W g.#.z & e D r 2 + + @ & ; 3 3 5 h f & - C :.) 1 @ e +.9.e.e ; 4 f C z 6 0 k h v J [ =._ S 2 & % e  .5.D 0 #.` ^ ) ` k X ",
"@ o : g N x g y v b b x & & & & 6 / ) V v 6 ; x 0.f.l.( & 3 Q +.$.v 2 & % @ + + 1 6 2 2 k J J z 6 @ z 1.0.g.k.( 5 h ( [ / H z C ",
"H : @ h h 5 < k g y g e ; q x b 9.C.M.s. .h v ( 0.l.s.5.C z ( $.=.J 2 : : + % 5 G ` g @ @ 1 2 @ + 2 :.g.S.N.6.Q ; & D ` W J 3.m.",
"d.=.5 : g g : 5 : 3 ; $ ; : w ` s.f.b.B.0.! v Y ` +._ Q g t ( ` #.H ` 2. .h t J i.l.5.5 @ 5 6 2 @ 4 J $.p.:.C 2 @ @ 2 c v D r.M.",
"5.5.v w e d 5 : < 3 5 3 ; ; 3 g C ` 6.-.] ~ x : C D Q 6 @ g / ` Q g 1.D.C.z.h.d.i.s.5.t 6 m >.U : 1 _ 1.=.T & & / Z 6 g g D ,.0.",
"J h & 5 0 : ; 5 z H ^ x 3 @ @ ; 3 b $.D v 6 3 ; w t 6 ; 6 ( / ' J 6 ` 9.s.r.5.*.,.*./ 6 m +.u.2.z ; ` =.Q v T 0.B.' g x x x ( $.",
"2 : O & 9 d 5 ; e B v 5 % O O o + : r w w % 1 w T Z w c +.:.u.g.5.t v X.` / e : 6 6 & ; h +.l.i.A & S ' C T y.S.y.x w W ( r 5 x ",
"+ + o % m ` E 5 < < % + - 0 7 : % e B v R ( D 6.g.:.y y $.9.k.g.=.D 5 5 t R h 6 6 w 2 ; t 2.z.2.h 3 w S C 5.S.C.] : q W b.v.w + ",
"+ ; @ g i.j.:.k ; @ o $ ! >._ f 0 N S D =.f.f.M.S.9.3 1 C F +.$._ E : & ; D ( ` ' x t C *.u.h.*.g F 0 D #.0.S.S.' ; 3 ~ B.S.S O ",
"@ z / *.l.d.X.g : 5 % 5 &.6.0.) g N k g e.f.p.M.D.:.3 @ 2 3 y C N v 2 + 6 $.$.=.$.t 2 +.=.=.1.G 5 D 8 H 9.=.7.1.v 5 v [ M.Z.S & ",
"o C 5.a.6.` z H ] ! e f X.6.0.` 5 : 7 6 ^ $.( Q +.Q w 0 6 & 3 y 1 & ; & @ ( u.9.J % @ f *.=.` 0 : e p j ` / e : 5 : 2 G *.y.v O ",
"O g =.#.Q 5 6 %.F.v.v % S 5.:.f O + % % : w N r w 1 4 ) j.*.- % @ @ + 5 1 6 ` ` t + & 5 C z 2 % % j _ D N r 0 6 r N g 4 h v ; $ ",
"r r T F S + 2 ( 0.0.R ; z / / g f h g e : % < : + o S C.F.s.z 2 % + O & @ @ w y - 1 2 2 1 2 % 1 U 7.6.] v f l g ! y.y   % ; O g ",
"h 3 2 & 2 + & [ =.=./ : 5 z k f H H / 5.J 4 @ @ O C u.s.9.:.y 6 - & + + @ 6 y 1 @ 2 z k e 2 : S h.9.=./ 5 g m v ( p./ O O & r v ",
"v 2 + & 3 & 2 E +.h & % 0 z k 5 G #.r.b.$.& . . o y =.$.+.C 3 z - e - + z J S % + & U 9.#.z - f J E y % o & k ! ] #.#.e @ ; r v ",
"g 6 @ e ( C 5 & 1 O   0 q.7.J 0 F :.k.g.[ ; 2 6 e e C D t 2 5.u.J +.S % 2 6 z 0 $ 6 J =._ k - : e 0 O + 5 6 5 G v e d : : ; % 2 ",
"r & 2 #.s.9.e J =.C + Q B.G.u.6 e #.g.0.T & S j.a.( t @ O 2 +.k.J v J 6 $ % 4 z 4 g J / G 4 % = : - & t 9.5.% ; - ; : : 6 0 / $."
};
