/* XPM */
static char *result[] = {
/* columns rows colors chars-per-pixel */
"64 64 40 1 ",
"  c #AB9C86",
". c #AD9E8A",
"X c #AFA18D",
"o c #B1A28E",
"O c #AFA391",
"+ c #B3A592",
"@ c #B6A996",
"# c #B8AA96",
"$ c #B6AB99",
"% c #B9AD9B",
"& c #BCB19E",
"* c #BEB3A2",
"= c #C0B39F",
"- c #C1B6A4",
"; c #C5B9A6",
": c #C8BBA7",
"> c #C1B7A8",
", c #C5BAAB",
"< c #C9BDAD",
"1 c #C7BEB1",
"2 c #C9BFB1",
"3 c #CBC2B5",
"4 c #CEC5B9",
"5 c #CFC8BD",
"6 c #D0C5B5",
"7 c #D0C7BA",
"8 c #D2C9BE",
"9 c #D5CDC3",
"0 c #D8CFC4",
"q c #D7D0C6",
"w c #D8D1C7",
"e c #D7D0C8",
"r c #DBD4CB",
"t c #DFD8CF",
"y c #DDD7D0",
"u c #DFD8D1",
"i c #E2DCD4",
"p c #E5DFD8",
"a c #E6E0D9",
"s c #E8E2DA",
/* pixels */
";=::=:===:=&&&&&-&>&-%-%&-%-*>*-*-&&**&>***&%>*>-:;;;;;;::;;*-**",
";;:=3=6===;=-&&&&&&%%&***%=%%%&&&&*$&%&%$$&&*$>,-;;;;-=:::,--**>",
"=:=:3&**=@&$&&%%%%&%-&%&*%%%$*$&%&$@$%%$&&%%&>51-&&=;-=;;-,-***>",
";6:=&;*%&&&#$%$&$$&&*,121,*%%%$&$%&&*$*%$%%%&>55459qtqqtq51-**&*",
"<31%,34*%****%**,9eiiperr0354>%%&$&&$*$*%%%*&1rtqtupiiuiuq5>>>-*",
"%%$*,5e415594*39eii992%>55985789qrqq4141133558r8trqtpipiiqqq955,",
"1***33995reereeeeerereeetuupuitiyyyuiuyywryrtyyr5595q55qqtritttq",
"tireruyuypppppuippiiiipiuipiiruiiyyuyyyyyrtqr885441444155qtttiii",
"ppiuapppiippuppuiyirriyyupupiuiiiyyiiiuttyitppttitrsttpiiiiiuusi",
"upipyiuyuusuper529299795999eyyiyiyyiituiititttppiuiisipsiiisuipu",
"urr89reyr995433422922,,21922221,11111>;,,>11:;;3,1311555qrriuiui",
"pie54,%&*&%*&$&%$$%&%=%$$@+$$$@$$$$$$$$O$@$$@$$%$*%&*=%$&&*>15ii",
"uur,&&%$&%$%%%$&$$$$@$$@@$+@$+$$$$$$$$$@@@+@++o+@OO+$$$O$$&>>1py",
"irr1%$$$%&%$$$%$&$$$@%$$$$$$@O+$$&O$$$$O$+++Xo@$@OO@O$O&$$&*>1tp",
"pyy1,$&$&&&$%%%%%$$$@%$$O@$@@@@$@O$@$$@+@+@++$@+@oXO$$&$$$$1*1ri",
"uur93$&%&&&*%@%*>,,1$%$$$$$$+@@$&$$$@O+$+$oo@o+++@+@O$$$O$&1*1ri",
"iyi5*&&$&&%%%&$*88q6&%$%$@@@++%*-*-%#+#+o#@#@@@$o@@#$+@$%$*>*>qi",
"uir5&&&$&&&$%&$38rr53&$%$+$@+%=>;3;;;#+##o@o@++@@@#@@$$$%&&;11ru",
"pui5@$$$$%&&%&*3rrrq3*&&@$$++&*1,33;;++###@##@&;=$@#$%$@$$&--1qi",
"aiu1&&$$%&$&&%*8rtr866&$@+$@%%11,,:3:#+@###o#6636:=@$+@$%%@;11qi",
"tpw3+$@$$&$*$%$5tewq33*%@%$$%%<13>33:##o@=#o1rq866;$@+$&$$&>11qu",
"iii;+$&&%$$$%%$qattwq6*%%$@$$%<,3,;&##o+oo#=qrr566$@@$$+O$&*1;qt",
"iii3#$$$$$%&$&*9tuere4,%+@+%++;,&3&&##+#@@#6qtr94&$$$@$+&$$**1qi",
"tar=$+$$$%&&*%**5qqq53*%%++$@+%$&%%3#+##o#=8ttw5;@@$@@$@$O$*,1qi",
"air3#$+$#%@%&$&&&44441,$@@%%+$@$$&=&=#+$oo=68q9:$@+@@+@+OO$*,3qt",
"ai8&+$@%%&&%*%$*&&-;***%%O%X++#+o$&&##@+o#@%66:$@@@@+$O+O$$*11rp",
"tt83$$%$@%%$%&&&@&&&***%@+@++$$+@$$###++o@@@$:&=@#+++@+@$@O,11qi",
"at8=$$$#%%$%%$$%&&&&%$*$++@++++##@@#@+##@#@@=@&@@@++O+++O@=*,,5t",
"tt8;$%$#$%%$%%$&@&%O$@*@%$$@#+@@##@#=@+#+#@@@o@o+#oo$++@$O&>&>5u",
"it5&$++$$O%$%%$%%@@$&O$@+@@@#@+@o##o++++@@o@o@@ooo@#+@+$O$****1i",
"ir4&+oo#%%@%%%$&%%@@@@@O@@@+@++@o@%#@oo@@+@o@oooo@@@O$O$$X&>*,5i",
"ir5%$+$+O%@$%%$%%@@%%O@$@@&@@@@#@@#+#++@@@@o@#@@o.oo@@OOOO$1**5p",
"ie3#+O+O@O@%%%$%+$+$$+$$O+O@@+@#+o+o++###+@+o%&*%O++#oX+#$@>*>5i",
"ie4#+o+#@#%&$%%**$$O$$$+@$$@@@++@#++++o##oO+o%$@@%@+OO#O+++>*>ep",
"ie2#o++oO%#%%&$$$$$$$$@@@@@@+@%+#+o+++o#+#ooO#%#$$OO+oOo+O#*%>9i",
"ie4#++oo@+%$$%*$%O%+$+$$@$@+%+@O#+#++@o#+.oo+%#&@%@@+O++OO$>%*ei",
"ie2+++++O+@%$$$@$%O+$O@$$@$@+%O+o@#o+o@o...o+##;>>>oOoOo++$>*>ei",
"ie2#OoO+##*%+$@*$$$OO++%@@@O@$++o@+o+#o@.o.o#=2:43*..O+o++$>*>ei",
"ae3@++O@$@#%%%+$$$$+$@$++$O@+++@+@++ooo.oooo&===,*Ooo.OoO+$>>>ei",
"iy2@+OO$%*%%*@*$%*$$$@$&%$@@++#+@o@o+ooooo..*&=#*@OOoOO#++O>%1ei",
"uy2#+o#%$$$%*>%%>>%$O$+O%O$$O+++o+o+oo =...======o+.++oo+@.=%>ey",
"iy7+oo%%==*>>**>,>>%%%$$++O@$+@+o+o.+oo..o. ===#o+#.++oo+++@@%yi",
"pe2#.O.%%%%>%%>>,1>-O$$O$$+@++@$+o+ooo..  #.o#o#o+###o=o++++@$ei",
"ye8#ooo.O$=>>*12>11O@$O$@$$@@O+@+@+o ...ooo#oo#oo#+o#o+#++.+$%ei",
"pr7+.+Ooo%$%***144$@$$@$$$@+@o++@++o..o..ooo.o#oo=o.ooo++#++@$ep",
"ur2#+.ooO@-=%$****$O@$$$O$$O+O+o++@.....oo.oo=oo#o##.=oo++X+O@yu",
"ir7+.ooo%$*%%****$$$$$@@O%+++@+++o+o.....ooooo=##+=o##o++#o.+@ry",
"uy7o+..+%**%$***$*$O$$O$+$$$+@+@@oo+... .oo#o=o====o+++o++++O$rp",
"uy2#.#o#####&>=%==@@@O@@@%$$@@+O.ooo  ooo.#o#+%====oo#..o##=#=ri",
"i02ooo####=;%%=%+=@@@$$$$$%@+++o.o..oo..ooooo+,-===.oooooo+>=-ri",
"yr2#o.##=#=#=%#%+=++@@@@$O@@$+@o#oooo....++##o>-,:=o#.o##oo<=,ei",
"ir2oo.o##=#=%*##++=#@+O@OO@@o$$+o#... .oooo+#o==;;=o o...o#<--yi",
"yr,oooo######%++#X+#+#O+OO+++=$@#++.o.o.o.oo#+#===#o.o.#O. =%>eu",
"yy,o..oo###+#o++++++++++oO#X+O+=%@ooooooo+o#o+##=+@+oo+++o.$=,ea",
"yr<o.o.#++++#o#+@O+#+#X+o+OOo@@@O@.Oo#++#o##oO++.++o#o+o+..+@=ei",
"yy<o.. .#.o.+++o@.o+++++OO$+O+@O$oo+.#+oo#oo+OOoo+++#+++oo++=>ru",
"ur<o . o.oo.oooo+XXo++X++@O@O+o++@O@$++o+o+oO+o++OOO+++o+++O%1ei",
"yi6o...o...oo..O++X+$++XOO@@++o++Oo+oO@+++++Oo$++OoO+o+o+++%>2ry",
"ui9#oo#=&=**,,>>>,>,>>>>>=%$$o##$OO+++OOo@++@++O#%$%=%%>=>,,2rui",
"iur2=:<<2379790e80w0eeww95592422,---->>,,,,211>->>>=>,>:>,128yia",
"iiiy80099000errrrrererrererrwrrruyeyyrryrrrrr0rrrerrryyuiyyuiuuu",
"iiyuyuuyriyyiyiapuupuyiiipiuipupuippuuiuiprpuyy00809yiyiiuiiuiiu",
"uiyyyirryyiyiupiyuipupiaiuiiiuppipiiiurpu0r0y0990097800rryiyyyuu",
"ur069779990rrrrr9y9ee0e0098998989222222<-22<>2>>==>>--=--::2227r"
};
