/* XPM */
static char *result[] = {
/* columns rows colors chars-per-pixel */
"64 64 69 1 ",
"  c #1A0505",
". c #1D0907",
"X c #1C0609",
"o c #1E0A0A",
"O c #220A06",
"+ c #290E07",
"@ c #250C0A",
"# c #2A0E0B",
"$ c #24110B",
"% c #2C110D",
"& c #32140E",
"* c #3A160E",
"= c #3B190F",
"- c #2D1310",
"; c #331511",
": c #391712",
"> c #361912",
", c #3C1B13",
"< c #3D2018",
"1 c #431E15",
"2 c #491E15",
"3 c #461F18",
"4 c #452116",
"5 c #4B2216",
"6 c #452219",
"7 c #4C241A",
"8 c #4C2A1C",
"9 c #522617",
"0 c #542917",
"q c #582917",
"w c #52261A",
"e c #58261B",
"r c #542A1C",
"t c #5B2D1D",
"y c #56311F",
"u c #5E311E",
"i c #622E1D",
"p c #63321E",
"a c #6A331E",
"s c #6E381E",
"d c #72351F",
"f c #542D21",
"g c #5C2E21",
"h c #5D3121",
"j c #622F20",
"k c #633322",
"l c #6B3522",
"z c #663825",
"x c #6C3924",
"c c #653728",
"v c #6B3B29",
"b c #713723",
"n c #723B25",
"m c #793D26",
"M c #743E29",
"N c #7A3F2A",
"B c #774127",
"V c #794027",
"C c #75412A",
"Z c #7B422A",
"A c #7E492D",
"S c #7D4931",
"D c #834127",
"F c #82452C",
"G c #82492E",
"H c #8B4A2E",
"J c #834A32",
"K c #8A4D31",
"L c #8B5034",
/* pixels */
";,4,1w91w9q9&%66kk5ai9wte#1nnpkkabxppr,,ltqr87jllp>,j9wwggcyhh88",
"%5755kq5aill,#25hp5kiw7q2#1vxhyklMxkpq%,btrw88gvzz::gw7fthzghk88",
"%4666t95iiai,#27th5it97w7#,vzhtuaMkhlr%>lrerw8knzx,1gfwwtgxhhkr8",
"-467rt96teai*#15gt9tq52w0#:zzhtuaxhriq&&lkit8fvZll1,hwwrtkxghzy8",
"-448up94tqpi:%27rwwte7277#,hzuthaxhtkr:-rrew66fgk8#1r8w9yhxykzu8",
"%<45us95paxi:$29e7war7626#>ulhtylxhtiq1@;;:::::,2,#2rf9rtkvhkzh8",
"%466ys07assi:%79q8qie7772@,zkhyklnhqar:>kqt0rklMvv::rewrtpxuuzu8",
"-448usr5allp*%rqw7riw7676@6vkktulnkrie&,mlpefcvMnM,,grwetivukzh8",
"&<47ubiwpaba&&q0w7ra76774$4xzchklNltkw:&llp9fzxxvx@,hrwrttnkhlyr",
"%446ubiwplba%%rrw8tiw6276@6Bakrpxnlqgr:;lljwfkllCr 6hrerqilkgky8",
"%<67pdlwaxna&&tqw9qp96775#6xxpguxnzrpq;&blkwflklS, 7hf9etibk8uhr",
"%467abkeapxl;;qrw9rt97w75@6vxvhkbbktar-%xlj8fckBx%%6hfweeink2rhy",
"%46ylnktbtlb&&eq07rue6ww6#7BlnkknVztat%%bat9gzkM6:,1frrftinh4rkr",
"&60tlbkgbrkb&;ree9tkw2w76#4vkMzlsburt1 %lxk9fzvk,z1,hf8wqtNk6qp8",
"$7uuknatbtjb:-qrw9rpq8g97&@>;>>;%*;%OoX&bba78vk7kN,,ffwrrlBk70p8",
"%7uuklxkxqin:;tqe9rueeh94$<y566707>705#-sla8fh3fxv,,fww9ekna7yk8",
"$9iikxnxietN1&tq98qhrrkr3#7Chrflmk4tbi&;lsxrfrrzxx,>f77eggvk9rur",
"%7khhxmlt7tF2#rt97qpwtct6$7zt0fkal6rlr%&lbsryhyknM,>88ww5ebiwwu8",
"%7ttkmBxt2kD5%tqw7riqtvl9#6zpq8klp2rst&-plsy8vhkvM,%fr7;1lnkrwk8",
"%497xNBkr2tD2%tqwwrkrtvMk%6hthfkkp7qau-&abxu8vkkMM,&77;;eallq9ky",
"%7e1hZMrr3eZ3&tr07tutuMNx%,h8hrukt0gka&%lbxtychpnB,-:#:wianlrekr",
"%6w:8Sltr1qF2%iq89rutkvNz&,h7rrkh99tll&&axburvzzvM4o-18qlxnlrwa8",
"#7w*7Mzjg19D6;tq9wtutkCNk%,g7zgktr8tll&&absu8zlvxM,.,re7anMkrwp8",
"$7g,hJM9w6rDw%urwrhuthCMk;,g7xhhhe6rla-%pxspyckkbM,o5t9rdnNltqkr",
"$45:,6--%%4l1&iqtetktpCCz%,f7xght74rlk&,kblurvhhbb,o7jwwlmBlkqkr",
"#&##$@%;$oo  ,ptqttttkMBl;,g8zjkt76rak%4lsbprzktMx:@ejw7amVkkrhr",
"#9tgvCZhykkk,;tqrqukgpnZl&,r8lklt72tak;1alluychubM:%tjwwanVkkkk8",
"%tzlzvCkhvCH9&jrqqrkutMZl;,f8xhkt71rlk&,axlpykhubM:#tjfwknVakzpr",
"%8utzvvukznZ7%iqqr7hvxMMx;,fwxuht71gpu;,allpykkgMl-%tjw8lnNaajj0",
"%7urcnChhknF7%gqq67qtvFFl*,r9lkkr71rpu;<llbprzgqVl%;igwwinVkllk8",
"@4tizCCyfkMF7&trr92tr9xSv,<t8zgit74qpp;<plxkycwwNl#&gg9wabZlklk8",
"%4rizCvukcMZ7%tqr72kkrtgr%6rwkgrt74ruy;1aslphy*eNk#&kge7pMZkilk8",
"#68tzMMjicMA5&eww56kpkNNp%6g8ptyy78tgg;,pllarh&5Vl%%uzt8tnAxllg8",
"#17qzCBjgcNF7#www42uahMSN>6h7kqtr7flrh*,lbblfh&7Zl&&lxu7tnVZMip8",
"#,49zMNrrlNZ6#www26huuxBv&6h7prrq98kug;1lnmxhc;$lN&%lvj2qdVVxph8",
"%<18zCNrrkbN5#w9712ppuaxl*6h7kqtt78ypg;1bbstff, tH1#lvgwtnZVbah8",
"$,,9xCNrrkli,#9ww13kpulzl:6h7prtk7rttg:$:-$#-:>#&2#:xlh8umFZBlh8",
"#66ezMM7gkki,#w6911kptxkh;<h0ktyk88rhk&%47q9,>,77: :bvh8gVGZVlr8",
"#78rkBMerkjt,@22w11kuuxur><uftrylwfttg%1bVmlffjbZM+@lnkwtVGZVxr8",
"@2wrlNMrrtgi,#2w7,1kptlpr&<hrh9rvrfkut&,lbdkr69iZM#OkMj9gVFAVvf8",
"#67qvMNr2wfi1@26e14altxle;,khh0hvrhhjh;,anaa867jNb##xvkwkcVFVxf8",
"#1wrkNNr779i1@1ww14lpuxl7&,kcfryCrhhtt%,lbapr69kNb%%xMhwjjMFVl88",
"@68ekNnt87ea1O27713lagly8%<xzrykArhhig%:lxaa769kNb&;lMkwjkMJBxr8",
"#17gzlljwwqi1O188:1lphat7$,zlhlzCyhkgi&1blap76wlNb$:lMkwtgMFVx88",
"@17talttyqql2O126,5xatlr7$,zpzxxSykkhh;,bbpi767kNl-:lMhwggCFVlr8",
"$,7txz5rktrl2@21929bllMhr%,zxpvxSthhth%,nxai777lFb-&lMh8tgMZVx88",
"#,,8lk7ptqtl2@163:=11474<O>CxuvvAtkkth;1naat649lNb%*kMk7tgNABz88",
"$,,8ki9pgqad6X&%.XXXoOoOO.<xxuBCAhvktk%1niww679kVl#:zbu7ktMAZp88",
"$,17ki9tqtbb2O22:27uq7r61O,xxuBCShzktk%,ngww769cVl#5VngekgMFVk88",
"#145lg9t0gam6O5r59tnt9j91O1xvuCCStlktk%1njww77wkNc#wZbg0ktMZZh88",
"@145lgqqrrii,O4w457lt7kt1@,MnkMZShvhtk&1Njwf77wjxj+wZxrrhtMVCh68",
"+149khqptrll;#697r5lt7lk1@,bbkMAGkxtuh&4npw877wiag#eZxrqh7vACk88",
"$145ptqxawil:O69wq5ar3bk3@,vMcnAJktrth*5mke977fije#qNxfgp7vZBlr8",
"%=26aiamteil1O6grq7liwxj1@3bNlNAKzrrph;5miww77wtji#qBlrgz7xZCky6",
"$145klNspejd1O2gtq7lbelj3@,MmxMALxittk*7mpfw77wiae#rZxfjl4bGAxf8",
"$127panbitja1O5rte7lbrlj3@3bmxCALmtjlh&2Mjfw77riii#4ir6r, 8yr74<",
"@119ipVniqid2+witw9aleii6O6bNnBALVpibp-5bpqf28rtai-:1:#:>,<&$&;;",
"#115qtmlirjb2O9jiqwaitiiw#6MbMnCKZkkxk%6btw877eikt#wnjwfpzCC=8u8",
"$115qklpleib2Owiar9iiiiie#1MMMMxKDkkbt*:ljf877gjlg%9bkwfppCh%rh8",
"@215waajiiia1@7gatwaiieie-6NnMblKZakNu6%tggw88gjit#6ktfehuCy;yy6",
"$555ratjaiil1#59krwaiielg-2NmvlxFNlaxi4:lgre8rtklj%2ir8wuhzz,yf8",
"$=65eakrbiak:#24kkwaitwlk#1nvlpkbMltlt:,bttr87jvbi-6arwfuhxp68y8",
"$#&11g9,rij6+-74kl5iie2ac-,nMlgkbNxhlt:*liff87klxp;1kq8rhuzxcy88",
"#OoOX%@oO#%XO%57pl5li99ii-,nblkkxmxpat-*bgww88kllp:1kr78hhzzvu88"
};
