/* XPM */
static char *result[] = {
/* columns rows colors chars-per-pixel */
"64 64 43 1 ",
"  c #151212",
". c #191414",
"X c #1C1A1A",
"o c #211D1D",
"O c #262525",
"+ c #292626",
"@ c #2C2A2A",
"# c #312E2E",
"$ c #353232",
"% c #393535",
"& c #3D3A3A",
"* c #423E3E",
"= c #454242",
"- c #494646",
"; c #4D4A4A",
": c #524D4D",
"> c #555252",
", c #5A5656",
"< c #5D5A5A",
"1 c #625D5D",
"2 c #666262",
"3 c #696565",
"4 c #6D6A6A",
"5 c #716D6D",
"6 c #767272",
"7 c #7A7676",
"8 c #7D7A7A",
"9 c #817D7D",
"0 c #858282",
"q c #8A8585",
"w c #8D8989",
"e c #918D8D",
"r c #959191",
"t c #9A9595",
"y c #9D9999",
"u c #A29D9D",
"i c #A5A1A1",
"p c #AAA6A6",
"a c #ADAAAA",
"s c #B1AEAE",
"d c #B4B2B2",
"f c #B9B5B5",
"g c #BCB9B9",
/* pixels */
"O>2<3<<47$-,>;,,<333332,,322>=>*X=-------------;--;;;--;;;-;;;;-",
";0wwqqqri,489908900qq0008988994*%tiyiyiyiiyuiiupppaaaiiiaiupiyuu",
";90qqqqri3708880999988890886784$#wrerewerwwrrrrtytytytteryrterw8",
";90qqwers48qwwwq009898900864444%@688777767887888888989887878887,",
";0qqwraai=344443422332riggdffdr%X<11<<<<,,,,;<,<,<<><1<<<<1<<;>=",
";0qqqwr9t2eyytrrrrwrrwgipprrrr9&#wryyyrytwrw2rteweerewrrewwweww4",
";0qq0wq9r;7qwrrw000qr0fufdqqq08&#wwryyrrrrr0,rrweeeewwrwwwewerw6",
",00wqwerp<qytytyrryurrgirw8wq0w=O56686677663&677646544444467674>",
"X$#$$&%%&X$=;---;=;:>*wiurwqwq8$@<11<<<<<<,,&112<,,<1,,<<<<111<=",
"&241213322<44445445784irreewqq0=o$$$$%$@&$$$@%$$$#$$$$##$&#$$$$@",
"=231<1<<;>:,223434644,uttrewqe0;>qw00r90rerreeerwwrrwww00ewwwew4",
"*1::----$;,2124444444;irtwwqqww><ttiyiiuiippuipiiappiyytrttyryr4",
",ryyttuiy9<,235554443-yrrwqqwww<-788899999000988877886788766786>",
",errrrruaiy:344444444;wqw000qq0>-688788898888767511222111111221:",
",qqwewraatr;444434234*rti479qw9>-88878988889074446411<,<1<<<<111",
"<qw090ww<6r*455443232$wq540qqqq>-8q99909900q0873ypyuupiyyuyiiiiy",
",qqq999q99t.-::>::*:-.9969qqwrq;*>33131,234312,=8w00ee0899000w00",
",9qqqeq09ea9tpsaputuu9spyyyuiiy;o*******&&*-;-=&6r96878888988880",
"=599qqqqeet:99tupttt99193<21342=*99999999888994:8047000900000000",
"&779q9qq99e-199999999<914458004&*12121114322331&7w800wwwwwwwwwww",
"*2399qqq9ee:>2333223913343465-,+*12111134332242=9rwwwwwwweewweww",
"*199999et99*33949499939956563>3@#,211133223322<=6w90000000000000",
"*2999999999*9999993993998888666%+,1,111<1<211<,&7w9w00w990090000",
"*119595999*>3399999999939778797:+:>::>:>>>>,,>>&6w99009000000000",
"#******::*-43944394997997799097%+>,,,,,,>>><>>>$6088099080900www",
"*11,>1113349999999999997977ey06$+,,,,,1,><<<<>;&8w089000w0wwwww0",
"*492324555599999999977976799433$+,,1,>,,><<>>>;$6w0000w000000www",
":499949595999999999999996899676;+>1,,1112<><2,>&6w00000000009000",
"*1211122359993552333341;4646466<+,>:,1>1<;<><;;$50809090000000w0",
">9tweeupiaapaiuuuuturu94ddddddi<o*******==&&&*&O4066888888888000",
"39999999999999999w99995:t080qq0>#5245494443242<;5866787778888800",
".o*****-:*#*******-**-#o<:=;-=- #99999997668654>4655666666868688",
"=i8,*56,*@45,;2uw80www00wqww0008.1:->*$@%%%#%-,,9:,,***.,-,:-::o",
";uw7>0w5<#wr61<u090qw000wq00q008o991943*-99,999999t9::9o99t9999:",
";yr8>wr71$ey721i090qw000qw000988*9r2951*-999999999tt-99#99999999",
";ir7<wr61$wt72<i08wqw090qqw09986*9e1641*9999999999tu%9:#t9t9t99,",
";at8<ww71$ey71<u090ww00000w99987*9e1651*999999999utu-9:#999t99t9",
"-yr7<ww6<$0y61<u09qwr0090w000987*9t1621$9999t9te9t9t*:9%t9t9t99:",
";iy8<ww5<%wt71<y980ww0009ww09876*9u2641*999t999999uu*:9#t9tp9999",
";ar81ww5<%0r811y980qw09090090976-9p2541>99t99te9tspp-9:#t99su999",
";ir7<rw4<#qt71<y980qw0909qqq9976:9u4443:99t999991aau*:1*sttusuu9",
"-iy81rw4<#qy81,i070qw0q09qq99995#9s6953*99wee9t99tu9*>1.1-1*91>#",
"-yr81ww4<#ey62<ie89qw0q09q9q9997$9s9935**99wetpteeu,>:2*99t1999*",
";ay9<ww61#wi821ie8qqwqq8999q9965$9a99993,**:-:2o**>,1,4*t9y9999-",
";ay8>re6<#ri711i9560wq0999999994*9s9999491,:19t:5431124:ret9999:",
";ay8<re6<$rp714yq057q90999999393*9a6999499929ea>4443234*ter3e99:",
"-pt8<ew4,#ea8<5pwrqwrwww9ww99993$9u6994999139ea>4446435:uet3999:",
"=ay8>we6<$wi956y8688866649993293*9u6999699919ta:4455319*u9t4e99<",
";it8<er62$ei8642**:**********o*-&qi5998788638ii>4346435-rqr30981",
";ur8>yr61$ra06461*9,1<,:-:**:*19=0i5808886648ii;3444534-r9e30903",
"=ir8<rr6<&wu07883*93311:,>,,-*13=0r4888788648yr*2244565;u9e39903",
";ir8;2>=&@ru88001-93331,,,,1,*39=0r3800888868yi;3443356:uqe38903",
"=ir8<w02<$rp08001*93231>,,>,,*19=8t4980888757ry;1443449:rrr498w4",
"=ur8>rr6>$ep08803*93332>><<,:*12-0y388887764477X$*:*:>4*rqq28803",
";uw6>er6<$ei98803*93321>,,<1:*99#50<8888876442aqeewuuuuegdgr9802",
"=ie6<rr61&ri08801*93431>>,,11*19.>4;8788886244i9quqeruruuiii089,",
";ue7<yt6,#0y9888>*93131:,,<<<=57,yd46679886442y75iwrttrurgig009,",
"-uw8<rt6<#9i989q,*91131:,,<1>*68:0d6878877634<y9440wweerqdag8884",
"-yw8,yy6<$ti88883*91121>,,,1<*67-9s49988786451yq970qqeew9wrd5882",
"-ue8<yt71#0u88891*92211:,,,<<=67;0d688w0886682yww80qqewqqqrd4782",
"-ye8<yt61#0i88803&923<<:,,<,:*68=wf464y0763503irqw0qqqqwqqtg478>",
"-ur8<te61$wt888q3*0123<>,<,<,&58-qf574q996>=84iwqwqqweqq00rd488=",
"=yw6<ww4<$0y7688<&82<<,:,,,,,=46=0i65466764,43yqq8wqqw09q89r447>",
"X%#@o##+@o><----$O=$&&OOO+++@X#% >,1:#$%:%@@&=;;,>,<:;=$=*&%$$&&"
};
