/* XPM */
static char *result[] = {
/* columns rows colors chars-per-pixel */
"64 64 55 1 ",
"  c #333337",
". c #353539",
"X c #38373B",
"o c #3A3A3E",
"O c #3E3D41",
"+ c #403F43",
"@ c #424245",
"# c #464649",
"$ c #48474A",
"% c #4A4A4D",
"& c #4E4E51",
"* c #504F52",
"= c #535255",
"- c #565658",
"; c #58575A",
": c #5B5A5C",
"> c #5E5E60",
", c #605F61",
"< c #636264",
"1 c #676768",
"2 c #686769",
"3 c #6B6B6C",
"4 c #6F6F70",
"5 c #737273",
"6 c #777778",
"7 c #7B7A7B",
"8 c #7F7F80",
"9 c #838383",
"0 c #888789",
"q c #8A8A8B",
"w c #8F8E90",
"e c #929293",
"r c #989798",
"t c #9B9A9A",
"y c #A2A1A1",
"u c #B0AFB0",
"i c #B5B4B5",
"p c #B8B7B7",
"a c #B8B7B8",
"s c #BCBBBB",
"d c #C0BFBF",
"f c #C0BFC0",
"g c #C3C2C3",
"h c #C8C7C7",
"j c #CBCACA",
"k c #D7D5D6",
"l c #DDDCDC",
"z c #E1DFE0",
"x c #E3E1E2",
"c c #F1EFEF",
"v c #F1F0EF",
"b c #F5F4F4",
"n c #F8F7F7",
"m c #F9F8F7",
"M c #FBF9F9",
/* pixels */
"O@O .*:#.++.o... O@@O@-<496=O.OOO @@@OO XOOOO@,<->%@XX@&>%%#++:#",
"+$oOO##$OOOOOOo#+@@&%1<<388:*O#&-@@#$$&##%%&#&->=#@&OOO&-@+&%OOO",
"oOqsaapsiiipaaiaaaaashhhhjhsaiiffaaiafiaaasfsaassaaauiusauissw@@",
"XOsMMMnMnnnnMMMMMMmbbbnMMnbnnnnMmMMnnnnnMMMMMmnmmbbnnmMbbbbbba@.",
".OaMnnnMnbnMMMMMMMMmnbbMMnbnnnmmMMnbmMnnMMMMmnmnnbnMnbbnnvvvbaOX",
"o@aMnxdsiisgaadsssaassaaaaiaiauffsiiiiaiafhafjfsaiiissfgfakbba#@",
"%-sMMd:#O@$;$$=$#@Oo:&-:+O%$+OO&>--:&---:=<-691-#O@#:1164=anba=%",
"%5gMMd#.o%%==oo..XXo17>3$X#O@...#&336883:-&&<1<@X%:%*-:3>@inns:#",
"%>sMMg>%O@=<o . O%%=7q71,O%*=@oX  $-><3163:@%@--$$-==+%1-@amms-@",
"@1fnMd1,O.#:&+#<>=><34<2>#%>:=+%-@@oO-1371>>-%=>>%*<3:$-:>smbi&-",
"==amMg2$-%qisishffhgsffhsaaiiaafgfaiiishjfsfiiiiiuisdy>:<,sbbiO@",
"%@amMs%.o@sMnnMnmbbnmmbbmmmbbmMMMMMMnnnMMmmnbbvvvbvbng8541fbni#&",
"OOubMa#o.oiMbnMnmbvvvbbbbmnbbbbmMMMmnnnMMMmmmnnbvbbvbhq5<,fnni+@",
"-&abMa%O.Oinnlassuiuiasgauifauusffsuiaiashaffaaiaikbns3766hbbi@*",
"O*snMs#..@iMMs@#>*&%;1;<<1;4%&-<43>&%-#-::#&1@#@**innu%3;<fnni#-",
"X%sbMs#X.OiMMd::&&4<*<;1697;-61;3483<1><O. *>>&@o<sbnu#:1:snba=@",
"&*pbni++ooiMMs*-=;67:::2,69575->><893=34++O@<66>@#ibmi#13<sbni$o",
"&-snbi@+.OiMMp+#**3q6<,7%&8e4=;>:<79>$<>@%&><>>3:+sMMp$==&smbi@O",
"+%fmbs-$XoiMMi++OXejjgfgisggfsffffghaffaiuasae-&<$sMMs&oo%pmmioX",
"*<smni$%%&smni@$@@abbbbvbvbbmMmmMmMMMmMmMMbbMi---%sMMa@.O:sbmio ",
"*=inni+&,,abna&+O-svvvvvbbbnMmmnnnmMmMMmnnbbMs:%O%gMMpo.o*abmi@ ",
"3:ibbiO#:&anns:@@:sbbliasuiishhhfffffafssslbMs<%X+sMMp+.X+pnbi+=",
"7=ibba*XX+ibna-*;;fbnp@-<@%%%36133=-:=&=-&abmi&;@OpMMs%X @sbvi&<",
"4=ibbi=@*$inni#**:gmmf-1;X#,%O#163@$OOXX@#anba&-@oiMMaO .$snbu$=",
"-&ubvi#+*+ibbi%<:*sMMd:%O.ooX..=4<%$@Oo.O$smnuO.oOiMMa@ .@inni$:",
":<ibbi&O&-icbi+%$@sMMio@O.oO+OO%&=3=$%@@@OsMMf%X Oinng1@%=pnbs42",
"@<svbu&@X@ibci-&;%aMmi@%ooqiaiiiuifsae@@O@sMmf1#o@ivbf->-%pnns,,",
"+,ibviOX.+avba*-1;sMMp-=o+aMnmbbbbnMMiOOO+abnf1&.+ubbs++X*snmi*#",
"%&avbu@XX@ibbs:$&&sMMs:*#$aMbnbvvnmmMi@OoOimma*@o@amMa#O.+abna#.",
"&:hbns;@+%amnh4*OoiMMs=@XOaMbziiaalmMa@o oiMMf*&o&aMMg>&oOumms-O",
"*1gMMs*OO&aMMg1&oOanbi&X.opMna%%@%fMMi$+XOaMMs=O@&aMMf&>@OaMMs=O",
"%3gMMa@.X@aMms1<*@pbbi@..oiMMs<%O-gMMs$o OaMMa$O@&unMu+&%&aMMp+$",
"@>hMMiO .#snnf36>#ivbi+  OaMMf-O+>gMMs=O.OiMMs-;@&imMi@O@;sMniO%",
"O>hMMiOOO%abba:43&ivniO  Oinnf=o@-snMa>=X%sMMs;&OOimms-=OOinna*#",
"O<jMMaO .Oivva*=>&inmi@OOOinnxaiialbMa=OX;gMMs>O OiMni=-#Ounns<#",
" %hMMiO  Oibbf=O@-fnMa*#%#invvmnvbbbnf>OO>gMms>@ OimMi@%%OuMna=O",
".OammaO  Oanbf1%*-anni+X##iMbnnvvbnnMf#@#-smba-#OOiMMi#>>Ounnu%O",
".Oinva%O.Oabvf-@>&iMniO.XOeffaiuiaasfe=&=%imbs>&O%iMMs@-@Oinva&%",
" Oabva& OOanvi%&O@iMni@.X%&@&$OO#+O=1*@#=*inni-&O@innf=O@%snba=-",
" +uvva>O#-gMba=*=&inni%##*$O.OO.X+X%>=@#@-anni&=@Oinns- O;gvni=,",
"OOubbu>*<<fMnf33>@immi;>@OOOOO..XOXX@>%@@%amni@+OOannd>&#<fnbi@>",
"@#amMi-3--avvf1<:@imns7;=@O@@OOOO+@$-&%&@*smMs&+X@aMMs<1<1snbuO&",
"O@iMMu%<O@ivva=@@@imbzhffaiaasiiuuiiauaiialmMs@XXOaMMs-1<<snnuOO",
" OuMmuO>:@inns<#%&aMbbnMMnnnmMMnbbbbbmmnbnbnma+#-#aMna*:=>dMnuO ",
"OOuMbu-,=>inMf>@=>fMmmmmnnmMMMMnnbvbnbbmmbnbMa%%&%aMMf;@#<dMniO ",
" Oubma1<>&inni#=>>eaasasaiiiaiaisfhggaisgsisaq#&$%aMnd-&@&snniO ",
"OOubbf<31:anbaO%&-31>%#%#O@+OOOO@#<4:@O%1&@-#@@OO%sMMd<>&@aMMiO ",
"%@ubbs<1>3fnvh>O@<53=O+#@X+X X.. O=3:O @,OX@@O+XX:sMMd;&$$aMMiO ",
"-*ubva>>@6hbva--#155%+@@&#.. o o@@@>>O O<%@#O.XOo@aMMg-OX#iMMao.",
"-3scvs#&=>hbbu&#@%<4-:<>::OO+++&:-*#%;&#<4:++++%:-sMMa%#O=annaO.",
"%,svma@+%>fmblaiaasfffggssaaasasausaagfsgghffsfssdxnni@OX*annioO",
"O#avbu#%#%fbbmbbmMmMMMnmMMmMnnnbvbbnbnbbbmMMmbbnbbbbniO..Oinni#*",
" Oabba==##fMMMbbnnMMmMmmMMMMmbnnnnnbbbvbvbnbbbbbnnnbniOX#@inni@&",
"+Oumbf->>O0uisfagsaagffasaiaaaiuaiaaauuushsffsifdafssy,%##aMMi@%",
"OOuMbu@#O O++-<->>1$==@OOOoOO+OoO+%@OOO+*5,,5,441#&23<,:OOinMi&&",
"OOibbu@&@&@OO%=->=#%#@O+oOoXo@O   +O  X@oO%3<-2<%@&<51:4%@aMMi#=",
"=@ibbi&>==--O&=O:$  OoO@o Oo @@O@#@%X+o.XXO=-$@;&@&<25:21=aMMi&3",
"+%aMns=34=41&*146-OOOo@&@OOOO@@=-1==%@+%@+%%@O$@@O@:3<:=;&anMs:5",
" =hMbxfsgsgffsffhfuiiiaaiuuiuausaaassiusaisaauiiiaidgsgsfsxnna@o",
"%5jnbbnnMMMMmnbnnnmbbmmnnmnnnnnnnbvbbnnmnnMMnnbvMMMmnnMmMnbbni##",
"18fMmbbnmMMmnnmmmmbbbbnbnmnbmbbmMbvbnbbbnnMnnbbbbbMnbbmMMnnMMg=-",
"14tsfaffsahhfgsasaiiiisaauuiauiisfuuaasiafssasaiiuiiiissfssasr-*",
"@%@%-=<>>O&55>@@$%@@%&&OO@O@@$@@&>%@@@@@%$&@&=OOOOOo+=%:5>=:&<<-",
".OOO+OO@@O++@O+O &@@@@O  OXO*&oO@oO@&&XO%OoO&&.    O$:*,51&%#53<"
};
