/* XPM */
static char *result[] = {
/* columns rows colors chars-per-pixel */
"64 64 224 2 ",
"   c #13090C",
".  c #1C1B1B",
"X  c #390F14",
"o  c #27181B",
"O  c #35151A",
"+  c #1F201F",
"@  c #20211F",
"#  c #251B22",
"$  c #2C1C22",
"%  c #341C25",
"&  c #3B1E24",
"*  c #1C2624",
"=  c #242423",
"-  c #2B2426",
";  c #262826",
":  c #2A2927",
">  c #2B2528",
",  c #232D2C",
"<  c #2C2C2B",
"1  c #332424",
"2  c #3B2325",
"3  c #32262A",
"4  c #382629",
"5  c #332C2C",
"6  c #3B2A2B",
"7  c #25312F",
"8  c #2D312E",
"9  c #31312F",
"0  c #352D31",
"q  c #3A2D30",
"w  c #2D3432",
"e  c #293836",
"r  c #333433",
"t  c #3B3434",
"y  c #363936",
"u  c #383937",
"i  c #3A3739",
"p  c #353C3A",
"a  c #3B3D3B",
"s  c #47161C",
"d  c #4E1B1E",
"f  c #55171B",
"g  c #690E15",
"h  c #67171B",
"j  c #6C161D",
"k  c #741419",
"l  c #7D151C",
"z  c #77181B",
"x  c #4C201F",
"c  c #441E22",
"v  c #4C1E22",
"b  c #541D23",
"n  c #5D1C23",
"m  c #631D22",
"M  c #6B1D23",
"N  c #731D22",
"B  c #7B1D25",
"V  c #442324",
"C  c #4D2224",
"Z  c #45262B",
"A  c #492329",
"S  c #442B2C",
"D  c #4C2B2C",
"F  c #532124",
"G  c #5A2729",
"H  c #522A2B",
"J  c #4A312F",
"K  c #51302F",
"L  c #452E31",
"P  c #582E31",
"I  c #443334",
"U  c #4C3233",
"Y  c #483837",
"T  c #433C3C",
"R  c #4A3C3B",
"E  c #533334",
"W  c #5B3232",
"Q  c #583539",
"!  c #543C3D",
"~  c #5B3B3C",
"^  c #692427",
"/  c #642529",
"(  c #642A2D",
")  c #712225",
"_  c #792528",
"`  c #73292A",
"'  c #7B2B2E",
"]  c #632F32",
"[  c #6B2F31",
"{  c #7A2D32",
"}  c #623334",
"|  c #67383B",
" . c #633C3D",
".. c #783739",
"X. c #723A3C",
"o. c #2D413D",
"O. c #35413E",
"+. c #3E413E",
"@. c #41423F",
"#. c #4D403E",
"$. c #5F403F",
"%. c #6B403D",
"&. c #70403F",
"*. c #3E3F40",
"=. c #453F40",
"-. c #583F41",
";. c #773D40",
":. c #3D4342",
">. c #3B4845",
",. c #434542",
"<. c #4B4444",
"1. c #464946",
"2. c #494A46",
"3. c #4A4748",
"4. c #454C4A",
"5. c #4B4D4A",
"6. c #524443",
"7. c #5B4343",
"8. c #584748",
"9. c #524C4C",
"0. c #5B4B4B",
"q. c #45514D",
"w. c #4E514D",
"e. c #51524E",
"r. c #5D514E",
"t. c #594F50",
"y. c #4D5451",
"u. c #4B5956",
"i. c #4D5955",
"p. c #535552",
"a. c #5A5552",
"s. c #555955",
"d. c #595B56",
"f. c #555C59",
"g. c #5A5D5A",
"h. c #634443",
"j. c #644B4A",
"k. c #6C4C4C",
"l. c #794849",
"z. c #6C524E",
"x. c #665956",
"c. c #785755",
"v. c #4E605E",
"b. c #56615C",
"n. c #5D615C",
"m. c #61645E",
"M. c #5E6461",
"N. c #5A6866",
"B. c #5C6964",
"V. c #626561",
"C. c #656A64",
"Z. c #696C66",
"A. c #656F6A",
"S. c #6A6E69",
"D. c #736964",
"F. c #677168",
"G. c #6C726B",
"H. c #71756D",
"J. c #72786F",
"K. c #6B7872",
"L. c #757671",
"P. c #747B72",
"I. c #787F74",
"U. c #87151B",
"Y. c #83191D",
"T. c #8B1A1E",
"R. c #9B161A",
"E. c #941A1E",
"W. c #A5181C",
"Q. c #AC1A1D",
"!. c #B6181C",
"~. c #851E23",
"^. c #8A1D24",
"/. c #971D21",
"(. c #A31D22",
"). c #AC1B21",
"_. c #B21D22",
"`. c #BC1D23",
"'. c #872729",
"]. c #8C2429",
"[. c #922225",
"{. c #9B2325",
"}. c #9B2429",
"|. c #98292D",
" X c #8A2D31",
".X c #992D32",
"XX c #883739",
"oX c #953537",
"OX c #AA2225",
"+X c #A9272A",
"@X c #B32428",
"#X c #B82528",
"$X c #A52E31",
"%X c #B92F33",
"&X c #A73337",
"*X c #B93738",
"=X c #C51A1D",
"-X c #D31B1F",
";X c #C51E21",
":X c #CA1E21",
">X c #D41E22",
",X c #DA1D21",
"<X c #E41F22",
"1X c #C72428",
"2X c #D72628",
"3X c #C83234",
"4X c #EB2225",
"5X c #E52628",
"6X c #F52528",
"7X c #FD2729",
"8X c #FC2A2B",
"9X c #F62E30",
"0X c #A53F42",
"qX c #894647",
"wX c #954646",
"eX c #8A5353",
"rX c #885B58",
"tX c #83605B",
"yX c #7A8277",
"uX c #7B8579",
"iX c #7D847A",
"pX c #83897E",
"aX c #868E81",
"sX c #8C9188",
/* pixels */
"= : l ( C.A.i.1.{.'.y p +.@.@.w.2.+.u u @.#.2.@.d.C.O.; @ @ @ ; @ @ @ = < O.@.@.< < r < < < u a a S E.2X.X: < < +.w.e.n.m.n.2.y ",
"a p T G N eXqX.X X5.+.+.,.e.9.n.m.5.+.+.@.e.d.p.e.@.@.8 : @ @ ; : 8 o.+.@.@.@.@.a y r r y a a a +.G ].a.y.+.y y 2.2.@.5.e.+.#.b.",
"r.R p.p.Q }.@X) M D ,.,.2.2.@.5.5.@.@.@.@.e.e.4.+.+.O.@.s.+.8 : o.O.@.@.w.w.#.+.=.1.1.,.,.>.y i O.h P p.m.Z.b.@.p.@.+.@.@.8 +.i.",
"` 8.n.m.g.n.C.C. .h j ! w.1.5.#.@.@.#.@.@.5.d.#.@.#.@.r m.F.@.@.@.#.+.#.@.w.@.#.e.d.p.2.a K {./.h ^ @.w.G.H.m.2.d.5.+.r r +.7 H ",
"u e.m.m.D.Z.Z.d.m.a...U.#.i.p.2.#.s.e.e.5.e.n.2.@.@.@.+.@.yXm.#.,.,.@.@.@.@.n.n.n.d.f.S T.,XE.V q y 5.m.n.p.d.d.s.s.@.o.+.u x z ",
"y e.m.Z.m.Z.m.a.p.m.b.K h 6.b.e.d.n.b.p.2.e.e.2.@.@.@.9 9 G.G.s.w.+.u y @.p.2.w.d.w.i f 1XOXz o.4.y.G.s.#.p.a.n.p.#.@.@.O.f h 1 ",
"2.m.m.p.d.e.e.2.m.s.@.q.$.W.%.s.9.e.e.5.9.e.e.2.#.#.@.+.9 F.yXC.m.m.%.< 9 +.@.1.@.r '.2X'.) }.1.w.m.n.y 2.i.d.s.p.#.i.s.+.h 6 +.",
"G.m.p.2.2.@.@.n.d.u +.>.U <XY.5.9.e.5.5.e.2.2.,.w.@.@.O.+.@.m.G.uXrXl.+.@ = 9 u 7 h !.1XW 1.oX[ b.p.u 9 w.5.5.e.p.i.@.#.+. Xc.yX",
"J.n.1.2.@.+.m.g.u e.e.q.} Q.O 6 n.g.w.2.2.2.,.2.2.<.@.r y i :.y.m.XXK Z G R.U.g =X=X].5.e.w.2. X@.+.r u ,.@.,.e.d.n.#.b.C.0XD.F.",
"yXyXyXm.s.G.uXZ.s.m.d.F.K !.C w g.m.@.,.w.e.5.2.w.2.@.@.+.a i *.2 (.@Xh.y.! } &. Xg y w.,.@.,.S u @.+.+.9 u 5.n.C.d.s.r.%.tXJ.F.",
"G.m.m.m.d.d.F.I.d.e.p.@.+.z W.~.#.n.3.5.d.d.9.w.e.2.,.5.,.a =.*._ E.P n.m.4.b.A.b.r.g.@.a e.e.1 y +.u y y +.5.2.#.@.@.#.d.yXC.e.",
"G.@.+.@.2.@.,.p.+.9 +.2.q.o.J #X%Xx.g.p.e.d.e.a.5.@.9.5.,.5.C.-.Y.U e +.@.5.s.g.n.m.G.b.@.b.p.5 S u ,.w.,.@.1.y O.#.#.s.w.e.@.d.",
"s.O.@.u p u @.w.@.8 9 p.d.2.o.x 2X~ A.m.g.e.e.s.5.e.e.5.t.L.L.;.) n.n.e.5.,.p.g.w.5.4.p.m.C.n.y #.#.d.e.,.+.+.9 u 8.d.#.@.@.p.H.",
"@.@.@.+.,.w.g.s.i.C.n.@.n.w.1 T.F >.f.K.n.a.e.e.5.9.e.p.S.iXk.M 9.6.m.n.w.2.,.+.@.:.,.1.1.x.H.p.d.6.! #.1.1.,.: 9 d.m.$.@.@.p.C.",
",.2.@.@.1.2.2.5.m.yXpXC.5.m.8.j ).{ k.D.G.s.y.y.p.e.m.G.sXpXM -.F.9.C.m.w.@.r u @.a 5.y.4.2.g.G.G.e.! Y 2.+.< - e.n.j.#.+.@.w.s.",
"1.@.+.u +.1.@.+.5.F.yXm.2.F.yX#.l `.`.^.X. .%.R 6.m.Z.pXV.{ j f.H.7.C.e.w.,.+.p y a 5.g.1.,.1.V.H.yXx.g.n.a.1 +.V.n.%.@.i.#.q.2.",
"1.p +.+.p 9 p r r 5.b.F.n.e.H.C.#.F /.2X{.j f D =.-.a.=.B U.0 t.m.Q r.b.5.a r w ,.5.3.5.3.2.,.e.d.G.Z.j.0.j.0.J.J.H.c.m.Z.d.d.p.",
"d.+.+.+.,.+.r u 2.2.e.n.Z.s.G.J.q.8 Y 8.@.3.,.y.M.-.c.qXn 6 y.y.g.@.<.m.,.r u 1.V.g.=.2.M.1.a 1.,.s.g.Y +.( ..C.C.C.k.H.pXP.m.m.",
"C.d.s.s.q.2.y +.p.p.s.p.n.n.s.yXw.y 1.+.j.Z.p.f.L.a.t.-.4 3.f.y.w.5.@.H.C.d.a.5.a.d.w.p.5.a r r p ,.,.t o. X X@.,.+.R ~ n.g.m.m.",
"m.C.H.H.b.1.1.w.b.C.n.p.d.b.n.5.< w J [.wXA.y.p.M.g.y.9.-.v.f.t.5.w.5.H.pXJ.4.a.n.s.e.p.1.9 9 r , r Q R G OX@X( >.2.@.F 5.a.e.m.",
"d.m.G.G.n.p.b.d.F.J.n.b.e.s.n.O.7 6 `.@X9.! Z % *.% =.M.s.g.g.y.w.s.2.<.S.S.y.5.p.5.s.g.a.+.+.p 7 _ 5X2X$X$X%X .1.9.3.q T p.p.p.",
"p.n.m.F.p.a.m.m.m.n.p.w.@.p.5.r , (.4X+X1X,XM 0 t.9.g.g.g.g.s.s.p.,.<.d.s.1.1.1.,.w.1.,.:.a u S {.1Xh l.m.D.d.5.*.3.3.=.1.2.9.w.",
"e.p.i.n.m.m.m.C.n.p.9.@.@.i.@.7 G 7X8X8X7X).q t.M.M.f.M.M.g.f.p.T u e.C.p.2.1.*.1.4.5.w.q M M ).1X& 1.H.L.Z.n.e.4.1.=.9.*.1.5.5.",
"5.w.2.2.4.5.s.s.w.e.2.y O.@.w < 1X7X9X5X^.> *.5.g.y.=.f.V.g.y.*.2.5.1.5.5.p.2.:.p :.:.& k V M 4X{.8.Z.m.r.a.d.d.p.f.y.s.y.9.y.9.",
",.w.,.+.+.+.+.O.O.O.O.O.@.+.8 x ).) ;. .w a ,.5.5.,.4.p.n.s.3.3.4.d.G.w.:.1.4.y M n k ;X<X2X}.1X X6.V.C.d.d.g.d.n.n.n.a.w.y.1.,.",
"9 @.,.u 9 O.; O {._ x 1 : @ . O n a q.O.a 5.1.,.w.1.1.y.y.,.3.1.d.y.n.n.1.@.E @X/.v k ).;X`.^.#X| e.d.C.V.t.-.R 3.9.,.,.=.3.r i ",
"8 9 u u O.: f !.'.1 x o       o 6.w.a y :.2.1.,.1.5.,.t i =.a ,.g.p.4.4.5 z g j % # o f l f ;.0.g.L.d.y.R z ~.m A y.w.3.3.2.w r ",
"8 y u u 9 h Q.'.8 O.8 : : : 9 @.s.a 9 a 2.5.4.,.2.<.# o *.3.a a 4.a.#.G k v r p *.i $ s v 3.N.A.L.H.g.=.!.l *.w.=.p.s.5.1.a w < ",
"< 8 r r F x 1 r o.5 : : +.O.@.w.p.8 < @.w.w.q.5.1.$ $ 0 5.p.g.5.4 / ] A =.y.w.*.0 > # # 3 =.M.L.Z.A.D.|.,Xm :.s.2.s.V.g.1.a a w ",
"; 5 J 2 @ r O.9 : O.+.: : @.@.q.2.u 9 ,.5.<.T t 3 3 1.T =.,.a.p.=.=.4.4.y.2.:.i 0 > c % =.t.M.M.g.c.1X4X;X-.y.n.g.g.S.L.a.y r r ",
"+.t Y +.u @.+.9 9 +.+.+.9 O.@.#.,.+.9 ,.p.1.1.3.p.4.1.3.1.=.f.G.f.p.p.p.2.1.:.5.*.v U.*.g.f.M.L.c.B { `.( f.n.g.Z.V.n.g.V.w.5.+.",
"#.q.2.@.@.n.@.+.+.: +.+.+.+.@.#.,.@.u 2.d.g.w.p.A.g.1.3.y.e.5.g.n.V.g.p.5.2.w.4.L U.U.*.t.M.N.tXB x.-.^.,.5.3.5.V.V.g.e.V.f.i.6.",
"z.b.s.@.#.p.n.@.#.2 r +.u +.,.w.@.#.<.@.5.p.,.g.I.S.:.=.q.t.w.p.s.s.t.q.,.4.>.X._.h 0 *.<.t.l.2XeXA.}.oXv.5.y.p.f.g.f.3.f.u.;.^.",
"s.b.#.@.@.q.b.@.u V u y +.+.,.2.w.<.R r r a a 5.H.G.s.w.w.p.s.n.M.n.g.y.q.3.[ E.S *.4.*.4 b / / -.=.@XeXA.V.V.t.y.y.p.5.y.{ /.t.",
"e.s.e.e.@.@.@.p.u : 5 9 +.+.+.+.1.1.@.u +.+.= 3.iXiXpXV.3.y.b.n.G.L.f.1.Q .X' i *.*.*.a 3 ,.1.>.*.*.@XqXN.N.f.w.y.f.q.0.}.}.g.M.",
"e.s.n.n.@.@.@.w.Q E - 4 y 9 a a +.@.5.y +.,.a 5 x.aXaXL.s.w.y.t.M.S.t.T ) U >.a ,.,.*.r r 5.w.1.*.0 B $X*.3.w.>.-..X}.).].V.g.w.",
"s.m.C.m.#.5.w.w. X&.#.2 , < a a +.+.+.+.2.4.,.,.x.D.iXI.5.w.p.b.a.oXW r r 4.p.:.a *.y y *.*.3.,.*.*.# /.[ y.3.~.).[.B L *.y.y.f.",
"m.m.yXm.d.d.w.O.^ D +.1 1 y +.+.+.+.1.5.y.y.1.y.K.d.5.e.3.=.=.1.;.' 3.:.,.5.1.a *.a =.1.*.*.3.3.1.*.# k ] N.=.s =.>.4.3.y.5.V.V.",
"Z.Z.yXm.H.m.@.@./.S 1.6 2 y a ,.p.b.F.p.p.g.s.V.J.s.2.T i *.3 # M wXN.y.5.,.,.*.,.,.p.Z.M.1.5.1.=.>.Z l T 0.% =.g.g.y.f.f.t.M.V.",
"Z.Z.F.m.F.b.+.U ,XH y 2 5 r r w.m.Z.n.n.V.C.M.C.p.1.1.1.,.,.5.5.k.0Xg.p.y.p.5.5.*.*.f.V.H.g.5.p.y.*.^.M c -.-.f.M.V.g.A.t.f.V.S.",
"m.F.Z.m.m.w.+.#.@XD a 6 ,.+.@.m.Z.G.n.B.Z.G.n.s.w.4.3.1.,.*.1.y.c..Xg.g.s.d.p.s.,.,.y.C.P.S.2.w.g.-.<XB :.y.d.5.3.M.S.S.g.V.S.S.",
"Z.F.C.C.C.#.O.#.1XE p t 4.1.w.V.G.J.P.P.G.G.g.y.1.,.,.1.4.,.5.>.` ] f.A.S.n.s.p.y.t.5.V.H.V.5.s.f.| OX,XoXy.s.p.9.f.S.S.S.S.S.S.",
"C.Z.G.yXZ.%.&.@X2X#.>.Q XXX.z.V.J.H.I.iXV.s.s.5.2.5.1.,.,.w.p.=.L 5.9.y.p.w.s.p.w.5.,.p.S.S.n.n.5.-.y.$X,X~ s.w.t.p.A.S.S.L.S.S.",
"d.C.J.tX1XwXXX` 7.y.2.4.z.*X2X&XD.H.c.A.M.f.y.p.p.p.1.:.a a ,.T =.4.,.,.+.a 3.g.S.S.C.g.S.L.G.g.Y 5.f.2._.).6.4.3.q.M.V.L.iXM.M.",
"i.n.F.3X3XB.q.O.b.f.5.p.N.D.0X%X.XwX#Xl.N.M.p.f.f.f.9.:.,.a i t 3.4.a :.<.E a e.V.V.n.C.C.L.I.a.t w.2.p.I l B 5.,.,.s.s.S.K.g.g.",
"e.m.F.OX%.i.#.w.p.a.5.5.s.A.K.wX'.% ~.&Xl.t.s.g.f.p.1.,.,.a i a =.a :.R ` Y :.1.d.d.s.M.V.G.I.Z.r a 5.p.y.*.B .X4.5.s.n.g.t.t.p.",
"5.n.eX^ 2.p.s.@.@.5.p.p.3.p.g.j.XX% M [ k.Q 5.g.d.5.=.I 5 > 0 w 8 w y d I p +.2.s.n.g.x.g.n.I.H.2.*.1.5.5.y.| Q.0.s.y.g.s.5.3.3.",
"2.i.$XwXi.w.2.q.,.,.w.n.2.a *.*.=.& /...*.Q 8.e.:.t v = 8 ; r r i e ].` e :.4.5.s.n.M.n.s.s.=.p.g.1.a ,.1.y.7.(.z.y.5.s.3.3.>.*.",
"@.i.'.z.b.#.1.@.2.#.@.e.@.u u u y = Y.} +.I 6 b s s W.2 8 w 1.1.@.+.T.G / y O.+.f.g.M.M.3.3 r y.w.2.5.a 3.y.-.(.x.f.p.s.3.,.y y ",
"5.n.j.r.n.5.4.@.@.+.+.@.u u y 9 9 - f K a w.u u C :X:Xo = a 1.y.q.&.].= ;X>XB x L *.y.=.$ 1.s.5.1.4.p.2.1.y.+X~.N.n.g.d.4.5 y a ",
"5.n.5.e.b.e.#.#.+.@.@.@.r r r 7 S S d S I 5.+.,.t {.W , = = U ! J ..K 7 m ;X8X8X5X/.$ > r s.5.,.y 5.n.5.>.k.<X}.z.N.M.p.a r a a ",
"p.n.b.#.@.$.#.5.2.@.O.+.9 < < ; 6 J C 2 2.2.8 +.I F +.,.- ~._ L #.@.r O.e O Y.[.2X7X:Xt *.,.*.a p 5.n.g.3.-.<X5X%Xx.M.s.,.y :.2.",
"p.d.Z.d.5 R e.@.r.@.+.@.O.8 5 8 : S V C d.2.: b.k.#.q.T T.'.*.*.@.1.y O.W #X+XG = v ;X' :.p y r ,.4.s.f.D _.qXt.&X5Xc.f.a 5 a 4.",
"@.#.b.d.2.#.s.@.e.O.O.+.u r u r 8 : : x $.1.1.z.rXn.r.m [ >.y.w.@.5.@.9 z Q.{.t w * b #Xa a y r 2.s.N.h.R.;.v.u.2..X Xa.p.u a ,.",
"w.2.e.5.$.&.b.2.@.O.+.@.@.+.u : : u y 6 c S V @X..4.~  .A.<.I 2.2.@.#.9 d k f d H 7 * +X' 7 > r 2.E XX^.M g.f.3.p.g.j.h.m.e.r a ",
"2.w.e.2.} J 4.5.@.r i.#.r 9 : = ; 9 O.r 7 Y } R.2 o q 3.G.rX XZ a u T y b U.Y.U.T.H , 1 [.$ w 5 L D c.g.q.M.n.p.f.f.g.a.6.5.y r ",
": @.K W K O.@.@.#.@.+.5 9 9 +.@.O.u u u 9 y +.y - 5 9 O.+...1XY.v d z ^ T.-XOXm {.$Xa 7 V F - < a G.iXA.g.f.g.p.y.s.w.1.2.5.a < ",
"x x +.@.@.@.@.r 5 o.@.#.@.O.@.@.@.@.@.4.+.I 6 u < u @.+.< o k W.N `.6X,X-X1Xm 2 l {.T +.7 1 O o 0 S.yXS.y.3.,.1.s.d.2.a ,.p.a < ",
": < 9 +.O.@.+.: 9 9 +.@.e.q.#.#.5.5.i.8.] F t y 9 u +.+.< o X k 2X7X5X`.' G / M f A T ,.@.y d o 0 A.iXV.*.3.y.w.s.2.*.:.,.p.a < ",
": 8 9 : 9 d.m.@.+.O.9 +.@.e.i.i.i.i.qX#X..#.+.[ G u +.O.r + X =X!.OX|.~ | OX1X`.!.].a +.e.s.I N E y.G.S.y.5.g.n.s.=.r i :.5.u w ",
"8 < O.+.+.i.yXC.w.+.@.+.@.@.$.&.qX*X>X&.i.@.r y a Y %.%.Y J N k o ].#X$X).,X7X5X@X) < 8 y *.p D f M 7.G.d.s.g.f.,.+.@.1.,.,.+.< ",
": +.d.#.#.@.w.d.w.i.#.$.%.W &.oX|.#X%.o.+.@.+.+.@.+.#.%.%. .S = d 5X4X@X) OX<X].> = * = 8 r a 1.> Y.).' ,.w.5.i r +.@.5.,.0.I < ",
"2 O.i.C.m.e.@.+.O.#.OX{.$.F.r.@.q.4.4.+.+.2.5.+.u y O.O.y 8 * + o f V 7 p J j 1 < < = < r r a ,.*.+X7X,Xq O.9 , r 2.5.w.n.m.r F ",
"x h $.C.yXC.@.+.1 =X+XO.+.@.@.@.@.u u +.+.@.@.+.@.+.+.r = = + + . + * ; < 7 y t 5 = < < = < r p p ( 6X8X) * = ; r 2.e.n.G.b.+.= "
};
