/* XPM */
static char *result[] = {
/* columns rows colors chars-per-pixel */
"64 64 60 1 ",
"  c gray8",
". c #181818",
"X c #191919",
"o c #1B1B1B",
"O c gray11",
"+ c #1D1D1D",
"@ c #2F2F2F",
"# c gray19",
"$ c #313131",
"% c #323232",
"& c gray20",
"* c #343434",
"= c #353535",
"- c gray21",
"; c #373737",
": c gray22",
"> c #393939",
", c #3A3A3A",
"< c gray23",
"1 c #3C3C3C",
"2 c #420A00",
"3 c #460A00",
"4 c #4A0B00",
"5 c #4D0C00",
"6 c #510C00",
"7 c #550D00",
"8 c #590D00",
"9 c #5B0E00",
"0 c #5D0E00",
"q c #610F00",
"w c #650F00",
"e c #641202",
"r c #691000",
"t c #6C1000",
"y c #6C1302",
"u c #711100",
"i c #751200",
"p c #7A1200",
"a c #7E1300",
"s c #801300",
"d c #821400",
"f c #841400",
"g c #891400",
"h c #8E1500",
"j c #911600",
"k c #951600",
"l c #981700",
"z c #9E1800",
"x c #A21800",
"c c #A41900",
"v c #AB1A00",
"b c #AD1A00",
"n c #B21B00",
"m c #B41B00",
"M c #B91C00",
"N c #BE1C00",
"B c #C11D00",
"V c #C61E00",
"C c #C81E00",
"Z c #CC1F00",
/* pixels */
"qqwrtrrrwwqwrwwqwrrrwqqqqqqqwwwqqqqwq00800000qqqwwqwqwwrwwwqqwqq",
"rrtuiiiiuuttutttuuuurruttttrrtttrtttrrwqwwrrrwtutrqrruiiiuutttut",
"*;;-=-;:;>>:>,>><<,1111111>::>,>-*==-----,;=*-=-=&-&%&--=-:*=*==",
"->-;,>:>><,>,<>><1111111111<<<1:;--=;---;>>,:>:-;=;&-->:;>>;;---",
"->-*=::<,<,,>>:>,,111111111<<<,:--:>;;--;:>1,,>,:----;::;>>-====",
"%#@$$$&*=&%&&&&$&&*=------===*$$###$$$$$#%&=&&&%#$#%%$$$###$@@#&",
"wrtttttttrrttwwrwqruurwwwwwwrrttttrrqqqqqwrtrqqqwtwrrutrrqwqttqq",
"iipssfpapiipppiiuipdpiiiuipiipppppppiiiiiiipiuiiiiippsdapiuiapuu",
"fgljjfpsgifpitiufpfshagssdgssgzxhfsipipidiuquwtqtwiuifduptishfpp",
"fghlfahqnwmwm0nwVrMrNrNrNrM0ljhkjfdumqmrNwNrBrZrMrNwNrMqb0iphjgf",
"rq07q0tisqvqNwmwVrNtNrBrNrccsrpautrgzgzrBrBtBrCrmrNwNwxq99wuutiu",
"pii035700rwrituwprutprpaljpuifgkspgutpzggpptpqt0t0uqi870ppu038q5",
"hhht6q82q00757076698qwwwisiptuiittqq0ti9800q0980700q8tt6ifft5rt7",
"jjhu7tr6piu738q4rtu050q50qiutrrqriirpu0utii04904uppq48q6gjgt5wt7",
"kkju0tt7fggw7rt7sffr9tu7pw0y.XXXXXX ttt4shgt6rt6fjli6rt7gggu6wu7",
"jhht0tt7fhgw7wr6dggt9ii8gfteoOOO+++.sww7fhgt7tu7gjkp6wt6gggt6tu8",
"ghft7wt7fggr6ww6fggt8up9gjhq5904uii06tu0ghgr7ru6ghji6qr5gggt6ru7",
"gggt6wt6fggt60q4sfft9ui0ghji0tu7sdft9uu0ggfr6qt6fhji6qr5gfgt6tu7",
"ghft7rr5sggt60q4sfgt7ti9ghht0uu7sfgu9tu7affw6qw5fggu5qw4gfft7tu7",
"hhgt6rt5fhhu7qw4sfgt5wt7fgfr8ru7pdft7tt7pddq40q3sfgt6qw6fgdt6wt6",
"gfft7tt7fghu9wr5dfft5qr6asaw7wt6pfdw6rt7affq5003pffr6qr6ffft5wr5",
"hgft7rt7ffgt7rw6ffdt6qq3ippw6qr6pdsw7tt7pfdw6003isdr5qw6fgft4qq5",
"hhgu7rt7fggt7wr6fffr6q02ipsw50q6ipsq6ww7pdsw7003ipaq4qq4sfgt40w6",
"hhgt6qt6fggt7wr6ffdr69q3ifdw4073ipp06rw7pspq8qq3uppq40q3afft40q5",
"hhfu40w5fggu7rt7dfdw4903pfdw4773pii06wt9iapq8qw4tiiq5004psfw59q4",
"jgft40q5fhhu6rr6sdsw5883pdfr3793ppi09rr7upi08qw4uiiq40q4pssw60w6",
"hhgu5005fggt6wr6ssdw3003pasw4774ippq9ww6upp070q4tii04q03psaw6qr7",
"ghhi50q4ffgt6wt6ddsq4905ppsw4674uppq7qq5tip06wr4tii03903pssw6qt6",
"hhgu50q4sfft6rt7sdsw49q5pppq4773uppq7qq6uip08tt5uii03003ipar6qt6",
"hhhi50q4ssdq6qt6asdw5qq5pppq6793upp06qr6uip00tr5upp04q93ippw6qr7",
"hghi6003pdaq50w6psa030q5ippq6004upi06rt6tpp0qrw6upp05083ippq6wt7",
"hhhu7082ussr39q5ipp03805ppp050q5iapq7tt7uii00ww6tppq6792uppq7ru7",
"hhhu7082ussr39q5ipp03805ppp050q5iapq7tt7uii00ww6tppq6792uppq7ru7",
"hghi6003pdaq50w6psa030q5ippq6004upi06rt6tpp0qrw6upp05083ippq6wt7",
"hhhi50q4ssdq6qt6asdw5qq5pppq6793upp06qr6uip00tr5upp04q93ippw6qr7",
"hhgu50q4sfft6rt7sdsw49q5pppq4773uppq7qq6uip08tt5uii03003ipar6qt6",
"ghhi50q4ffgt6wt6ddsq4905ppsw4674uppq7qq5tip06wr4tii03903pssw6qt6",
"hhgu5005fggt6wr6ssdw3003pasw4774ippq9ww6upp070q4tii04q03psaw6qr7",
"jgft40q5fhhu6rr6sdsw5883pdfr3793ppi09rr7upi08qw4uiiq40q4pssw60w6",
"hhfu40w5fggu7rt7dfdw4903pfdw4773pii06wt9iapq8qw4tiiq5004psfw59q4",
"hhgt6qt6fggt7wr6ffdr69q3ifdw4073ipp06rw7pspq8qq3uppq40q3afft40q5",
"hhgu7rt7fggt7wr6fffr6q02ipsw50q6ipsq6ww7pdsw7003ipaq4qq4sfgt40w6",
"hgft7rt7ffgt7rw6ffdt6qq3ippw6qr6pdsw7tt7pfdw6003isdr5qw6fgft4qq5",
"gfft7tt7fghu9wr5dfft5qr6asaw7wt6pfdw6rt7affq5003pffr6qr6ffft5wr5",
"hhgt6rt5fhhu7qw4sfgt5wt7fgfr8ru7pdft7tt7pddq40q3sfgt6qw6fgdt6wt6",
"ghft7rr5sggt60q4sfgt7ti9ghht0uu7sfgu9tu7affw6qw5fggu5qw4gfft7tu7",
"gggt6wt6fggt60q4sfft9ui0ghji0tu7sdft9uu0ggfr6qt6fhji6qr5gfgt6tu7",
"ghft7wt7fggr6ww6fggt8up9gjhq5904uii06tu0ghgr7ru6ghji6qr5gggt6ru7",
"jhht0tt7fhgw7wr6dggt9ii8gfteoOOO+++.sww7fhgt7tu7gjkp6wt6gggt6tu8",
"kkju0tt7fggw7rt7sffr9tu7pw0y.XXXXXX ttt4shgt6rt6fjli6rt7gggu6wu7",
"jjhu7tr6piu738q4rtu050q50qiutrrqriirpu0utii04904uppq48q6gjgt5wt7",
"hhht6q82q00757076698qwwwisiptuiittqq0ti9800q0980700q8tt6ifft5rt7",
"pii035700rwrituwprutprpaljpuifgkspgutpzggpptpqt0t0uqi870ppu038q5",
"rq07q0tisqvqNwmwVrNtNrBrNrccsrpautrgzgzrBrBtBrCrmrNwNwxq99wuutiu",
"fghlfahqnwmwm0nwVrMrNrNrNrM0ljhkjfdumqmrNwNrBrZrMrNwNrMqb0iphjgf",
"fgljjfpsgifpitiufpfshagssdgssgzxhfsipipidiuquwtqtwiuifduptishfpp",
"iipssfpapiipppiiuipdpiiiuipiipppppppiiiiiiipiuiiiiippsdapiuiapuu",
"wrtttttttrrttwwrwqruurwwwwwwrrttttrrqqqqqwrtrqqqwtwrrutrrqwqttqq",
"%#@$$$&*=&%&&&&$&&*=------===*$$###$$$$$#%&=&&&%#$#%%$$$###$@@#&",
"->-*=::<,<,,>>:>,,111111111<<<,:--:>;;--;:>1,,>,:----;::;>>-====",
"->-;,>:>><,>,<>><1111111111<<<1:;--=;---;>>,:>:-;=;&-->:;>>;;---",
"*;;-=-;:;>>:>,>><<,1111111>::>,>-*==-----,;=*-=-=&-&%&--=-:*=*==",
"rrtuiiiiuuttutttuuuurruttttrrtttrtttrrwqwwrrrwtutrqrruiiiuutttut",
"qqwrtrrrwwqwrwwqwrrrwqqqqqqqwwwqqqqwq00800000qqqwwqwqwwrwwwqqwqq"
};
