/* XPM */
static char *d8766b4e5f5d4e7fa19a962d9c7dbfbeXRwDaL7sIWftA5uk[] = {
/* columns rows colors chars-per-pixel */
"64 64 256 2 ",
"   c #040505",
".  c #090606",
"X  c #030509",
"o  c #040B0B",
"O  c #0A0A0C",
"+  c #060806",
"@  c #170A04",
"#  c #1B120A",
"$  c #070D12",
"%  c #1A1815",
"&  c #0B1519",
"*  c #240E01",
"=  c #271607",
"-  c #321C0A",
";  c #251D16",
":  c #1C221A",
">  c #2B2115",
",  c #2D251C",
"<  c #29271B",
"1  c #31271C",
"2  c #33291E",
"3  c #382715",
"4  c #382712",
"5  c #151D24",
"6  c #1A2726",
"7  c #152F35",
"8  c #2D2923",
"9  c #272828",
"0  c #332B23",
"q  c #342B25",
"w  c #2C3129",
"e  c #3B3124",
"r  c #39342B",
"t  c #272C34",
"y  c #2A3439",
"u  c #363939",
"i  c #352E31",
"p  c #281F22",
"a  c #4C2B17",
"s  c #463829",
"d  c #443C34",
"f  c #523727",
"g  c #663B24",
"h  c #7A3C27",
"j  c #60321A",
"k  c #354238",
"l  c #54422D",
"z  c #4A4238",
"x  c #574938",
"c  c #534734",
"v  c #694934",
"b  c #764B37",
"n  c #6F4D35",
"m  c #2C3742",
"M  c #373C44",
"N  c #263B50",
"B  c #3B4449",
"V  c #394856",
"C  c #3A5457",
"Z  c #2C474F",
"A  c #3B4D65",
"S  c #3E5665",
"D  c #3B6467",
"F  c #464749",
"G  c #5C5448",
"H  c #454B55",
"J  c #45545A",
"K  c #575756",
"L  c #574E47",
"P  c #685A48",
"I  c #785A45",
"U  c #625C57",
"Y  c #6C624D",
"T  c #75634D",
"R  c #6D6352",
"E  c #6A665A",
"W  c #736552",
"Q  c #796A56",
"!  c #7C715B",
"~  c #465768",
"^  c #565E66",
"/  c #475B74",
"(  c #414F64",
")  c #5A6369",
"_  c #4C647A",
"`  c #566977",
"'  c #506869",
"]  c #686769",
"[  c #7A7366",
"{  c #696D74",
"}  c #726D75",
"|  c #6B747C",
" . c #68757B",
".. c #757578",
"X. c #717164",
"o. c #5F5E65",
"O. c #884F3B",
"+. c #875944",
"@. c #985747",
"#. c #8A644A",
"$. c #97654A",
"%. c #846C57",
"&. c #986B54",
"*. c #83725C",
"=. c #8A765C",
"-. c #97745A",
";. c #A8765A",
":. c #B57C5C",
">. c #A76A50",
",. c #8B7B64",
"<. c #867967",
"1. c #947C64",
"2. c #857D76",
"3. c #936F61",
"4. c #A67B64",
"5. c #B67E64",
"6. c #A45C4D",
"7. c #6B8474",
"8. c #94836B",
"9. c #9B846C",
"0. c #998468",
"q. c #8C8374",
"w. c #948572",
"e. c #9C8A73",
"r. c #9C8C7B",
"t. c #978875",
"y. c #9D927C",
"u. c #8E8269",
"i. c #A6876B",
"p. c #B78668",
"a. c #A38D74",
"s. c #A58D78",
"d. c #A49276",
"f. c #A4937C",
"g. c #AA957C",
"h. c #AB9A7E",
"j. c #A99578",
"k. c #B3997C",
"l. c #B48A72",
"z. c #B5A17D",
"x. c #C88B68",
"c. c #D2916A",
"v. c #CE9371",
"b. c #546C84",
"n. c #56728C",
"m. c #6C7A84",
"M. c #6A7885",
"N. c #737C84",
"B. c #767B85",
"V. c #687C97",
"C. c #847D88",
"Z. c #598995",
"A. c #6A828B",
"S. c #77848B",
"D. c #778895",
"F. c #7A949B",
"G. c #6F8D94",
"H. c #5A96B0",
"J. c #7999A8",
"K. c #7092AC",
"L. c #58A2BC",
"P. c #78A5B8",
"I. c #6CACB5",
"U. c #77ACCC",
"Y. c #6B9CC4",
"T. c #78C0D6",
"R. c #858989",
"E. c #968D85",
"W. c #9C9383",
"Q. c #98978C",
"!. c #878C94",
"~. c #889499",
"^. c #969A98",
"/. c #899090",
"(. c #A49582",
"). c #AC9B83",
"_. c #A89A88",
"`. c #B29D83",
"'. c #B49E88",
"]. c #A59A8E",
"[. c #99A297",
"{. c #ADA289",
"}. c #B2A185",
"|. c #B4A38B",
" X c #BBA78B",
".X c #A9A395",
"XX c #B8A995",
"oX c #889AA5",
"OX c #879DB7",
"+X c #979BA6",
"@X c #96A6A7",
"#X c #87A8B7",
"$X c #95A8B5",
"%X c #9BB6B9",
"&X c #89ABAD",
"*X c #A3A8A9",
"=X c #A5ACB7",
"-X c #A8B7B9",
";X c #B4B1AC",
":X c #A69FA6",
">X c #CA9C83",
",X c #C5B39A",
"<X c #CAB096",
"1X c #CABAA8",
"2X c #AFC4BD",
"3X c #D7C7AB",
"4X c #CFC6B1",
"5X c #F5DAB9",
"6X c #EAD0B4",
"7X c #F4E2BC",
"8X c #E0C79E",
"9X c #98ABC3",
"0X c #99B8C6",
"qX c #8BB4CF",
"wX c #A6B6C8",
"eX c #B8BBC9",
"rX c #A7BBD6",
"tX c #8ABAE4",
"yX c #94CDD0",
"uX c #ABC5CB",
"iX c #B6C5C8",
"pX c #A9C8D5",
"aX c #B8C9D7",
"sX c #B5D4D2",
"dX c #9CC9E4",
"fX c #B9D7E5",
"gX c #AAD2E6",
"hX c #8CF5FC",
"jX c #8DFAFD",
"kX c #88F7F6",
"lX c #93FCFE",
"zX c #97F9FC",
"xX c #95E8F2",
"cX c #B1EFF5",
"vX c #94E3DE",
"bX c #CED0D0",
"nX c #EADBC8",
"mX c #F3E5CE",
"MX c #C7DAE6",
"NX c #D4D9E5",
"BX c #CCD4EC",
"VX c #DAE5E8",
"CX c #C8E8F5",
"ZX c #D7EBF3",
"AX c #C5FAFE",
"SX c #D8F5F9",
"DX c #CCE4EA",
"FX c #E5E7E7",
"GX c #F3ECF6",
"HX c #E9F9FA",
"JX c #F4FEFE",
"KX c #FBFFFD",
"LX c #F6F8F8",
"PX c #EEEAF2",
"IX c #E5D9E5",
"UX c #C1BDCC",
/* pixels */
"V =XMXZXCXSXfXOXJ.9X9XOXOXP.P.U.T.tX_ 9 8 8 H ^ ^ ) ) { |  .M.M.M.M.M.M.M.M.B.N.N.| M.m.M.N.| B A.oXD.D.oXD.S.A.$XD.$XoXm.oXMXBX",
"V oX$X$XOXJ.OXJ.G.J.#XK.K.K.K.U.U.tXb.t 8 q F ^ ^ ) ) ] | |  . . .M.M.M.M.M.B.N.m.m.M.M.M.m.) V m.D.A.m.M.M.M.M.m.A.A.A.M.D.MXMX",
"V J.K.G.K.n.V.V.G.K.K.V.V.V.K.Y.Y.qX` 6 8 8 H ) ^ ) ^ ] { |  . . . .M.M.M.M.m.m. .m.m.m.m.{ ^ B N.m. .S. .N.N.m.N. .m.m.M.S.MXNX",
"N OX9XOX9XOX$X9X9X9XwX9X9X9X9XrXrXgXB.9 i 8 F ) ] ] { } | |  . .m.m.M.M.M.M.M.| |  . .S.N.| ) F | R.N.S.S.N.N.!.S.| ~.~.m.D.NXNX",
"m +XaX=XeXeXeXeXeXeXeXeXeXUXeXUXeXbXR., q 8 F ] ] ] { { | | {  .| | | M.m.m.m.m. .S.N.| | ..] F R.^...~.~.!.B.!.+XS.N.N.| !.NXNX",
"t +XPXPXGXGXGXLXGXGXGXGXGXPXIXIXIXPX:X0 0 8 F ] { ] } } ..N.| ......| | | N.| m.N.| | | { B.{ F ..^.R.B.!.^.R.*X=X=X+X=XbXeXNXFX",
"t B.$X=XeXbXBXNXPXGXLXLXKXPXGXPXPXGX;Xq q 8 F ) { } ..} } } ] ] } ..} ..} ....N.N.N.N.m...*X^.F *XFX/.bXFXbX*XNXNXFXVXNXNXbXbXFX",
"y M.F.D.D.V.D.!.+X+X*X*X-X=XBXBXBXNX:X8 i 9 B K ] o.o.F u i q d U E ] ] } ....N.N.N.N.B.B.C.} F /.*XR.R.;XeX^.eXiXiX*X/.R.!.VXVX",
"t M.rXpXfXMXfXDXBXNXNXNXNXBXZXCXBXaX~.y w < F K K L 9 % % % ; 0 > r r F ] } { ) ` ) ] o.o.} } F B.S.m.N.=XeX~.iXiXiX$X~.~.D.ZXZX",
"t ` J.P.#XJ.#X#XwXrXwXwXwXrXgXgXdXgX$Xy w 8 k U L ; ; , % # = 2 = # = 1 d ] { S.D.!.!.~.!.+X!.^ | | ^ ) S.~.B.oXoXoXoXoX~.oXZXZX",
"t ^ G.Z.Z.Z.K.J.9XwX%XwX$X0XqXU.dXgX0Xu w < z Q.F ; ; # @ = = 3 s f f a = F *XHXJXJXJXJXJXJXMX' ^.FXVXPXPXPXLXHXJXJXJXJXJXJXJXJX",
"9 ) fXcXdXcXcXcXfXfXaXaXrXrXdXU.U.tX0XB w < z ] 8 ; * = f v n b 4.l.i.-.f * K iXHXSXDXSXDXHXsX~ @XJXLXJXKXKXLXJXJXJXJXJXJXJXLXJX",
"9 J CXAXgXAXAXAXCXMXfXfXaXwXdXtXtXtX9Xm w 8 u r # @ 4 I ;.p.v.v.v.v.v.x.4.f ; { -XuXuXuX0XuX9XS $XJXVXVXLXJXJXJXJXJXJXJXJXJXKXKX",
"9 B cXAXgXcXAXAXcXfXaXaXaXwXrXqXU.tX9XB i 8 i % # - b ;.p.x.x.x.c.c.c.x.v.-.# K =XMXMXZXMXSX#X/ F.ZXHXFXVXHXHXJXJXJXHXJXJXJXJXJX",
"9 B gXcXdXcXcXAXfXfXpXpXeXwXrXqXU.dX9XB 9 i w % @ f -.:.:.x.x.c.c.c.c.v.v.4.4 U HXJXJXJXJXJX$XS D.MXZXMXuXuXMXZXZXJXHXHXJXHXJXJX",
"9 B J.dXdXcXcXyXpXfXsXsXiXwX0XqXdXqXoXB 8 w 9 # # f &.:.x.x.x.c.c.c.v.v.>Xk.3 r ^.iXFXFXbXNXoX~ n.pXMXaXwXiXMXVXHXHXHXJXHXHXJXJX",
"8 y G.P.yXcXyXZ.&XiXiXsXiX=X$X@X$X%X/.F r r 9 @ @ v ;.;.:.x.v.x.v.x.;.+.+.i.v # [ .X1X4X;XbX@XC A.0XfXsX%X-X@X*XiX-X-X*X^.*X-X-X",
"8 u A.J.P.gXyXG.&XiXiXiXeX=X*X*X^.@X.XW.W.t.> @ = %.v a a g +.5.p.$.j g v I Q = g.3X4X6XnXnX@X~ A.uXfX%X$ $ $ o o   o       o   ",
"q w m.pXfXCXgXyX2X%X2XuX=X^.;X1X1X,X,XXX,X(.= @ a I n +.v g b ;.l.+.v j b &.i.3 s.mXnXnX5X4XE.H G.fXpXJ.X $ o o +   + O o o + + ",
", i ` #X#XaXpXyX%XJ.&X0X$XR.(. X<X<X1X<X,X9.f * v 3.g a a g g ;.>X$.g j b b i.I 1.5X5X6X1X,XQ.J G.CXfXF.X $ o O +   + + + o + O ",
"9 9 ' #X0XpX0X0X0X#X#X#X$XS.8.j.z. X<X<X<X-.+.j b 3.+.O.b #.$.:.v.x.5.;.5.p.>X&.l.6X6X3X,X.XR.C F.fXfXF.X $ +     +     +     + ",
"w t ' &X0X0XqXP.qXP.P.P.J.S.,.i.i.j.}.<X1Xi.$.g O.4.p.p.p.5.>.;.v.x.x.x.x.v.v.+.4.1X1X,XXX.XR.J G.MXfXA.X $   O   O +   + O + . ",
"9 6 S J.#X#XP.#X#XK.P.P.J.S.<.=.0.d.f.). Xk.#.g O.;.5.5.x.:.@.:.v.x.:.x.v.x.v.O.1.<X,X|..X.X/.C J.CXZXF.  O       + + +     + + ",
"9 6 S P.qXP.K.P.P.K.K.K.J.A.X.,.,.8.r.f.h.`.&.b b ;.;.p.x.>.O.O.>.>.>.>.x.x.p.b j.,X|..X].]./.C J.SXSXD.  O O       + O     + + ",
"9 6 S P.qXU.P.P.P.P.U.P.Z.A.[ *.*.,.u.w.a.j.i.#.j &.&.:.:.>.O.h O.O.;.;.:.:.-.v }. X{.{._.Q./.C F.DXZXA.  O +   + + + + + + + + ",
"p 9 Z K.H.H.H.H.H.Y.Y.H.Z.A.X.*.*.,.,.,.1.0.0.=.3 P #.>.>.6.@.+.@.$.$.b &.p.n n  X|._._._.]./.J F.CXZX .o   O +     +         + ",
", 9 Z K.L.L.L.L.L.T.U.U.I.F.X.*.Q *.*.*.=.*.<.2.z s I &.$.h b O.@.@.O.O.&.&.f Q ).(.y.W.W.Q.^.J &XSXSX .X + + +               + ",
"; 6 Z qXxXxXxXxXxXzXzXxXxXyXE Q ! Q Q Q ! ! ! [ G = f I &.@.O.@.>.6.>.l.;.n a e.f.y.W.W.W.Q.@X' %XHXHX .  & +                   ",
"< 6 7 yXzXhXhXhXhXlXhXzXzXyXE Q Q W Q Q W E E E E s - n #.$.&.O.h @.4.#.#.a P r.t.t.W.W.W.Q.$X~ $XSXZX'     + +                 ",
": 6 7 I.zXkXhXkXkXkXjXhXhXvX] R R R W W R E E U P *.4 a I b &.4.>.p.1.v l - <.q.w.w.t.r.W.Q.@XC &XsXG.t   O O                   ",
"% 6 7 I.zXkXkXkXkXjXjXlXzXvX{ Y E R Y Y Y P P W I =.I * - a n -.&.4.n - - Y q.<.q.w.w.r.y.Q.@XC 0XZXA.y             . O +     + ",
"% 6 7 I.zXkXjXjXkXlXjXlXlXvX .Y R R Y P P P W s.=.#.=.v * * a f g v 3 * Q <.[ <.<.8.8.e.y.Q.@XC &XMXA.y X + O + + O O O O + + + ",
"% 6 6 Z.zXkXjXjXlXjXlXlXhXxX7.Y R Y Y Y W u.f.e.8.%.%.=.I - * * * * = I g.9.<.<.,.8.9.a.y.[.[.C -XDXM.7 o & O O O O O O O O + + ",
"% : & Z.zXhXlXhXlXlXlXjXlXcX7.Y R W P Y u.y.e.e.,.t.*.T =.%.v f a x -.>Xi.0.,Xy.t.9.0.a.(.Q.-XC %XHXJ.7 o # # # % % % % > ; > > ",
"% : 5 ` zXhXzXzXzXzXhXjXlXcX7.G R Y ,.y.f.t.w.e.e.8.9.%.Q =.,.1.3.i.l.l.i.b `.XX,X|.a.f.W.^.-X~ $XSXuX~.R.y.(.).)._.).).).{.|.{.",
"% % & D zXkXhXzXzXhXhXkXkXcXS.P W ,.e.y.y.e.8.e.e.e.t.t.Q f %.9.4.l.p.p.p.v j.,XXX,X).(..X.X%XC -XJXMX@XQ.{.'.|.|.).h.}.}.|. X X",
"% : 6 D zXzXlXlXlXkXzXzXzXcXS.X._.{.g.8.u.8.e.d.e.w.8.8.T P T T -.l.l.;.#.-.<X|.,X,X,X Xy.Q.-XJ @XHXSXbX2X2X4XbXbXbXbXbXXX(.r.(.",
"% % % C vXxXxXvXvXvXvXyXyXsX*X.X).|.(.d.d.8.*.*.e.e.8.e.*.s.f.e.-.-.#.&.i.k.).,XXX'.d.g.[ r u /.FXJXJXJXJXJXKXKXKXKXKXLXQ.2.<.<.",
"% < 6 t C Z Z Z Z y k X.[.Q.).h.`.f.h.h.d.f.d.=.T Q Q Q T w.*.,.d.1.a.d.g.`.|.|.).g.|.,X|.XX! z FXKXJXJXLXKXKXKXLXKXLXbXE x T T ",
"% % % 9 % 5 9 : % z {.XX|.h.k.j.h.).h.g.).).).}.}.e.e.8.*.e.t.W ,.e.g.f.g.8.Q e.|. X X Xg.).1X].1XKXKXKXKXKXFXFXFXFXFXbX.X[ 8.0.",
"w d L K K } C.C...Q.XX'.`.`.g.g.`.`.`.`.`.).h.|.|.(.(.(.r.r.'._.(.(._.g.(._. XXX XXX X|.h.}.`.).1XnXPXnXbXbXbX4X;X1XmXbX1X{.h.z.",
"] } ..2.q.R.2...E.XX Xg.).`.g.`.`.`.d.h.}.}.}. X|.)._.'.t.w.|.(.r.).).r.r._.(.|.|. X X).h.j. Xf.(.1X(.s L P Q *.P x ].mXnX3X X8X",
"i i q i 9 9 ; 8 r.|.`.|.f.{.}.}.`. Xg.`. X}.}.).XX}._.(.f.t.r.|.'._.XX{.w.f.).'.XX|.XX|.j.).XX(.). X1XT 4 3 - 4 4 3 s 6XmXmX7X6X",
"M y t 9 6 t 9 F _.g.h.}.f.h.h.j.g.`.d.g.`.}.|.|.).|._._._.,.<.x l x P t.8.{.).|._.,X X(.f.}.}.d.9.|. X X,.I I n I -.,XmX7X5X5X5X",
"b./ ~ ~ S ~ J ..(.9.a.0.h.h.}.k.`.`.h.g.`.|.|.|.(.}.f.w.s = *.e 4 4 - = P {.XX{.XX|. Xg.`.|.`.).a.|.j.k.mXmX5XmX5XmXmXmXmX7X5X5X",
"b.b.b.n.b.b.' R._.g.i.0.u.h.`.`.`.).).g.).`.{.|. X,.v 4 3 x f.f.q.<.q.x W P Y f.,XXX|.).).`.).g.a.}.d.u.3X6X3X3X3X,X4X4X4X4X3X3X",
"A A / / ~ ( ^ R.f.`.s.k.%.e.).`.).).).g.|. X Xg.T a 3 W _.r._.(.(.XXt.W f.,.4 4 *.,X|.).|.g.).9.e.|.9.8..X^.[.[.[.*X-X=X=X*Xz z ",
"A A ~ ( ( J ] Q.t.k.g.s.9.*.).'.).).g.g.|.|.8.l s *.w.f.'.<.Q r.W.XX! - ,.,X).P - x |.`.|.g.h.9.a.).,.t.Q.S.D.D.F.F.$XrXwXwXK & ",
"A A A V ( ~ } W.t.0. Xa.g.,.1.'.`.g.e.(.f.x > P t.P s *.XXQ d <.Q t.z > w.XX(.(.t.3 P _.|.`.g.a.h.g.Q t.Q.] ` ` b._ b.V.F.oXS.) ",
"A A A ( ~ ~ ..r.e.0.g.}.d.0.W (.).d.d.(.P 2 ! r.e = P XXXXP e W > s e 1 <.XX! 3 _.XXs l e.(.g.a.h.0.! (.].} ' _ / _ / / b._ V m ",
"( ~ ( ( ( H 2.e.e.0.1.).d.e.P *.).e.(.W s <.].d 1 2 t.XXXXs d .Xe , 1 > <.XX<.> 3 r..Xc P |.g.a.`.*.,.(._...' _ _ / / / A 5 M H ",
"V V V V V M 2.s.a.a.=.0.).g.Q P g.d.8.l W r.e e 2 2 W .X_.s s 2.s 0 e 2 ! y.(.l 2 e _.<.x (.e.e.(.T 8.g.f.Q. .n.b.b.` ` V $ y B ",
"m m m m m y 2.(.e.a.0.=.h.g.*.W d.g.T s W.x e 0 0 , s XX].s ; ; 2 0 0 > ! y.W.z > d L t.s ,.8.e.e.P a.g.e.Q. .b.` ` `  .J 6 & o ",
"m m y y m t [ f.0.9.a.=.,.g.*.T 8.e.P Y R 0 , , 0 2 0 <.].e 1 0 0 q 2 , [ q.P e 1 2 2 [ e s 8.f.,.T s.g.e.W.` _ _ A J y 6 & 6 u ",
"y y t t y t X.f.0.9.j.0.%.e.1.P e.e.P <.e 1 , 1 0 , ; z G 2 0 q 0 0 , > z G e 2 e 0 > G W = T (.*.,.d.s.9.].M.b.b.` J & M B t t ",
"m M y t y i ! (.9.0.d.j.*.*.e.P 8.e.P W ; , 2 , , , 2 > 1 0 , 0 8 < q 0 # G x > 2 , 0 d ! 4 W f.Q e.j.i.9._.m._ ~ / m $ $ M y 6 ",
"y t t M M u E |.e.1.g.g.e.T 1.*.1.,.W P > , , 0 , , , 8 q q q 8 8 8 q 1 ; E [ 2 , , 0 r q.e P f.,.d.j.i.0..X{ S A V M X $ y y t ",
"y t u B V F P _.e.0.9.s.a.8.*.w.e.Y W c > 1 0 < , < , , , 8 8 8 8 q , e ; E E.e 0 ; , d 2.s x r.8.a.a.0.i.XX{ ~ ~ J M % 5 y t y ",
"t t H B H H L f.g.1.9.d.s.s.*.*.,.x <.e , 0 0 8 0 8 , < , , 1 8 q r 0 , # X.W.2 ; , , 1 ! G c w.e.d.k.0.i.XX| ^ ~ ~ H y t t 9 9 ",
"t M H H H H P r.).9.,.a.s.a.0.,.Q l <.2 , 1 < 8 0 0 8 , , , , 8 r 0 > 2 > ! Q.e , ; , , P x s ,.e.s.k.0.0.|.) H H H B M M u t 9 ",
"M B B H J H L r.f.g.%.0.j.s.0.0.*.s P s , 1 8 8 , 8 , , , , , , r 0 , 0 = G .X2 , > > ; P c 3 1.a.j.g.0.0.XXK M M M u M u y 9 9 ",
"M B H H V M z r.e.`.1.=.s.j.9.1.<.x c d > 0 8 8 8 0 1 , , , , < e 2 , e ; s E.0 , ; , , R c l 1.9.j.s.1.1._.F u M u u u u y 9 9 ",
"M H H B m u z f.s.g.g.%.-.a.j.0.*.P z d > 1 < < 0 0 2 1 1 2 , > d L e 1 > e <.0 2 , ; e [ 3 s 0.9.g.g.0.0.r.z B M u M M B u r w ",
"H B u M m t z f.a.d.`.9.=.0.9.0.,.R c G 1 > 8 < , , , , 2 0 0 , z E ; > > 1 r.s , , > d <.4 c e.a.j.s.1.0.8.u F F u F u u u w w "
};
