/* XPM */
static char *bbf3a7f7ac4d4625eb90531ac81879c2wjPoPWU2PVZWorCd[] = {
/* columns rows colors chars-per-pixel */
"64 64 244 2 ",
"   c #040300",
".  c #0B0B06",
"X  c #0D0D0B",
"o  c #070A08",
"O  c #110E0B",
"+  c #160A02",
"@  c #0D100B",
"#  c #13120D",
"$  c #1A140D",
"%  c #17180D",
"&  c #0D0D11",
"*  c #090F1B",
"=  c #110F12",
"-  c #0D1113",
";  c #0E1319",
":  c #151511",
">  c #191612",
",  c #1B1A15",
"<  c #131419",
"1  c #15191B",
"2  c #1D1C19",
"3  c #191717",
"4  c #25180A",
"5  c #211C15",
"6  c #211E1A",
"7  c #2E1F17",
"8  c #331C11",
"9  c #1B2119",
"0  c #24221C",
"q  c #2A251D",
"w  c #292619",
"e  c #352719",
"r  c #382C18",
"t  c #181D23",
"y  c #201F24",
"u  c #19272D",
"i  c #242422",
"p  c #292622",
"a  c #2C2A23",
"s  c #2C2C2A",
"d  c #282726",
"f  c #322D24",
"g  c #332E2A",
"h  c #3B2D24",
"j  c #2C312B",
"k  c #343125",
"l  c #35322C",
"z  c #3B342D",
"x  c #3D3529",
"c  c #3B3531",
"v  c #3E3A32",
"b  c #393B38",
"n  c #2B3437",
"m  c #472917",
"M  c #52321B",
"N  c #463728",
"B  c #543A29",
"V  c #423C33",
"C  c #473D38",
"Z  c #442E22",
"A  c #613D27",
"S  c #3C443D",
"D  c #44433C",
"F  c #4B443D",
"G  c #4D4535",
"H  c #58493C",
"J  c #4F412A",
"K  c #67442B",
"L  c #684736",
"P  c #7A543A",
"I  c #704E38",
"U  c #3A3E4C",
"Y  c #3E4442",
"T  c #4C4A43",
"R  c #494744",
"E  c #544C44",
"W  c #584D44",
"Q  c #5B5245",
"!  c #5C554B",
"~  c #55534B",
"^  c #5C5953",
"/  c #555654",
"(  c #495254",
")  c #645A4D",
"_  c #675746",
"`  c #7A5944",
"'  c #645C53",
"]  c #6A5E52",
"[  c #5F615E",
"{  c #6B6156",
"}  c #62625C",
"|  c #6B635A",
" . c #68665A",
".. c #736455",
"X. c #756A5C",
"o. c #7B6C5D",
"O. c #766658",
"+. c #796550",
"@. c #555C66",
"#. c #5D6C71",
"$. c #696967",
"%. c #7B6E63",
"&. c #746C64",
"*. c #7D7165",
"=. c #79736A",
"-. c #777774",
";. c #676F78",
":. c #86563B",
">. c #804E33",
",. c #845C46",
"<. c #935D44",
"1. c #85634B",
"2. c #8B654C",
"3. c #8B664A",
"4. c #98664A",
"5. c #8C6A53",
"6. c #886C58",
"7. c #986C54",
"8. c #98735A",
"9. c #81725F",
"0. c #A2694C",
"q. c #A16D54",
"w. c #A87859",
"e. c #B77C59",
"r. c #AA724F",
"t. c #847464",
"y. c #897766",
"u. c #84766A",
"i. c #857A6B",
"p. c #8B7C6C",
"a. c #877866",
"s. c #977A68",
"d. c #847A71",
"f. c #8B7E73",
"g. c #847C79",
"h. c #886E60",
"j. c #A77B64",
"k. c #B37F63",
"l. c #7A817C",
"z. c #B8835D",
"x. c #8D8174",
"c. c #8D857A",
"v. c #878579",
"b. c #938474",
"n. c #93867A",
"m. c #94897B",
"M. c #9A8976",
"N. c #9C8A75",
"B. c #A9846B",
"V. c #B58364",
"C. c #BC8562",
"Z. c #B98869",
"A. c #A78973",
"S. c #B88974",
"D. c #A8917D",
"F. c #B7917A",
"G. c #B8906D",
"H. c #C4885C",
"J. c #C48A64",
"K. c #C68A69",
"L. c #C48E73",
"P. c #C79578",
"I. c #CC946E",
"U. c #56768B",
"Y. c #566F8D",
"T. c #657884",
"R. c #757A87",
"E. c #697893",
"W. c #69758C",
"Q. c #887F80",
"!. c #7B8384",
"~. c #7B8699",
"^. c #6D8A95",
"/. c #7899A5",
"(. c #718CA6",
"). c #79A0AF",
"_. c #888786",
"`. c #948B85",
"'. c #999789",
"]. c #9B9993",
"[. c #84999B",
"{. c #A39C8B",
"}. c #AC9C8A",
"|. c #A79785",
" X c #A69D94",
".X c #B69B87",
"XX c #B5A48E",
"oX c #AAA49B",
"OX c #A9A597",
"+X c #B3A593",
"@X c #B5AB97",
"#X c #BDB39B",
"$X c #AFA38D",
"%X c #8E9AAB",
"&X c #93A8AD",
"*X c #A9AAA4",
"=X c #B5ADA6",
"-X c #B7B4A8",
";X c #B8B8B4",
":X c #ABB3B6",
">X c #99A49E",
",X c #C89C88",
"<X c #C3B79E",
"1X c #CEB09B",
"2X c #C4BCAC",
"3X c #C6BAA7",
"4X c #C2BDB5",
"5X c #D1B6A3",
"6X c #BAC4BC",
"7X c #CBC3B4",
"8X c #C8C5B9",
"9X c #D6C9B6",
"0X c #CFC7AF",
"qX c #E6D3BD",
"wX c #9BB8CF",
"eX c #ADBCC3",
"rX c #C0BFC5",
"tX c #B5C2C3",
"yX c #B3CBDA",
"uX c #C6C8C7",
"iX c #D4CAC7",
"pX c #DBD4C6",
"aX c #C4CED4",
"sX c #C8D4DA",
"dX c #D7D6D5",
"fX c #CECFD0",
"gX c #E6DBC6",
"hX c #E3DCD7",
"jX c #DBE1DD",
"kX c #E8E4DA",
"lX c #F5EBD8",
"zX c #FBF3DB",
"xX c #EDE4CD",
"cX c #D2DBE4",
"vX c #D8E5EF",
"bX c #E9E9E5",
"nX c #F3EEE7",
"mX c #F4F3EC",
"MX c #FDFCEC",
"NX c #F9F5E5",
"BX c #FEFCF4",
"VX c #FEFEFA",
"CX c #F7F7F4",
"ZX c #E9F4F8",
/* pixels */
"wXyXsX-./ [ ;.vXcXcXvXsXcXvXvXvXsXuXuXuXiX*XS 9 9 w $ 4 e 7 7 e 4 w w 4 q f l ].6X>X!.#.;.T.T././.%X(.(.^.U.Y.E.[.%X:X;X_.-.~ C ",
"(./.eX-.[ [ $.aXsXcXZXZXcXsXaXcXbXjXjXdXdX&.f w w 4 r B Z Z N Z r e 4 4 7 f w T l.$.-.$.R.R.[.&XeXwX(.Y.U.Y.Y.(.~.&XeXuX_.-./ b ",
"(.).eX-./ } @.[.&X&XtXtXsXsXsXcXCXbXbXBXpXC e e e J ` ,.` ` ,.,.1.` L N 8 4 w D / -.-.-.;X:XrXaXaXyX%X^.^.U.E.(.~.&XuXuX_.$.~ b ",
"(./.:Xl./ $.( [.&X/./.&XtXaXaXsXVXnXiXnX-XH m 8 L j.V.w.w.w.e.w.w.w.w.5.K 4 w D l.;X$.g.iXiXfXdXfXaX~.W.E.E.E.~.E.%XeX;XQ.$.R S ",
"U.^.:X!.~ [ ( ~./.^.#.[.:XtX:X:X_.uX8XiXn.B m I j.Z.C.C.J.J.J.e.z.e.z.Z.B.L r h `.*X^ Q.=X=X8X;X=X:X;.#.#.T.E.E.W.~.uXtXR.$.Y S ",
"U.^.&Xl./ $.( T.~.;.#.!.*XuXdX;X].;XiX8X`.Z K B.Z.e.z.H.J.I.I.H.H.e.e.e.S.,.m h d._.=._. X X*XOX'.`.[ @.@.;.~.~.R.R.uXtX-.[ T S ",
"u t n s 0 i t n u u u n b ;XVXVXVXCXVXBX8XN ` S.S.L.K.C.J.J.H.H.H.H.z.z.V.5.B H lXmXmXbXBXMXmXkXv.! R R ( @.( U U U $.$.Y b j j ",
"* * o X X X - - t o < < o ].mXCXVXVXVXBXdXJ +..XP.,XP.P.I.J.I.K.J.Z.Z.G.B.B.B _ MXBXBXBXBXNXxX8XF   # X & t < < ; < X o X : X @ ",
"; & & O # @ - ; 1 < 3 3 O `.dXkXVXBXBXBXkXG N.F.s.,.I ,.w.L.Z.7.>.M K P 6.A.` _ MXMXNXNXlXqX<X@Xz . , , 2 i 2 2 1 2 , : # X # # ",
"& & X X X X & - 1 & : 3 . g.8XuXhXmXMXBXzX_ N.6.L A M K ,.Z.k.:.I L I I I s.+.6.zXzXlXgX9X3XXX}.g X , , , 9 : , : : : # O X O O ",
"& X X X X X X - 1 & - 3 o -.4X;X8XhXlXNXNXo.N.2.1.` P 2.7.S.k.4.,.` L ` 1.s.` A.zXgXqX0X<XXX}.|.0 . : # : , X # # # # # O O O O ",
"- X X X X X @ - 1 o X -   $.;X=X4X7XpXxXzXA.8.5.I M M :.7.Z.w.<.,.L m B P w.4.,XqX9X3X#X@X}.}.m.3 & : X # , # % # # # X X O O O ",
"@ @ X X X X @ @ 1 - - :   } ;X*X=X-X2XqX5XB.B.w.3.:.P 7.q.Z.e.0.4.,.:.4.4.V.0.q.F.5X#X+X}.{.$Xx.X X @ o = , # $ # # : X X . O O ",
"X X X o X X X X 6 d i i : } ;X*X*X-X3X9XB.7.P.P.F.V.w.V.Z.P.K.r.e.w.w.V.C.C.0.4.j.1X+X}.{.'.+X=.o @ X X : 2 X X # : - & X . X X ",
"X X X o o o o o 6 c c c d $.;X*X*X*XoX5XF.q.L.P.P.L.L.K.L.I.K.e.e.J.C.z.C.z.4.4.F.XX|.{.{.|.+X... # . . : 3 # X @ - - & X X @ X ",
"X X & & o o o o 0 R T T v $.;X*X>X*XoX+X,Xj.j.P.P.P.P.C.P.P.I.e.e.J.J.I.z.r.4.8..X}.|.|.|.|.+X_   o     . : : # - : - & X # # # ",
"X X & & & & X o 0  .' ' ^ =.;X*X*X XoX X$XD.B.Z.P.P.Z.e.0.k.w.4.e.C.z.z.w.4.s.D.|.}.|.}.|.|.+Xt.H ! T F D > : : : X X X @ O # # ",
"X X o o & X X . 0  . .{ ' =.-X*XoX X].'.{.|.A.B.L.L.Z.V.4.:.:.4.e.z.C.e.q.8.A.D.|.|.}.|.}.$X@X'.m.{.-.*X`.O 3 . = : : # @ @ O X ",
"X X X . X X X o %  .! ! E  .-X*X*X X].].'.N.A.B.Z.L.V.Z.V.w.w.w.w.w.z.e.8.8.D.|.N.|.|.}.$X$X@Xk + $ , : 2 X : < : : : : : : # @ ",
"X X X X X X X o , $. . .{ =.-X*XoXOX].].'.N.N.A.B.Z.w.4.q.q.4.<.:.4.r.w.7.m y.}.}.}.|.|.+X+X+Xk , 2 , 2 i : : : : : : 3 : : # @ ",
"o X X X X X X . # } $.=.$.-.;X*XoXoXOX'.'.{.D.A.j.j.7.>.>.<.<.:.:.4.q.w.I + Z '. X+X+X+X#X#X@Xq l l l j d @ o @ @ @ @ @ X X X X ",
"o X X X X & X X X R R D S ~ -X;X=XOXoXOXOX{.}.D.8.8.w.w.7.<.:.4.w.r.7.2.K 4 + ! =XOX@X#X@X3X Xw a j s l i o o @ X X o o X X X X ",
"O # # X X & & X X R ~ ~ E ~ ;X;X-X@X@X=X=X@X3Xp.8 5.j.j.8.7.7.7.w.w.3.1.L + w w `.iX3X3X3X7X{.> 2 i t i 2 X # . X X X X X O O O ",
"% % $ # O X O X X b T R R R -X7X3X3X2X-X2X7X2XN 4 +.2.j.S.B.j.j.w.3.K 8.B + 5 q D v.@X0X0XgX`.$ d d y d 2 o o . . . . X O O O O ",
"8X;X7X-X=XoXoXoXoXT 0 q q k =X8X7X9X7X9XiXkXi.4 4 ` 6.P ,.3.3.:.P K 2.6.B 4 > q w q N Q o.n.&.6 6 3 3 6 6 5 $ 5 $ $ 4 $ $ $ $ + ",
"NXNXNXMXMXNXBXkXMXc.w v k w =XpXpXpXpXkXlX4XV $ + _ A.6.` K K K P 1.5.6.Z + 6 i a p k h e h F E C z 6 q 8X9X9X7X7X7X2X2X7X-X3X2X",
"kXpX8X2X2X3X7X7X8X' f f w 5 -XlXlX+XoX X| D 5 w + H b.6.8.8.2.5.2.2.1.6.N $ 5 2 d 0 a x x x c z V G G G 3XzXlXzXzXlXzXxXlXlXgXxX",
"8X4X=X'.v.x.c.v.d.-.d.&.&.E {.OX*.Q G z z l , 5 + N s.6.1.5.8.1.1.,.1.6.B 4 > 2 i i f f f f l z k x r N J X.3X#X+X#X<X<X<X0X9X0X",
"$.bXBXmXMXnXnXnXnXVXdXoXv.^ C z f v z a g a 2 $ 5 H s.s.8.,.1.1.,.2.5.` B 4 , 2 i 2 q a f f q a q f x q e f w ] x.p.'.n.i.{.{.N.",
"dXnXmXmXnXkXkXkXVX].c 0 l l c c k k q p g 6 , # f _ h.s.8.7.8.5.1.5.2.+.L 4 5 2 t 2 p a f a q a a a a f 0 a 5 ' kXkXpXgX{.) Q Q ",
"VXVXBXmXBXBX8X'.-Xv q a l f q a a , > d s 2 > # V %.s.s.j.8.2.2.5.s.8.8.+.e $ i < < 6 6 0 a w 0 0 d i d p , , 6 ].bXhXkXpX8XoX'.",
"VXbXv.^ v.v.Q v k 5 , q 0 5 a 0 2 : 6 d i 2 : $ E %.s.s.A.B.6.s.B.A.s.y.h.G $ 2 2 3 i 6 6 q q w i 2 i 2 2 2 , 6 / VXVXBXVXBXMXnX",
"VXhX-.^ F V V D k q , 6 0 0 , 2 : , i i 0 , > , | f.p.b.M.N.p.b.M.p.b.a.%.| g # 0 : 0 q , 0 i 9 0 2 2 2 , , 2 0 d ;XBXCXBXbXmXVX",
"VXBXVXnXhX4X8Xc., , , 6 6 6 , , 3 6 d i 2 > $ 6 X.x.f.n.b.b.n.n.n.n.f.i.%.$.g , 0 , q q , 2 0 , 2 2 2 2 2 , 2 0 2 '.VXBXVXBXnXmX",
"BXVXVXVXVXVXVX`.# , , 6 , 2 , 3 , 0 d 2 , : # f &.f.f.b.n.b.n.n.n.x.u.f.d.' p 6 2 , 0 0 2 2 2 , 2 2 2 2 , , > 2 , ~ BXBXBXVXBXBX",
"bXkXbXCXmXmXnXR , 2 , 2 , 2 , : 6 0 0 2 , : # v =.d.x.n.n.b.m.n.x.i.f.c.=.z > 2 , , 2 2 2 2 2 2 2 , 2 2 , : $ > 0 2 *XBXCXBXVXVX",
"^ '.$.$.$.-.} p 6 2 > 2 , 2 3 , 0 6 , : , : # T d.d.b.n.n.m.m.n.t.i.m.d.R # # 6 , 2 2 2 2 2 2 2 , , , 2 , : : > 2 2 / BXVXBXVXBX",
"i R s X , 6 , 6 2 3 : 2 , , 3 2 0 6 : : : : # W d.d.n.n.m.m.n.x.i.x.m.{ > # 2 2 , 2 , 2 2 2 6 2 , , , , > : : , > q a -._._.`.'.",
"d d d d 2 l d 0 , , : 2 , , , 0 6 2 , 3 : : # E x.f.n.b.m.m.x.p.x.m.c.! . , 0 , , 2 , 2 , , 6 2 , , , , : $ : 2 > i l i i 2 , 2 ",
"i 2 i s i s d 2 2 , : , , 2 , 2 > , 6 2 , > O F c.x.m.b.m.m.x.p.m.x.c.^ , > , 2 2 2 , 2 , > 2 : , , , > $ # : , 2 , > s p p g p ",
"R Y b b l s i , , > # , , , 2 2 , 2 3 , i , O V n.m.n.m.m.n.x.x.m.n.c.| > , 2 , 3 , , , , , 2 2 2 9 0 2 : $ : , 2 , , 0 p q 0 q ",
"d i y i i 0 0 i 2 , : , , , 2 , > , , , 0 2 O z c.n.n.m.b.b.x.x.m.n.c.| 5 , 2 2 2 2 2 , , 2 6 2 2 , 2 2 : $ > , , 2 , , q f q , ",
"2 t 2 i d 2 : , 2 , : , 2 , , , 3 , , 3 2 2 > z f.c.n.n.n.x.x.x.n.c.c.&.0 > , 2 2 2 2 , , 2 2 , , , , , : $ > , , 2 , , q k a , ",
"2 2 2 d s d , # , > : , 2 , , , 6 , , 3 , 2 > z i.x.n.b.x.p.p.f.x.x.c.=.f > 3 2 , , , , , , , , , , , , $ $ > , , 2 2 6 q p q q ",
"2 < 2 2 2 i 0 , : : # , 2 , 2 , 6 > , 2 , > > v =.d.x.p.p.i.i.i.x.n.n.d.z > , 2 , , , , , , , , , , , > # # > , , , , 2 5 5 0 a ",
"2 1 2 2 # 3 6 2 > > $ , 2 , 2 , 2 > , 0 2 : $ C %.u.p.y.i.t.u.i.x.n.c.d.V $ , 2 , , , > , , , , > , , > # # > , , , , > , 5 q a ",
": < 2 2 3 : : 2 , > $ , , , , , 3 > 2 6 2 : > F %.=.u.t.t.t.u.p.b.n.f.d.C $ , , > , , > > > , , > , , : # # > > , , , > , 0 0 p ",
": 2 i d d > # , > > # > , > , > : : 2 , , > , W *.*.*.t.t.t.u.f.b.n.f.d.F > 6 , , , , > > , , , > , , : # # : : > , , 2 6 5 0 p ",
"# d g p 0 6 > : : : # > > 2 , : , : , 2 , # a ) *.*.*.*.*.t.y.n.b.b.n.%.W , , , > > , , > , , , , : : # # : : # : , 2 , > , 2 2 ",
"0 d i 2 2 6 , : : : # , , , : : , , , 6 , $ z { &.*.*.%.*.t.y.b.b.b.b.*.E , > 3 , , , > : > 3 3 > : : # X X # : : : > , > : # # ",
", , , # : > : # # # O : > , : : 3 , , 2 > , F | &.%.%.o.t.u.p.b.b.b.b.*.F 5 : > , , > > : : 3 3 > > : : X . # : # # : : # X # , ",
": > : : : : # # X X . : : > # # : , , 2 # 5 E | X.%.o.o.t.p.b.b.b.b.f.&.V 6 : , : > > > : , , , 2 > : : # O : : # # # : # : 2 q ",
"> # O # : : : # # X . : : > # # : , , , $ 0 W { | X.X.X.t.p.b.b.b.n.f.{ l 0 > , : , , , , , 2 , , 3 : # X # # # : $ # : 6 q q 0 ",
"> $ > , > : : : $ # O : : , # # : 3 : > > f Q ' { X.o.%.y.b.b.b.b.n.u.! z p , , , , , , , , 3 : > > : # o X # # : : # $ 5 q q 0 ",
"6 0 a f 0 > : : $ # # : : , : # 3 3 : $ , z W ) { O.o.t.p.b.b.b.b.x.&.W c a , , , , , , , , : : > # # O . X # # # # : : > , 0 q ",
"# $ 5 0 6 > : # # # X # : , : # 2 , > $ 5 V W ) ..o.t.y.b.b.b.b.b.i.] F c d : , , , , , , , , , > O o X X X O # : : > 2 2 , , 6 ",
", 6 0 2 > > > > # X X X : , , : 2 2 , , a h F Q ] o.y.p.p.b.b.b.p.o.Q F F d , , , , : : : > , , 3 # o X : # # > , , > > $ > , 5 ",
"0 0 5 , , 2 2 , > # # : : # : 6 2 , > 0 v C W _ ..t.p.b.b.b.b.b.u.{ W E R 0 > 3 , , > > , : : : # # X X # : # : : : > # # # $ > ",
"f f f f f f a 0 6 # X # # # : 2 , : > a E Q ] O.t.p.b.b.b.b.b.y.o._ Q ! E 6 , : , , > > > : : # O # O . X # : # > , , 6 6 0 0 w ",
"0 q f f f a q 0 6 > X . O # : : > $ > f ! ] O.t.y.p.p.p.p.p.y.o._ _ ) ' ! 0 , # , : # # # # : # # # X o X # : : , 2 0 0 0 q q a ",
"$ , , 5 5 5 , , , > # X X O # : > $ , e ! X.X.t.t.y.y.y.y.y.o..._ ....{ ' p # : : $ # # # : : : # O o o O # : > > 6 q 0 5 , w f ",
"5 , , 5 0 q 0 5 , $ # # # X O # > , 5 q ) t.t.t.t.t.t.y.t.o...] o.9.o.X.{ f O : # # # $ : : : : # X o X : # # > > , 0 q a a q q ",
"0 0 w a k k a q 0 > # O # # # X # 5 q f ' u.t.t.t.t.t.t.o.....O.t.t.o.X.{ V $ $ # > > > > : : : O X . # : $ : , > # $ 0 f k f w ",
"0 0 q f f f a p 0 0 2 # X : : # O 0 f x ) *.o.t.9.9.9.o.....X.y.t.t.t.X.' E 6 # > > > > : # : : O O X X # $ : 2 0 6 > , 5 w q q "
};
