/* XPM */
static char *b24f3d4e99ec451788e581aa97b9bee41fIhYh1JlTqPSq2k[] = {
/* columns rows colors chars-per-pixel */
"64 64 249 2 ",
"   c #030504",
".  c #0A0906",
"X  c #0B0B0A",
"o  c #060908",
"O  c #120D04",
"+  c #1B0C02",
"@  c #120E09",
"#  c #0D100D",
"$  c #14120C",
"%  c #1B150D",
"&  c #1D190E",
"*  c #161206",
"=  c #0D1314",
"-  c #141512",
";  c #1B1612",
":  c #1D1A13",
">  c #1E1D19",
",  c #151817",
"<  c #0E0F10",
"1  c #23150B",
"2  c #231A0E",
"3  c #291809",
"4  c #331B0B",
"5  c #241C14",
"6  c #2A1D14",
"7  c #241D19",
"8  c #291F19",
"9  c #221613",
"0  c #341E12",
"q  c #220E03",
"w  c #252116",
"e  c #2A2116",
"r  c #25221A",
"t  c #2B231B",
"y  c #2D291D",
"u  c #2F2816",
"i  c #32251C",
"p  c #32291E",
"a  c #382617",
"s  c #332A17",
"d  c #111B24",
"f  c #1A2429",
"g  c #2C2522",
"h  c #2C2A24",
"j  c #2D2C2A",
"k  c #252725",
"l  c #352C22",
"z  c #3A2D24",
"x  c #342B27",
"c  c #2D312C",
"v  c #3A3126",
"b  c #35322B",
"n  c #3B342A",
"m  c #393428",
"M  c #2C3434",
"N  c #273335",
"B  c #3B3A35",
"V  c #3B3D3B",
"C  c #363836",
"Z  c #2D2E32",
"A  c #462A19",
"S  c #43240F",
"D  c #453527",
"F  c #553826",
"G  c #433B32",
"H  c #453D3A",
"J  c #4C3529",
"K  c #693B27",
"L  c #663119",
"P  c #3A413C",
"I  c #44443B",
"U  c #49453A",
"Y  c #584533",
"T  c #684838",
"R  c #744A33",
"E  c #343D42",
"W  c #423F41",
"Q  c #3D4343",
"!  c #3A4549",
"~  c #3B4B53",
"^  c #3D5056",
"/  c #434443",
"(  c #434A4C",
")  c #494A48",
"_  c #484E55",
"`  c #4C5557",
"'  c #575958",
"]  c #515049",
"[  c #675848",
"{  c #775A47",
"}  c #695A55",
"|  c #536259",
" . c #7A6B59",
".. c #6B6355",
"X. c #555D66",
"o. c #4E5B66",
"O. c #596668",
"+. c #576774",
"@. c #566C77",
"#. c #656869",
"$. c #667478",
"%. c #757B7D",
"&. c #797B79",
"*. c #6C6E6E",
"=. c #895639",
"-. c #945A39",
";. c #814B2C",
":. c #A4633F",
">. c #91603F",
",. c #875945",
"<. c #925D46",
"1. c #986549",
"2. c #8A6955",
"3. c #966A53",
"4. c #987359",
"5. c #87634B",
"6. c #A56845",
"7. c #A97557",
"8. c #B87A59",
"9. c #AC704B",
"0. c #877964",
"q. c #977A67",
"w. c #847C78",
"e. c #AE7C63",
"r. c #C37E5B",
"t. c #7C817D",
"y. c #63817F",
"u. c #BD825C",
"i. c #86847B",
"p. c #93886F",
"a. c #BA8569",
"s. c #AC8D74",
"d. c #C8855C",
"f. c #C78A68",
"g. c #D38C68",
"h. c #D6956C",
"j. c #C99675",
"k. c #D89874",
"l. c #C48E73",
"z. c #E39C76",
"x. c #E49B6C",
"c. c #E6A478",
"v. c #E8A06D",
"b. c #DAA17A",
"n. c #5B7086",
"m. c #767E82",
"M. c #7A7E81",
"N. c #7B7E89",
"B. c #677B88",
"V. c #867E83",
"C. c #7C8284",
"Z. c #798489",
"A. c #778994",
"S. c #708C99",
"D. c #7599B2",
"F. c #6F92A4",
"G. c #7BA7C6",
"H. c #769EC1",
"J. c #838484",
"K. c #848A8B",
"L. c #888887",
"P. c #928C89",
"I. c #94948D",
"U. c #868A93",
"Y. c #948E92",
"T. c #89959B",
"R. c #989897",
"E. c #8D918B",
"W. c #A89C86",
"Q. c #A59E9A",
"!. c #B09A82",
"~. c #9BA29A",
"^. c #A7A69B",
"/. c #B7AA97",
"(. c #B4AA90",
"). c #8E9CA7",
"_. c #9AA6A8",
"`. c #8AA4B9",
"'. c #94A8B8",
"]. c #95B1B1",
"[. c #A7A7A6",
"{. c #A9B2AC",
"}. c #A9B6B6",
"|. c #B5B8B9",
" X c #B1AEAC",
".X c #A39EA5",
"XX c #C4B49C",
"oX c #C8B698",
"OX c #CAAB8E",
"+X c #C9BBA7",
"@X c #D9A280",
"#X c #B9C1B8",
"$X c #D5C7AB",
"%X c #C8C5B6",
"&X c #D6CDB4",
"*X c #E7DABA",
"=X c #84A9C8",
"-X c #96AEC5",
";X c #88B2CC",
":X c #98B5C7",
">X c #8DB6D4",
",X c #A7BCC8",
"<X c #B0BFCD",
"1X c #C9BBC4",
"2X c #99C8D9",
"3X c #9DCBD7",
"4X c #A9C4CB",
"5X c #B8C5C7",
"6X c #A8C8D8",
"7X c #BBCBD7",
"8X c #B4D3D6",
"9X c #9AD0E4",
"0X c #A7D7EA",
"qX c #B7DBE9",
"wX c #AFD5EC",
"eX c #ABE2EC",
"rX c #BAE6E9",
"tX c #ADE4F6",
"yX c #B7E5F5",
"uX c #BDE8DE",
"iX c #C8C8C8",
"pX c #C8D6D9",
"aX c #D5D0CF",
"sX c #E6DCC8",
"dX c #E2DBD5",
"fX c #D4E3DB",
"gX c #E7E4D9",
"hX c #FEF6D4",
"jX c #F7EDCE",
"kX c #C7D8E4",
"lX c #D5DBE4",
"zX c #C2CDE1",
"xX c #C9E6E8",
"cX c #D7E6E8",
"vX c #C7E9F6",
"bX c #D8EAF4",
"nX c #D8F7F9",
"mX c #CAF5FA",
"MX c #E6EAE9",
"NX c #EAF3E9",
"BX c #E4F5FB",
"VX c #E4FDFC",
"CX c #EBFEFE",
"ZX c #E9F7F6",
"AX c #F4FDFD",
"SX c #FBFEFD",
"DX c #F9FCF5",
"FX c #EEF0EF",
"GX c #E4DBEC",
/* pixels */
"! ~ $.xXCXBXBXBXvX6X,XqXkX<X6X6X6XwXtXmXy.C I H *.M.M.Z.m.Z.Z.m.m.m.m.m.Z.m.m.m.m.Z.K.C.J.C.C.M.%.` J.U.U.U.T.U.Z.U.T.Z.).T.Z.T.",
"! ! $.pXkX4X<X,X4X-X-X6X7X:X-X-X:X2X9XyXZ.P I I *.%.%.%.%.C.m.%.%.M.M.m.m.m.m.C.m.Z.K.M.J.J.%.%.*.' %.K.N.Z.N.Z.Z.m.K.Z.Z.Z.Z.A.",
"! ~ @.4X-X`.'.).`.`.`.:X,X`.`.`.-X,X2XrXA.P B P *.%.%.&.&.&.&.t.&.&.C.C.C.C.C.M.C.M.M.&.M.M.V.&.*.` t.K.%.J.m.Z.C.K.C.%.C.Z.Z.A.",
"E ~ +.7XzXzXkX7X7X7XkXkXbXkXkXzXkXvXvXnXR.P I I O.C.J.J.t.i.i.i.&.C.K.J.J.J.K.J.&.J.K.K.L.Y.R.&.*.| t.L.t.K.E.J.J.E.E.t.I.R.%.U.",
"C ( ' iXlXlXGXGXMXMXMXMXMXMXMXcXcXcXcXMX^.G I I #.V.V.V.w.&.&.&.C.C.C.C.J.K.K.t.E.i.I.I.I.I.L.I.&.[ i.I.J.R.P.I.L.P.R.P.i.i.J.Y.",
"C / _ iXSXSXSXSXSXSXSXSXSXSXSXDXSXDXSXSX+XU U U #.V.V.V.i.w.&.L.L.K.L.t.&.i.L.E.w.I.R.L.P.P.L.Q.i.' w.^.i.P.P.Y.L.[. X X[. XiX|.",
"M ( ` _.iXzXzXkXlXcXZXAXSXAXSXAXSXSXSXSX%XU U U } V.w...} } ] ) ] #.i.P.P.i.w.Y.[.aXiXaXaX1XaXaXQ.] [.aXY.|.dXiXQ.aXaXaXaXiXaX|.",
"M ! ` _.4X<X,X,X,X4XpXpXpXpXlXlXAXSXFXMX|.U U H } } H z D z 6 6 6 p G ..i.P.w.P.[.1X1XiX1X1X1X|.V.' Y.R.L.Y.[. XY.|.|.|..XU.U.Y.",
"N ! ( ).xXvXnXnXnXBXBXBXBXBXbXBXCXCXBXcX{.I U ] U l g e t p t 2 6 e l l ] w.*.&.J.R.R.R.R.R.R.R.M.X.C.L.J.&.[. XY.|.|.|._.T.T.U.",
"M Q ( T.4X,X4X:X,X4XpXkXpXkXpXlXnXnXVXVX5X) U I p e 5 e 1 p v 1 6 0 i z m ) R.[.[.{.}.}.|.|.}.5X~.$.%.%.$.C.T.R.K._._._._._._._.",
"c P ( Z.,X'.].4X4X7XkXcXcXlXpXcXkXqXbXVXpX] U m e 2 3 6 6 Y a + 3 i i l b r [.SXSXSXSXSXSXSXSXSXpX$.{.AXZXZXAXAXAXAXAXAXSXSXAXAX",
"x H ( U.CXCXnXCXCXCXAXAXAXCXbXbXnXqX8XxXpX' I p t 3 0 J { 4.R F F F 0 3 i y k iXSXAXAXAXDXDXDXDX5X*.|.AXDXSXSXAXSXAXSXAXAXAXAXAX",
"x B / M.AXAXCXCXSXAXAXAXAXAXbXxXmXvXyXvXpX` B t e 4 A 1.l.l.l.a.a.a.e.T 4 6 y I MXCXBXCXVXCXcXCX5X*.5XSXDXDXDXSXSXDXSXSXSXSXSXSX",
"h V / *.ZXAXBXAXSXSXDXDXZXCXbXbXmXyXeXvXkX' j t t 4 R f.h.h.z.c.h.k.k.@X{ 4 t $ K.AXZXVXBXCXVXAX<X*.|.SXZXDXSXDXSXSXSXSXSXSXSXDX",
"h V / #.BXAXBXCXSXDXDXAXZXnXcXxXmXrXmXnXpX_ k r t 6 1.f.g.x.x.v.v.v.k.j.OX{ q % / SXSXAXSXSXSXAX'.@._.CXAXZXcXZXAXSXAXAXSXDXDXDX",
"h C / #.7XBXBXCXAXNXNXCXVXCXbXkXxXvXVXbX}.V r y 5 a 7.f.k.v.c.v.v.c.c.@Xj.s.A @ $  XgXMXDXDXMXSX}.@.).BXCXZXMXAXAXSXSXSXSXSXSXSX",
"j C / | ].xXZXAXcX#XfXVXVXCXMXpXpXpXpXcXR.h w t 3 F s.l.k.z.x.k.b.j.l.a.l.s.{ q O ..aX&XsXsXsXNX}.+._.cXZXZXfX5X}.5XiX5X|. X{. X",
"j C P ` }.xXcXAXcX5XxXVXVXVXMX%X%X#X X+Xw.5 2 e 3 F R R -.d.h.h.9.-.,.,.1.7.s.3   [ sX*XjXjXhXNX{.@._.cXCX5X, = o X X X o o   o ",
"h B I | ].nXCXCXVXnXnXxXnXVXfX{.$X$X$X&X .% 2 5 6 [ q.3.=.-.f.f.6.1.7.a.8.8.s.A + U jXhXhXhXhX&X_.O.}.CXMX_.  = , # X o X X X X ",
"h b B ! ].vXbXVXnXnXuX8XrXnXfX^.(.oX+X$X[ O 5 5 6 J T K =.=.f.k.6.=.L L ;.9.@XF i D sXhXjXjX*X$X~.O.}.AXAX_.o = < X X X o X X X ",
"b b I ( ).rXmXVXnXrXrXrXrXvXxX~.s.OXOXXXY * : ; 3 A K K -.-.u.c.6.-.;.=.6.d.@XF 0 a sXhX*X*X+X+X~.O.}.ZXAX_.  , o o X X o o X o ",
"b h ) ( F.rXnXnXmXeXeXeXeXrXxX~.p.s.s.s.n $ > : 0 T <.1.7.8.f.z.h.d.8.8.d.c.b.5.A 0 &X*X$X$XoX+X~.| }.AXAXR.  # X X X X X X X o ",
"V j W ( D.qXrXvXyXyXeX2X0X0XqX_.p.s.s.p.l - , & 0 4.a.f.h.d.d.z.g.c.k.k.z.c.j.4.J 3 XX&X$XoXOXXXR.O.}.SXSXE.  - X X . . X X X X ",
"/ j W ( S.yXyX0X9X0XeX2X0X9X6X_.p.p.s. .r - - & S e.k.k.h.6.g.@Xh.f.z.z.c.c.j.s.D 3 W.$XXXoXOXXX^.O.|.SXSXK.  X . X X . X . o X ",
"( k Q ~ S.eXyXtX0XtXeXeXtX9X6X).i.p.p.{ & - - % S a.k.k.f.:.8.g.r.8.g.z.z.k.j.R 3 e 0.XX/./././.^.O.|.AXSXt.  # X X X . . X . . ",
"( k V ~ S.0X6X3X9X9X3XeXeX3X4X].i.p.0.T % ; & + S e.f.f.f.9.-.6.:.g.g.g.g.h.4.3 6 6  .W./.(.(./.[.O.}.AXAX%.o X . . . . . X X . ",
"` k B / $.qXqXqXqXrXrXmXvXrXkX5Xi.p.0.D @ & & 1 S 1.7.8.8.a.8.8.k.h.f.r.8.l.5.3 6 2 Y 0.(.(.(./.{.O.5XSXAX%.  X X . X . . . . o ",
"' j B / $.nXCXCXCXCXCXCXCXCXAXfXi.0.0.6 @ ; & 1 4 R 1.6.-.-.1.6.:.6.-.6.8.a.Y 3 5 5 D  .W.W./.^.|.#.5XAXSX%.  X X X X . . . . . ",
"' j B / O.BXAXAXAXAXAXAXAXAXSXdX0.0.[ % : : $ 2 4 T 4.9.1.-.6.9.9.9.8.8.a.4.6 2 e 6 a [ W.W.(./.}.$.}.ZXcX'   X X X X X . . X X ",
"O.j b / O.cXSXAXAXAXDXSXSXAXSXMXi.0.z O 7 > X 5 1 A 5.3.9.6.6.6.9.8.f.a.q.F + e t p a D p./.W./.{.@.}.pXK.N   < X X X . o o o o ",
"O.N c Q ` pXSXSXAXAXDXDXSXSXSXNXp.[ % % 7 , $ 7 7 + F ,.6.8.f.f.k.f.f.7.T 3 1 r i D a a Y W.(./.|.@.7XcXZ.C   o X X X X . . . . ",
"O.N M Q _ pXSXAXSXDXDXDXSXAXSXFXi.u * e r ; ; : 7 + a T =.1.8.f.f.u.>.R Y 1 & l l D D a z  ./. X|.O.7XxXZ.N o X X X X X X X X X ",
"#.C c E ~ 7XAXAXSXDXAXSXAXAXSXMXI & r y 5 : $ 5 7 1 0 T R R =.-.=.;.K 5.Y + 5 b l v J a D D } Q.#XO.5XcXZ.N X , , - - # - $ X $ ",
"#.V M Q ~ <XAXAXSXSXSXZXSXSXNX..r t h 5 5 : O 5 t 1 0 [ { R R R R R 5.0.A + 5 m t z D e D D D U J.| 7XbXT.M ; r 7 y e l y l m x ",
"#.P k C ! }.SXSXSXSXDXSXFXR.I & r h y ; 5 ; O 5 8 1 3 T ,.3.,.<.=.=.q.2.3 + 5 y e l D i a a z G ) ( {.ZXiX[.^./.XXXXXXXXoXoXoX+X",
"*.Q h B Q _.SXDXDXDXSXiX] r w r l 5 5 5 ; & & 5 7 t q F ,.,.3.1.-.1.4.R q + 5 r y e l i p i t G j ] _ O.|.%X/.XXXXXX+XXXoXoXoXoX",
"$.! j H E ~.SXAXSXSXfXC.h r r r 5 ; 5 : $ $ > : 5 1 0 A 2.,.,.=.=.1.3.F + + 5 5 e 2 l i i i 5 l n g B > *.gXaXsXdXgXdXgXgXsX$X!.",
"A.~ k C Q R.CXSXSXiX[.O.> r r : 5 5 5 ; $ : r r 5 e 6 a { 3.3.3.<.1.4.S + 1 w & 5 & l t 6 y 5 z z 8 G m m %XDXDXSXDXDXSXSXDXW.s.",
"S.^ c B / #.C.%.&.) _ k r ; & 5 g 5 ; ; ; r r r ; y i z T 2.T R 3.4.5.0 + 1 e 5 7 % 5 t 6 t 6 l D e G v l &.DXDXDXDXDXDXSXgX0. .",
"S.~ k c V Q Q ( / V c : 5 5 e t t % 5 ; ; r y 5 5 7 5 3 A 0 4 A 2.2.F q 3 e t & ; 5 5 t 5 5 i l p p G m n G dXDXgXNXNXMXgXsX+Xp.",
"B.` '  .L.R._. X X) r r y 6 e y & ; ; & 5 y 7 : ; $ ; 9 2 6 i a T Y + a v 2 e : ; & & 5 y 2 5 l v l n l n x w.sXsXsX%X%XgXgX&X+X",
"o.m.Q.Q. X X{.[.R.U r 5 e e y 5 ; > 5 & ; r 5 5 g 7 7 7 7 e e i J J 3 D G 5 ; $ % % % 8 e 2 & p l y m m n l H ..q.0. .../.jXjX*X",
"_ ` _ / ( ! C Q / y h r 5 y h $ : 5 5 & ; 5 5 5 t 7 7 : > 7 r e D A 6 D G 5 $ % $ @ % e 5 2 2 p z g h h h l z Y J F F F [ jXhXhX",
"+.+.A.T.A.S.T.T.] h r r y h y ; : 5 w 5 5 5 5 5 7 7 > : : > r r l z l G n 5 @ $ $ @ % 5 5 2 w v t t l j x l i T q.2.s.!.*XhXhXhX",
";XwXvXqXwXwXqX,XM g r t g 5 9 7 7 > 5 5 6 5 5 7 7 7 7 > : > r y i z z G m ; @ @ $ @ : t y 5 y m a e h g h t u Y jXhXhXhXhXhXhXhX",
"tX0X0X0X0X0XyXB.k x g 7 8 5 9 7 7 5 5 5 5 5 5 r 5 7 5 > ; ; t y t z z G x $ . . . @ : g n y l m p 2 h h h t p u /.sX&X&X&X&X&X&X",
";XG.;X>X2X>X>X~ k r w r e 5 5 e 7 7 7 5 5 5 5 r w r w r 5 5 t y e y v G b * . . @ $ : g n x l m h > r h e e l 2 ' |.}.}.5X5X5X}.",
"D.H.G.G.>X2XD.N h t w 5 ; 5 t e 5 7 t w r e 5 w r r w t 5 & 6 e y t x n x & O ; 5 7 : g b x e x y r r x t e p r Q ,X6X6X0XyXvXqX",
"D.G.G.;XG.>X@.f g e : r r 5 y 8 5 r e e 7 5 5 r r r r r 5 5 5 y y w m m h 5 5 ; 5 5 7 g m x y e 5 5 y x w t u y k T.:X;X;X2XwX,X",
"G.;X;X;X;X'._ f g 8 r > r : l 8 7 e e e 8 5 5 8 t y y t r ; 5 y y w m m l e t e t t t g b n x e 5 5 r h r t t p k +.-X=XG.G.>XB.",
"=X=X=XG.`.S.N k t e r > r : l e 6 e e e 5 5 5 5 e y y t r 5 5 y t w n n l y l x l l l y l n z 5 5 ; r g r t e y k ! '.=X=X;XB.f ",
"S.S.S.B.B.O.f g 6 t r r : r y e e e e e 5 5 5 5 e t y y y 5 5 t y w m n l l x x l l l y y m x 5 % ; r r 7 e e t r N A.-X`.:Xn.d ",
"n.n.n.@.+.! k t 5 e w w : r y 6 e e t e e 5 5 5 5 e e e r 5 5 5 t 5 v m l p l p l i p y t x v e O $ > > > r e e y k ` '.).`.@.d ",
"+.+.o.+.O.M r 8 3 5 w & : w t 5 5 e t e e w 5 5 ; 5 5 e r r 5 5 t 5 x m x l l i l p p y y x n m @ $ : , : 5 6 6 1 h N $.B.! k f ",
"+.X.o.O.` j 7 6 5 2 5 & & 5 e 5 5 e e e e e 5 5 ; 5 r e e r 5 5 e 5 x n x l l l l l l i p l n n e $ - - : ; 5 3 y 7 k _ #., ( / ",
"+.X.O.O.E r 8 5 5 5 & : * w 6 e 5 e t e e e e 5 5 e y y y r 5 5 5 2 x n l l l l p l l l p l l x n & $ - : ; 5 3 5 y h V ( = , ) ",
"o.X.X.` c r 7 5 5 5 & ; * 5 e 8 e r e e t t e e y y y y y e 5 5 5 5 l n x x l l l l l l p l v n v y $ $ & * 5 2 e 5 r b C < > Q ",
"X.X.` ( h 7 7 5 7 7 ; ; * 5 e 8 7 w e e e e t t y y e e y e 5 5 e 5 l n v l p p l l l l l l v v v x ; $ $ & & % 2 w r h b k k C ",
"o.X._ V k r 5 5 5 5 : : * 5 e e w w r r e e e t y t e y y y e 5 e 2 p G n l p l l l l z l l l l p l 2 O $ ; 5 5 e t e r h / C V ",
"X.` Q r : 5 7 8 7 > : $ O : e 8 r w t t e e t t t t e y y y e 5 e 2 t G n l l x l l l z l l l p l l & . $ $ & 5 % 2 2 e g / / V ",
"` _ V - & 2 & ; > > : $ O & 7 7 r w w r e t e e e e e e y e r 5 e 5 e G m x l l l l l z l l l p p l & . . X $ & 5 e 6 e r C / Q ",
"+.O.) ; 2 5 5 7 ; - - * . % 5 5 5 5 w w e e e w 8 8 e e y e r 5 5 5 6 n z x l p l x z z l l l y e l 5 . X : : : w i e 6 5 b / V ",
"#.#.' w 5 5 5 ; ; - $ O . * 5 w 5 5 5 w w w w w e e e e e e e e 5 5 5 n z z l l v v v l p p y 6 e i 7 @ $ > > 7 & 6 e i l U ] / ",
"X.#.' 5 5 5 6 5 > : : * . * 5 5 5 5 5 w 5 w e e e e e e e e e e 8 5 5 n m z x l l l x l p y t 6 5 5 & @ $ > > r e 6 6 e i ] ] ) "
};
