/* XPM */
static char *c5e2a59c440a48ce87a858d9a924cbfaISGOFdsYEi3b9YbT[] = {
/* columns rows colors chars-per-pixel */
"64 64 249 2 ",
"   c #0C0401",
".  c #0D0C0A",
"X  c #090703",
"o  c #140B04",
"O  c #120D0B",
"+  c #180B03",
"@  c #14120D",
"#  c #1B130C",
"$  c #1A1207",
"%  c #151413",
"&  c #1B1613",
"*  c #1C1915",
"=  c #1C1B19",
"-  c #171819",
";  c #0C1111",
":  c #261609",
">  c #231C14",
",  c #231D1A",
"<  c #271B16",
"1  c #2C160A",
"2  c #1A221E",
"3  c #25211C",
"4  c #2B231C",
"5  c #2B2316",
"6  c #34251A",
"7  c #34220E",
"8  c #1D1F22",
"9  c #211C21",
"0  c #172424",
"q  c #103135",
"w  c #242422",
"e  c #2A2522",
"r  c #2A2A28",
"t  c #332B24",
"y  c #322B2A",
"u  c #39342C",
"i  c #383836",
"p  c #2B3430",
"a  c #42281A",
"s  c #483729",
"d  c #573827",
"f  c #443D35",
"g  c #473026",
"h  c #633D2C",
"j  c #44423C",
"k  c #4C4236",
"l  c #584737",
"z  c #59422C",
"x  c #654A38",
"c  c #6D533B",
"v  c #75523B",
"b  c #6F4833",
"n  c #3A3D42",
"m  c #2D3F46",
"M  c #173C42",
"N  c #413F42",
"B  c #3D4244",
"V  c #3D464A",
"C  c #384649",
"Z  c #304A54",
"A  c #444544",
"S  c #43464A",
"D  c #434A4D",
"F  c #4C4948",
"G  c #544C43",
"H  c #5A5249",
"J  c #444D52",
"K  c #4A4F52",
"L  c #4B5255",
"P  c #4C555B",
"I  c #4D5B5E",
"U  c #455258",
"Y  c #535454",
"T  c #51565C",
"R  c #52595D",
"E  c #5B5A57",
"W  c #47504F",
"Q  c #675747",
"!  c #775945",
"~  c #645B53",
"^  c #775E52",
"/  c #6A635A",
"(  c #786758",
")  c #72614D",
"_  c #4D5B63",
"`  c #4E5B66",
"'  c #535D64",
"]  c #535E69",
"[  c #585D64",
"{  c #475E70",
"}  c #605F65",
"|  c #4C626A",
" . c #546165",
".. c #596365",
"X. c #55626B",
"o. c #5A656B",
"O. c #5D6A6D",
"+. c #516B6C",
"@. c #5C6B74",
"#. c #5C6E7A",
"$. c #566974",
"%. c #5C717C",
"&. c #587377",
"*. c #426E7C",
"=. c #696967",
"-. c #756D66",
";. c #7A7369",
":. c #636E75",
">. c #62737C",
",. c #697478",
"<. c #787877",
"1. c #6E706D",
"2. c #4C605F",
"3. c #88543D",
"4. c #864E37",
"5. c #855B46",
"6. c #945A43",
"7. c #87644D",
"8. c #95634D",
"9. c #8A6853",
"0. c #966955",
"q. c #83745F",
"w. c #99725A",
"e. c #A56C58",
"r. c #A6745B",
"t. c #B4745C",
"y. c #877968",
"u. c #9A7966",
"i. c #897D72",
"p. c #89776D",
"a. c #A87965",
"s. c #B47C66",
"d. c #6B817C",
"f. c #94836D",
"g. c #8A8278",
"h. c #938474",
"j. c #948A7A",
"k. c #9B8B7B",
"l. c #988876",
"z. c #9D907C",
"x. c #B7826A",
"c. c #BB8972",
"v. c #A5937C",
"b. c #AE8E74",
"n. c #CA8F75",
"m. c #E39D7C",
"M. c #E7A07D",
"N. c #467882",
"B. c #5B7785",
"V. c #567B92",
"C. c #637682",
"Z. c #657B86",
"A. c #737C85",
"S. c #827D82",
"D. c #5E8387",
"F. c #5D8294",
"G. c #65848B",
"H. c #678A94",
"J. c #798A90",
"K. c #789BA6",
"L. c #77A8B3",
"P. c #898986",
"I. c #968E84",
"U. c #999387",
"Y. c #989896",
"T. c #899597",
"R. c #A89987",
"E. c #B29C86",
"W. c #A39C94",
"Q. c #B6A38C",
"!. c #A7A39A",
"~. c #B8A896",
"^. c #AFA594",
"/. c #93ACB2",
"(. c #AAA9A5",
"). c #B4ADA4",
"_. c #B7AEA7",
"`. c #AFB3AC",
"'. c #BAB3A6",
"]. c #B4B3AC",
"[. c #BBB5AB",
"{. c #BDB9AD",
"}. c #B6B4A5",
"|. c #ABB7B9",
" X c #BCBAB3",
".X c #BBBDBB",
"XX c #B6B7B5",
"oX c #A3ACB1",
"OX c #959E9F",
"+X c #CB9A85",
"@X c #D69E82",
"#X c #C3AD98",
"$X c #C9B39A",
"%X c #D4B99D",
"&X c #D3A98E",
"*X c #E9A786",
"=X c #EAB295",
"-X c #C2BAAD",
";X c #C8B5A2",
":X c #D4BDA5",
">X c #C3BCB3",
",X c #C2BEB9",
"<X c #C4BBB6",
"1X c #C4AEA0",
"2X c #E1AB92",
"3X c #BBC1BB",
"4X c #D9C3A9",
"5X c #C4C1BC",
"6X c #C9C4BC",
"7X c #C6C2B4",
"8X c #D6CAB9",
"9X c #E2CAAD",
"0X c #E3CCB3",
"qX c #EBD3B8",
"wX c #F2D7BC",
"eX c #FFC4A9",
"rX c #8CBBC7",
"tX c #B4BDC3",
"yX c #BABFC1",
"uX c #AEBBC2",
"iX c #BBC3C4",
"pX c #B4C3CB",
"aX c #BBC5CB",
"sX c #BEC9CB",
"dX c #B6C4C7",
"fX c #BCCAD1",
"gX c #B8CAD3",
"hX c #B5D1D2",
"jX c #AFD3DF",
"kX c #C4C5C3",
"lX c #C7C7C5",
"zX c #D1CCC6",
"xX c #C5CFD5",
"cX c #C7D3D9",
"vX c #D7D6CF",
"bX c #F6DDC2",
"nX c #E9D8C3",
"mX c #EDE1D0",
"MX c #CBDAE3",
"NX c #DCFBF9",
"BX c #D2E9EC",
"VX c #E4FEFD",
"CX c #ECFEFE",
"ZX c #E6F7F9",
"AX c #F4FEFF",
"SX c #FBFEFD",
"DX c #F8F9F3",
"FX c #F7F6EF",
"GX c #CDE0DE",
/* pixels */
"B A A Y 1.1.=.} o.:.,.:.[ [ [ ' ' [ [ [ ' R R T R R [ [ [ R T P P P P K Y e j >X[.}.^.).'.W.U.{.}.[.}.I.H / U.<X>Xg.g.-.>Xf ~ vX",
"A A N E S.A.<.1.<.<.,.O.[ ..o.[ =.O.O.o.....[ [ [ [ [ [ [ ' R R ' R P L Y 3 Y 5X[.[.).~.{.'.}.7X}.[.{.-X_.-.P.,X,X;.-./ 6Xf f vX",
"j A A =.S.<.S.P.A.<.:...T P T T _ _ ' ' ' ' ' '  . .] X.[ ' ' ' ' R P L Y * =.5X[.[.'.~.}.7X6X>X{.}.[.}.>X-X).[._.'. Xg.6X~ t  X",
"A A A E <.1.=.} R R T P T T R ' [ ] ] ] ] X.X.X.X.] X.X.' _ _ ' ' ' P L Y * -.5X[.[.'.).}.>X6X>X[.[.}.>X).'.-X-X>X-X(.-.zXg.> W.",
"j A A A F F S Y Y L P P T P T P ' ' ] X.X.X.X.X.X.X.X.X.X.] ] X.' ' P L Y * -.>X-X-X'._.'.>X5X>X[.[.[.[.[.'.-X'.>X>X!.-.zXY.& -.",
"j j A A Y E K Y L P P T T T R ' ' ' ] X.X.o.o.X.X.X.X.X.X.X.X.X.' ' P L L = -. X{.-X'.).'.>X,X>X X).-X'.-X[.'.<X>X-XW.;.zX).3 A ",
"i A S A K Y K T P P P P P P P ' [ ....X.X.X.X.X.X.X.X. .X. .] ] ] _ P L K - <.].[.{.[._.'.>X6X<X[.>X'.-X[.[.>X'.>X>XU.;.zX,Xi & ",
"i F A S W D K L K L L P P _ _ ' ' ' ' ' ' ' X.X.X.' ' [  . .[ [ ` U P L K - <.).[.[.[.[._.>X6X>X[.[.[.[.[.-X[.>X>X-Xj.g.zXlXF % ",
"B S S S P P P P P ' ' _ _ X.] X.] X.$.O.$.X.@.$.X.X.X.o.X.X.' ] ` ` U J D - g.(.].{.[.'.'.{.>X>X[.[.[.{.[.[.-X-X-X{.g.j.lXzX~ @ ",
"B A S D  .....X.X.@.$.$.X.#.#.%.@.#.>.C.C.@.C.C.Z.@.@.:.>.$.] X.] ] _ P D % P.!.).{.{.[.[.-X>X>X[.[.[.[.[.[.-X-X{.{.;.I.zXzX;.@ ",
"B S S D ..:.@.X.o.:.:.#.$.#.>.C.#.#.C.Z.C.#.C.Z.Z.%.%.Z.C.@.] X.] ` P L D - Y.(.(.{.{.[.[.{.7X X[.[.[.{.{.{.-X>X-X[.;.W.lXlXI.# ",
"n S D D  .@.@.X.o.:.#.#.$.#.>.C.#.#.C.C.B.#.B.C.C.#.%.C.>.@.X.X.' [ P L V = P.(.!.[. X[.[.{.7X X[.[.[.{.{.-X>X>X[.[.-.!.6XzX!.* ",
"n S D D ..:.@.X.o.>.#.@.@.#.>.%.$.$.C.B.%.$.#.#.C.%.%.>.:.o. ...[ [ L L A = Y.(.!.}. X[.[. X7X>X{. X[.[.{.{.>X>X'._./ ).6X6X>X;.",
"n S S D ..:.o._ X.@.$.@.$.#.>.#.` X.%.%.#.$.X.| @.X.@.@.[ D V L R R L Y S = !.(.!.]. X[.[. X7X>X{. X X[.{. X>X>X[.)./ _.lX>X6XzX",
"n A S D  ...' P X.@.X.X.X.#.>.@._  .>.>.:.O.X. .o.[ [ P S i i j A i p r y 3 P.].!._.[.[. X>X5X>X X X X X X X>X>X[._./ '.6X6X>X7X",
"n S D S R R P P ' X._ ` ] @.%.X.' ' :.>.:... .....D i w 3 3 < 5 3 4 r 3 , e j P.!._.[. X X>X5X>X[. X X X X X>X X>X!./ 7X6X7X6X6X",
"n S S S R R L P _  ._ _ X.X.@.X.'  .$.:.O... .[ S w = > 5 7 d a 5 4 5 6 6 5 3 u Y.(.[. X.X5X6X<X X X X X X X X X{.U.-.6X7X7X5X6X",
"n S S S Y P L P _  ._ _  .X.O. . . .$.#.O...R V 8 O + + : z w.b 7 : : + $ 5 t = E ).]. X.X5X,X,X X X X X X X X X{.U.-.6X5X7X6XlX",
"n S S B L L L L P _ _ _ _  ...'  . .$.@... .W r O o 1 c b.&X=X@Xx.9.h 1 : 5 6 r y P.].].3X5X5X,X X X X X X X X X XI.-.lX5X,X6XlX",
"B V D B K L L U P _ _ _ _  .X.'  . .X.$...T i * o + 9.&X=X=X=X=X=X=X+Xv a 6 < t y F (.]. X5X6X X X X X X X X X X Xg.;.lX,X,X6X6X",
"V C D V J L L U I _ _ _ _  . ._ I  .] $.] S r *   d n.*X*X*X*X*X*XM.*Xs.h 7 < 4 t 4 ;.].]..X,X,X X X X X X X X[.>X<.<.lX,X,X5X6X",
"V C D V D L J U P P _ _ _ ' _ P P  .` X.T i = > + 7.n.m.M.m.*XM.M.M.@Xc.h 1 5 # 4 4 i I.]. X,X,X.X.X X X X X X[.5X-.P.lX,X5X5XlX",
"U C D V D L J U P P _ _ _ _ _ _ _ ' ` ` J r * # : w.n.*X*Xm.*XM.*X*X*X+X5.1 < 4 , e > H !. X.X.X.X.X.X X X X X{.>X=.U.6X,X5X5XlX",
"P C D V D L J L _ _ ` ` _ _ _ _ ' ' ] _ B e & + 1 b.&X@X@X@Xm.m.m.n.s.0.! g < 5 > 5 < 4 ;..X X.X.X.X.X.X X X X]. X/ Y.6X,X5X5XlX",
"' m J V D K J P _ _ _ ` ` _  ._ ' _ X.P i 3 # + 6 u.v b v s.n.n.e.b d h d a 6 < 5 > < > f Y.XX.X.X.X.X.XXX X X X].E (.5X X,X5XkX",
"X.m J V J L J L _ _ ` ` ` _ _ _ _ ] ` J r , #   6 x c c c 0.c.x.8.7.! ( ^ l 6 1 > < 5 > , i P.XXiX.X.X X X X X].(.Y (.5X.X.X5XkX",
",.C J V J R P _ ` _ | | | | | X.X.X.' B 3 * O   < ! ( 9.c ! a.x.! x Q ( ^ x g 7 < < > < 4 3 1.Y..X.X.X.XXXXX X X!.Y ].5X.X.X5XkX",
"J.C J V P .. .X.$.$.$.$.$.$.@.@.@.o...i w & $ # 6 Q c d l g v 8.d ! h d x Q d : : > > > > , Y Y.XX.X.X.X.X.X.X.XY.Y  X5X.X.X5XkX",
"T.C J V I O.X.+.&.&.&.&.%.%.%.&.&.O.L r 3 & & < a b v d ! ! n.+X5.9.! ! u.b.! d : + + @ > , u / XXiX.X.X.X.X.X].P.E .X.X.X.XkXkX",
"OXC D C _ @.$.&.&.&.B.B.B.B.B.B.>.:.i = * @ @ + d +Xc.c.&Xa.+X2X8.%X&X+X2X2X0.! 1 $ # # > > t j (.lX.X.X.X.X X].P.=.kX.X.X.XkXkX",
"oXC V C | &.&.%.D.D.D.G.H.H.H.G.G. .w 9 * % @ + ! +X2X=X&Xw.=XeXt.e.2X2X=Xs.e.u.a 5 $   O & t H J.iXiXyX.X.XXX X<.<.lX.X.X.XkXlX",
"oXC J C _ @.+.&.Z.D.D.D.D.G.G.G.d.p - > > @ . $ 7.s.n.t.3.e.n.n.n.4.3.6.6.t.c.w.a 6 o o O * 4 <.1.yXiXyXyX.XXXXX1.<.lX.X.X.XkXlX",
"|.C Z m J I U I o.X.&.+.&.$.+.&.| 2 , < > # # $ u.w.3.6.8.6.6.8.5.8.r.r.s.n.x.7.g 5   o O # y <.T.aXiX.XiX.XXXXX=.g.lX.X.XiXlXlX",
"|.m Z Z U ..O. .' ' _ 2._ _ I I C 0 w < # # # + ( a.s.a.e.s.r.0.a.a.e.s.t.s.s.5.g :     O O i P.|.sXiXtX.XyXXX`.=.P.lX.X.XiXlXlX",
"|.q H.K./.AXZXAXAXSXCXAXAXAXZXAX/.+.Y & 3 @ X   l a.0.e.s.+Xs.e.s.n.s.e.e.e.r.5.s #   O O . B |.aXiXiXiX.XyXXX`.E P.lX.XyXkXlXlX",
"|.q G.K./.CXAXAXAXAXAXAXAXAXAXAXhXJ.O.; e y . + g a.a.e.3.3.6.6.6.6.4.6.s.s.a.Q : &     O X ..sXaXtXdXiXyX.XXX`.Y Y.lX.XiXkXiXkX",
"dXq H.K.J.CXVXVXCXVXCXCXVXVXCXVXBX/.d.; 2 - * O $ ^ a.e.8.e.r.e.t.s.s.s.r.r.a.s o . @ . @ % ,.sXaXaXkXiXyX.XXX`.Y (.kX.XiXiXiXsX",
"dXq D.K.J.CXNXNXVXVXNXNXVXNXZXCXVXT.p - - - - ,   d u.w.x.x.r.r.e.n.n.x.r.x.^ +   % X . % % [ cXsXsXsXtXyXyXXX(.L |.iX.XiXiXiXsX",
"hXq N.L.H.VXNXNXNXNXNXVXVXcXoXd.P.=.w % . % - . X + Q w.a.s.s.s.s.n.x.a.w.9.g   X ; . @ @ @ J.xXaXfXpXtXtXtXXXY.L .XyXiXiXiXaXsX",
"hXq N.L.H.VXNXNXVXNXVXVXJ.0 ; X 1.;.* u 4 X X . X   7 7.w.x.s.s.s.x.x.w.7.c 7   O . O o & r =.xXfXgXaXpXtXtX|.T.P iXiXiXiXiXaXaX",
"jXq N.L.G.VXVXVXVXVXCX3X; - - * ).i.k ;.~ u e * & $ 6 x 5.r.e.r.r.r.w.5.c ! 1   & . O o u I.A |.xXgXpXpXpXuXuXT.P aXiXiXdXsXsXiX",
"MXM N.L.H.VXCXCXCXVXCX<.; 9 . 3 W.'.y.j.I.;.~ / f 4 7 ! 5.5.0.0.8.8.5.v ! c : # e & o 5 Q ~.1.OXcXgXpXpXpX|.uXJ.P sXdXaXaXaXaXsX",
"MXZ *./.G.CXCXAXZXZXCX..X - r p i !.!.j.R.i.;.p.~ u a ! 5.3.5.8.8.8.5.! 7.c 6 5 f i u f ( '.i.OXMXgXgXgXtXdXtXA.@.xXaXaXaXsXaXaX",
"BXZ *./.G.CXAXCXZXZXAX .9 y p r @ t W.U.j.h.h.i.;.l l ! 9.8.w.w.0.0.7.9.! c x s f G / H y.;X=.Y aXcXfXaXdX|.uX,.:.xXaXfXfXfXaXfX",
"BXZ *./.G.CXAXAXAXGXI p y e w r w % t U.h.h.k.i.p.) y.9.5.w.u.a.a.w.9.9.! v ! z l Q -.l l.).~ @ p ,.|.|.oXoXtX,.A.cXaXfXfXaXaXfX",
"NX{ *.rXG.AXAXAXBXC 0 r y y w w w * * 4 h.h.l.j.l.( y.E.b.w.0.u.r.w.0.9.5.! ! z Q / / Q R.R.u = 8 0 p <.yXXXtX,.,.GXxXsXfXfXfXaX",
"VX$.N.rXZ.AXSXSXT.0 p i y , e 3 = 9 e # f j.y.j.h.i.q.R.#X$Xb.x.r.r.w.9.5.5.c x Q Q Q y.~.-.$ 3 w r r = S Y.xX=.D sXxXxXsXaXaXaX",
"AX%.N.rXG.AXSXSX<.w y y e , e 3 9 = , t > t u s g.y.y.v.Q.$X:X%X&Xb.b.u.7.v x Q ^ Q / h.U.t > & 3 , e y w y P.=...iXiXsXfXsXdXsX",
"CXG.N.rXH.ZXSXDXF r r y , , 3 , w - * 3 e >   5 ;.g.y.h.~.#X$X%X%X%X:X;X#XE.l.( ^ Q p.p./ # 3 & , 4 , w y r i r <.5X(.3XxXaXsXaX",
"AXJ.F.jXF.CXSXkXy r y e > < 3 w * - - - = @ # ~ g.h.y.l.~.#X:X%X$X$X$X#X1X~.k.y.Q Q I.( i.t * , > , > 3 e r y , P.3X`.`.iXaXpXfX",
"cXJ.V.L.{ /.GXY.3 e w , * , e 3 . - - = = X 3 H i.j.g.l.#X;X:X4X:X%X:X#X1X~.l.y.Q y.).u H H X @ * , > , , r t 4 I.{.}.`.iXlXdXaX",
"CX/.V.V.B.cXlXg.4 3 3 3 & * e % * = @ w * X y u ;.h.g.l.#X4X4X4X4X4X4X;X;X~.R.y.) U.;.$ f -.& @ @ 3 3 * , e e t I.7X}.`.3XiXaXaX",
"AX/.V.H.K.MX`.P.4 3 3 , # & 3 @ 3 % % 3 @ X u u H j.g.i.#X4X0X0X0X4X4X4X:X$XE.( y.j.6   5 ;.e @ $ & e , , , 5 > g.7X{.[. XiXiXdX",
"J.Z.V.H.B.T.(.g.> 4 , & & * * % * & 3 * X X u j u ( k.l.Q.8X0XqXqXqX9X0X:X$XQ.q.q.h.t   o -.j o & o 3 e , > 6 # ;.-X-X}.].3XiXaX",
"] ] { | _ Y.W.g.5 > * % * * % @ * * 3 . . O i F f f i.E.v.4XnXqXqXqXqXqX4X%XE.f.y.i.<     j / X = @ & e , , 6 > Q -X-X{. X3XlXiX",
"MXcXgXX.:.(.U.h.t # & * & & % % * * & & * O j G G f l k.Q.$XqXwXqXqXqXqX9X4Xv.l.R.p.6 o   4 ;.O & & O , 3 > > < Q 1Xz.g.g.P.iXiX",
"SXSXAXAX`.W.j.l.s # & & & * % - * @ * = , & F ~ H G k l E.#X0XwXqXwXqXqX9X$Xb.E.E.y.f # o @ -.3 . = . * , , > # H ;Xi.: o X 1.xX",
"AXAXSXSX!.R.l.l.l # & & * * O & * * , , > 4 / -./ / Q l Q Q.4XnXwXwXqX0X4XQ.v.~.E.( ~ > o @ E i X * . - - * , # H '.;X8X~ X . T.",
"SXDXSXvXU.k.f.h.G # & & * * O - * , 3 > * u i.i.i.h.;.) z q.;XbXwXwXwXqX%Xv.Q.#Xv.;.y.5 # * f E X * - % - * > $ Q ~.^.8XmX].E 2 ",
"SXFXFX).h.z.y.h.Q # & & * * O * * , , * # k I.i.j.^.h.y.) l v.qXbXwXwXqX#XE.#X#Xf.h.g.6 & 3 4 =.@ & * % - - > $ Q ~.Q.~.8XmXvX].",
"FXDXmXU.l.k.y.f.~ & % & * & O * * * , > # H R.h.v.~.R.k.q.Q ( :XbXwXbX9XE.Q.#XQ.y.R.k.u & 4 @ E , @ & . - = > $ Q Q.~.~.8X8XzXmX",
"SXSX>Xj.l.f.q.i./ * @ * * % @ * * & , > $ ~ R.l.R.~.~.E.l.q.) E.bXbXbX%XE.Q.#Xv.f.R.^.f # 4 O f t # & O * * * # ( Q.Q.Q.~.7XvXvX",
"vXvXW.i.h.f.y.y.=., O * * @ @ * * & , > $ ( R.f.v.~.Q.~.R.y.y.y.9XbXqXQ.E.~.~.f.l.z.^.f > 4 & u y # * @ % * * # ;.^.E.~.E.E.7X8X",
"P.Y.U.h.i.y.q.( -.e % - & O @ & , % , > # y.R.y.v.~.Q.#XE.k.i.y.#XwX:XE.v.~.E.y.v.v.v.s > > & e t o * @ @ = = > i.R.Q.Q.E.~.~.j."
};
