/* XPM */
static char *e4b77c466fd44e57bf5f7d8c3630a483[] = {
/* columns rows colors chars-per-pixel */
"64 64 41 1 ",
"  c #0E263C",
". c #0D283F",
"X c #0D2A43",
"o c #0C2D4B",
"O c #0B2F51",
"+ c #0B3155",
"@ c #0A345B",
"# c #093662",
"$ c #093866",
"% c #08376A",
"& c #073B6E",
"* c #083A6B",
"= c #083C6C",
"- c #083C6E",
"; c #083D6F",
": c #073C70",
"> c #073D74",
", c #073F76",
"< c #083B70",
"1 c #083E73",
"2 c #083F74",
"3 c #063F78",
"4 c #063F7A",
"5 c #074076",
"6 c #084076",
"7 c #06427B",
"8 c #05427D",
"9 c #06437E",
"0 c #053F84",
"q c #064380",
"w c #064581",
"e c #054284",
"r c #054684",
"t c #054887",
"y c #054488",
"u c #044788",
"i c #054888",
"p c #04488C",
"a c #044A8D",
"s c #054C8F",
"d c #044C90",
/* pixels */
"+XXXXoXo-rurq,#o @rqq8qriirruirriirrrrrwrrrttw+X@5riw5-@o.XXXXo+",
"XXXXX+@XXoOOoXo@:wwqq8wruiirrirriirrrrrrrrrru7 @*$@oX.Xo@$,@X-,o",
"XXX++++:+  X+$:,8wqqqwqrriaiuitriurrrrrrrrrrii$ooo+#*7taaa7X@r-X",
"oX7,X7++87*@+oooo3q8qrwwiiiiiuurrrrrrrrwrrrrrriirrruiadsw@ +8@XX",
"X+$w@o1+X$7wi:@@X3q8qqrrrruiiurrqeqeerrrrrq8rrrrrqqw87-+Xo$r+X#X",
"X+oo8#X$1+Xo+o O,8wwqrrqwrruiirqqerrrrrrrrq8qreqr$ooXXX@-7a$.77X",
"@o7++u,X@w8&$*:wq8wrrrqwrrraw$oooo$8urqrrq8qrrqwr@X$17ww#X5X@a$X",
"@@o5o#aw+X*rrwwwwqwrrr8qrri*Xo#-<#oX$urrrrqwwrwrr3oXOOoX #-X7a@o",
"o$#o1X,iq*Xo:rurqwwwtrq8rr+X-ruuurq-X+rurrrqqerrrur-#@$#X8++aio@",
"oXrO$$o8o@8#X+$3rrwwrrrqr+o-@oo*-oo@-o+iurrreerrrrruiiu$owo*awX-",
"+ 21orO@- +*7#+@@-rrwwrr$X$X.o@oo+o.X#X*urrrrurrrurruru@O7X7a5.5",
"@ @rX77X7@@Oo-w8oorwrwrqo@oX+o+88+oOXX@oqrrqerruuuuiiua#o1Xwa*Xw",
"@X+uO$a@+1o7$oXoo:rqqqr,o$.Oo.#rw#.oo.$o,urrrrrruuiuuia-X$oqa#oa",
"++Oi@#awX2@@uq:&8rqqqqu*O- @@ $au$ +@ -O*uqerrrruuuuuairoXora@@a",
"X*o-o$aa@@8X7rrrrrurru7X+8XO8+X7,XO3OX8+X8ueruuururruuii7@*iiO$w",
"X7o$.1au:ouo*rruw$#**@X@8a@ @qX@@X8@ @aq@X@**#$ruurriiuiaaaiuo-#",
"+to+orurq#8O*ur-oO@+O@:uaqo+o8X--X8o+o8au,@OO@Oo-uiiaaiiiiiaio@X",
"7i+o8urru#Xo8u@X@#@++#@@#oOro@OuuO@oqOX#@@#+O@$@X@iuiiaiuiaia$ +",
"iiuraurru7@,u7XOoO#$#+#O  +rooo**oooq+  O#+#$#Oo+X8uuuruiiiiai8i",
"riiururrriiuu-.X7urruua-.#7@XX+oo@XX@,#X-auarra8X.<auiruuiaiiaaa",
"iiuuuuurrrrrr,Xo#ooX$urwo#@. @#oo#@ .@$oquu$Xoo$oX3auruuiauiiaaa",
"iiuiuuirrrrrrr@XooXX -ua$ ..#8XOOX8#   #uu- XXooX@uuruiuiaiaiiai",
"iiiuuuuuurrrruw@@+X$Xoru8oX+@OX@@XO@OXo,eqoX$X+@@earuuuuiaiiiiii",
"iiuuiuiuurrru8o+oo$X X3urwq+ XXXXXX +38ee,X X$ooOo8uueruiaaiiiii",
"iiiuiiiurrruroX8o.:-$oo,a7*o@@XXXX@@o*,u<oX#-<.o3Xoqeqeuuiiiuuaa",
"aaiaaiururru# X+X -#$q$X$OO+$.XXXX.#Ooo#X#3$@%.X+o #ueeuiaaiiaia",
"iaasaaiuiuu8XXXXooXX #a,+@+X@Xo@@oX@XO@O,a#.XXooXXXXquuuuisaasaa",
"aaaaaiiiiuur@Xo3rqo.XX+O+2ooXooXXooXoo<OO+XX.owu8oX+raaaaasaiass",
"aaaaaiiiiuu2w@XquuqoXX  .XX+*oX@@Xo%+XX.. XXo3eu3X+r2sssauiiiasa",
"aaiiaauiiiqXowr,3qwo @<Xo+XX8+XeuX+8XXOoX-@ oqq,,qqoXisaaaiiiiia",
"iuuuiiiiiru@ o1OXoX@@o#XXOXXoX ##.XoXXoXX@o@@Xo.o<o #dsssddssiaa",
"iuuiiiiuurre<@ooOX.,u,##@Xoo+X.OO.X+oXX@##:r:XXooo@1iassdddddsss",
"iiiiiiirrrqe1@ooOXX,u,##@Xoo+X.OO.X+ooX@##:t:.Xooo@1risssdssssss",
"iiiuiitrrrq@ o-o.XX@@o#XXOXXoX.## XoXXoXX#o@@XX.o-o #aiiisssssss",
"iiiiiirrwqwXoqq<,q8o #:XXOXXq+XrrXO8XXOoX:# o83<<qqOXtiiisssssss",
"iiiiaiiirri2q+X8rr8oXX.. XX+-oX@@Xo*+XX.. XXo3qe3X+w6iiiiiiiissa",
"iiiiaiiiuriw+Xo3q8o.XXOOO2ooXooXXooXoo2OO+XX.o3q5oX+riiittiaisai",
"iiiiiiiiuri8XXXXooXX #a5+@+X@Xo@@oX#X+@O,a# XXooXXXX8rrriiiuiaii",
"iiiaiiitirrr@ o+X *@$3$X#OO+$.XXXX.$+O+#X$q$@*XX+o @qqrirriiiaii",
"iaiiiiiuurrwwoX8o.&*$oo3a3*o#@XXXX@@o*7a,oX$*&.o8Xowrrurrrriisii",
"uiirirrtirrru8o@oo$X.X7uuq8@ XXXXXX +wqui3X.X#oo+o8rurrurrrriasa",
"iiurrwrtwwqrruq@@+X$Xoru7oX+@+X@@XO@+Xo7eroX#X++@8rrrrrurrrriiaa",
"aiiurirrrwwrrw@XooXX *ru$ ..#8X+O.3#.. $ar- XXooX@qwwwrwqqriiaii",
"iaururrwrirru,Xo#ooX#q87o$@. @@OO#@ .@$oqqr#Xoo#oX:qwrrqqrruiiii",
"iaurr88rrrrqu-.X7rqqueu*X#7@XX+oo@XX@3#X*uerrwr,X.-r8qqrwrrurrtr",
"i7rur8wirwwwr7XOoO@##+@O  +rooo*-ooor+  O#+##@oXOX,qwrwrurrrurru",
"+ $airrruuwqqr@X+#@++#+@#XOqo@Oaa+#or+X#@+#+O+#+X@qq*o,rtirr88ri",
"X@oqwrrqrrwrwwr*oo@OO@<uu8oOo8X-1Xqo+o8ee:@OO+oo%qq:Xo#irra2XOr-",
"@*o88rrrrrrrq8qq3$#*$@X@8e@ @w.##.w@ @u3@X@$$@#3q8q$o3@8irwo@ow+",
",#o8q*@:8qqwq788qrrrrr3X+3Xo7O.,3.+8OX8+X8awrrq833q$owo-ru- #o7X",
"8++r8oXX3q8rw8q88qqqqqe%o* @+ #eu$ +@ *+*irq8888qqq,X,@@rr#O1o#X",
"8o@rro$X*q8qwq88qqqqqwq<o$.OoX@8e#.OO $o,ueq8qw<$$,r@+,X7u@@rooO",
"7X*u8X-o@q8qqwq8q8qrqrrro@oXOoO33+o+Xo@oqrq88r*oOoX@,o1@+u$ou+X@",
"<.:r,X:o@r8wqwqq88qrruru*X#X.o@oo@oXX#X$eqq8qroo8r,+o@+8X,7X8# @",
"*X7u*X7o#uqrrq3q83qrrrwru+o-@oo-%oo@*o+qq8qeqr:@@o@,-@ $#oqo*: +",
"@oqr++7X@#@@-838888rrrrrueOX-ruaauq*X+qeq8qqqwru7*@X@8$o8o@$o8oo",
"o@a7X*@ XoooXo:q388qrrrreee$Xo$12#oX$qqqqw8qqwrq8rr,+X#qu7X-o@*X",
".*d@X:X@37:*#X+q838qqrureeeuq$oooO*wuqqqrqqqwqrqrrria,oo,u*X:o+@",
"X,7.#i7*+XXXoo#q88qqrrureqeruauiiadueqreeqqqrqruw*#@*7w@X*i@o7O+",
"X@X+w$oX+*,7888qqwerrrureruruiausaue0eerqqqqrra2o.o@oXo$*X@q+o+X",
"XX@8+.#8rrrrrq8q8qriurrrrurrruuriuueeqeuerwqrr8X@$-rrq-oo,o+w-+X",
"X1i+X,iiw7,*@+ooo#rirrrrrruurueuiauuueqrrrrqirwOoooo+#,r@o8o::Xo",
"o75X@:$@oX.Xo+#*+ 7ar8wqquiuuieueaauueuurrrqrrraw,$+X  o-+O++XXX",
"+oXXX..o@-,8wr8$Xorrr8qwriuiuireeeaueerurrrrrrr-+Xo+@@+oX@@XXXXX"
};
