/* XPM */
static char *_e3a22b59e53433493ee22b502363005[] = {
/* columns rows colors chars-per-pixel */
"32 32 73 1 ",
"  c black",
". c #040202",
"X c #0A0505",
"o c #0C0606",
"O c #0F0808",
"+ c #100707",
"@ c #120909",
"# c #140A0A",
"$ c #190C0C",
"% c #1F0F0F",
"& c #260A0A",
"* c #200E0E",
"= c #290909",
"- c #2F0F0F",
"; c #350F0F",
": c #261313",
"> c #361010",
", c #3A1212",
"< c #3D1616",
"1 c #272727",
"2 c #353535",
"3 c #393939",
"4 c gray24",
"5 c #5D2121",
"6 c #5A2626",
"7 c #652727",
"8 c #682E2E",
"9 c gray25",
"0 c gray27",
"q c #4B4B4B",
"w c #4C4A4A",
"e c gray30",
"r c #535353",
"t c gray34",
"y c #585757",
"u c #585858",
"i c gray37",
"p c #784343",
"a c #7C4545",
"s c gray38",
"d c gray39",
"f c gray40",
"g c gray42",
"h c #6D6D6D",
"j c #717171",
"k c gray45",
"l c gray46",
"z c gray48",
"x c gray50",
"c c #912E2E",
"v c #9F3131",
"b c #854646",
"n c #B04848",
"m c #B05252",
"M c #DC7878",
"N c #808080",
"B c #848484",
"V c #888888",
"C c #8D8D8D",
"Z c gray57",
"A c gray58",
"S c gray60",
"D c gray61",
"F c #A0A0A0",
"G c #A7A7A7",
"H c gray66",
"J c #ACACAC",
"K c gray69",
"L c #B4B4B4",
"P c #BBBBBB",
"I c #DB8282",
"U c #EFAEAE",
"Y c #EBB0B0",
/* pixels */
"gNCCrfzjjselNACuSAVSAhjjxNfjNNVj",
"iNVCfglzBAqflBzrZAZPJqlVVBzBAFHN",
"0fgjruuuBxrxsguqfjDLKszBBNBFxFZz",
"0ufsqsfitirzljtqhfVVCifNxBBzhNzV",
"rueritutttrtiiresssshqesglfNAzgf",
"h0lNBVNqjxhuruufNxeuhhjtqjgssjif",
"jqsfZDNuGCCABsCFFGssDAfsiNjFsgjh",
"t0NsflfrxsgCNrVZCNrfBKZtrVCxuSHZ",
"e9giiutesiuxjqerjsrjNFNttgBgtjjj",
"qguruiueiututqifsiuiuhgfeusfrfft",
"irte0riurrrrfgigirjzzzeilgljxlrB",
"lsltujBjjglsBzizzrjisZrhDJJZhfrh",
"hrfrzzzZsfuxzBNlxijhsf9VCZZZZi0s",
"iisfgNNzlxsZVBhZNtfuhh0uisgVSgel",
"thsljgNCzhqhzrisNqihjf9rtfsgsffl",
"rer04uiuuueuffret0qqseqeiughjgjh",
"gggjhguisuurtjttillfszgNllshzlij",
"fDAZFCrBjlg0jSNuijABjzVDDguxVGVB",
"rVzhxxihANtuCVCgugBNjAHZBssfzBjh",
"rhZhffeixxiqeirrgtqetNVsstiflfts",
"iggfhstgffi0q49094449ruisisiissg",
"jjufNxNiiVCly         ittlhlgjul",
"ZBsGDDGNuCNj......... frxBzBDNgD",
"CNgVNfBgsZBs XXXoXXX  ieACACBzsZ",
"VhuNBzuewtq2 XOooooo  3fAZZAlhtj",
"siqlfe  ..  .@@@###@. 13sgZNAfii",
"Blhfr9  .Xoo%p<$$$:b;    9sfhisr",
"SFCBsr  .Xo@aYm>%%bUn=.  eFAZDZA",
"VZAZVq  .Xo@7Mv>%%8Ic&o  rAGZSDS",
"jxVZVq ..Xo@*5,*%%:6-#o  0lNxxBB",
"jfgsse  .Xo@#$$$$$$$#@o  6fsjxlC",
"shiuu3  .Xoo@#$$$$$$#+X  3tfshsx"
};
