/* XPM */
static char *_ff5fae642a649348e1e83696c9c8e98[] = {
/* columns rows colors chars-per-pixel */
"64 64 105 2 ",
"   c #1A0505",
".  c #1D0907",
"X  c #1C0609",
"o  c #1E0A0A",
"O  c #220A06",
"+  c #290E07",
"@  c #250C0A",
"#  c #2A0E0B",
"$  c #24110B",
"%  c #2C110D",
"&  c #32140E",
"*  c #3A160E",
"=  c #3B190F",
"-  c #2D1310",
";  c #331511",
":  c #391712",
">  c #361912",
",  c #3C1B13",
"<  c #3D2018",
"1  c #431E15",
"2  c #491E15",
"3  c #461F18",
"4  c #452116",
"5  c #4B2216",
"6  c #452219",
"7  c #4C241A",
"8  c #4C2A1C",
"9  c #522617",
"0  c #542917",
"q  c #582917",
"w  c #52261A",
"e  c #58261B",
"r  c #542A1C",
"t  c #5B2D1D",
"y  c #56311F",
"u  c #5E311E",
"i  c #622E1D",
"p  c #60301C",
"a  c #61301F",
"s  c #66331E",
"d  c #63351E",
"f  c #64341E",
"g  c #6A331F",
"h  c #68361F",
"j  c #6D371F",
"k  c #6E381E",
"l  c #72351F",
"z  c #542D21",
"x  c #5D2F20",
"c  c #5C2E21",
"v  c #5B3220",
"b  c #5C3120",
"n  c #5E3020",
"m  c #5D3222",
"M  c #5E3322",
"N  c #5F3421",
"B  c #622F20",
"V  c #613021",
"C  c #613222",
"Z  c #663320",
"A  c #613421",
"S  c #673421",
"D  c #643523",
"F  c #673723",
"G  c #663524",
"H  c #693120",
"J  c #6B3722",
"K  c #6C3521",
"L  c #6D3622",
"P  c #683524",
"I  c #633825",
"U  c #663825",
"Y  c #693923",
"T  c #6C3A21",
"R  c #693827",
"E  c #693A26",
"W  c #6F3824",
"Q  c #6C3926",
"!  c #6F3B26",
"~  c #653728",
"^  c #6B3B29",
"/  c #713723",
"(  c #703925",
")  c #713A25",
"_  c #733B25",
"`  c #723B26",
"'  c #743927",
"]  c #793D26",
"[  c #743B28",
"{  c #743E29",
"}  c #7A3F2A",
"|  c #774127",
" . c #794027",
".. c #75412A",
"X. c #7B422A",
"o. c #7B422E",
"O. c #7E492D",
"+. c #7D4931",
"@. c #834127",
"#. c #82452C",
"$. c #82492E",
"%. c #8B4A2E",
"&. c #834A32",
"*. c #8A4D31",
"=. c #8B5034",
/* pixels */
"; , 1 , 1 w 7 1 0 9 q 9 & % 5 5 V S 5 s i 0 5 t r @ 1 ( ( f V A J ' T a Z t : : j t r r 8 8 a P P d > , i w 8 w u n I t n n 8 8 ",
"& 5 7 5 7 V r 5 H i L J , # 2 5 n a 5 S t 0 5 q 5 # 1 ( Q u t n J [ Q V s t & , L t r r 7 8 V R J S > , t w 7 w t n U x n N 8 8 ",
"% 4 7 6 5 q 9 6 i i s i : # 2 7 t n 7 t t w 5 r 7 @ , Q R n t t s [ V u f q % > J t q t 8 r A ( G Y , , i w 8 w t n R x n A r 8 ",
"- 1 7 7 w t w 6 t q Z a : # 1 7 t t w t q 5 2 7 r % , S G n t u h Q V t s q % ; J V t t w t R X.( T 1 , n w w r t n R x V S t 8 ",
"% 6 5 5 t s w 6 t q s i : % 2 w t w w t r 5 5 5 7 $ > V G n t V g T n t Z r ; % q t r 5 6 6 w x V 8 # 1 t 8 w r u n R t V U n 8 ",
"% 6 4 5 t h w 5 a J T i : % 2 7 r 5 9 a r 5 5 5 5 # > N S n t u L Q u t a r , O ; ; : : ; > : , 5 , # 2 t w 0 r t V R n V S n 8 ",
"% 6 5 7 t J r 7 h L L i & % 7 9 0 7 r i r 7 5 5 6 @ < U S n t V L ( n r a t : > V t t r r A P { Q R , , t w w r t a R n n S n r ",
"% 6 4 7 t T r 5 s L / a & % r q 0 7 q a 0 5 5 5 6 @ 6 R S A t a L ( G t a e ; : ( L s r t R Q } ( ( : , n w w r t t Q n V S n 8 ",
"% 4 6 5 t T i w s J ( s & & r r w 5 t a w 5 5 7 5 @ 6 Q S A t S L } Y t V r ; & / H a r x G R Q ( Q @ , n r 0 r t t Q V n f u 8 ",
"% 4 6 5 t ( s w s J ( s & & q r w 7 r a w 5 5 7 5 @ 6 ( J A t a L ' J q a r > ; L J a w z S Y P ..w   6 n r r r q t ( V n d u r ",
"% 4 7 7 u ( H w s J ' g & & t r w 7 q t w 5 5 5 5 @ 4 Q J S t a T ( G t s q ; & T T s 8 r S Z P X., . 7 n z r r q i ( V 7 t N r ",
"% 6 5 7 f ( Z r J s ( J & & q r w 7 q u w 5 7 7 5 @ 6 Q J Q t A ( ( S t a t - % T L s 8 r S V ..Q % % 6 n z w r t i ( V 2 r N r ",
"% 6 5 r J ( Z t T t P L & ; t r r 7 q a w 5 w w 5 # 4 ..L Q A S ( } S t L t # % ( H u w z G A Q 6 : , 1 n r w w q i ( V 5 r u r ",
"% 6 w t J ( Z t ( q Z L & ; r r 0 7 t a w 5 w w 5 @ 6 Q s { J R T T V r t 1 . % L J V w z U { n 1 V 2 , n r 8 w q i } V 5 r d r ",
"% 7 n u Z ( s t ( q B ( : - r r 0 7 t a r w t w 7 - @ : ; > > ; % & ; % O o X & L L s 7 r R V 7 V X.1 : y r w w q Z ..Z 5 r a r ",
"% 7 a u Z L ( G L r a ' : ; t r 0 7 t a r r n w 6 $ , n 5 6 6 7 r 5 : 7 w 5 # ; L L s w w S 5 t ( Q : = z w w 7 q Z } Z 5 r a 8 ",
"# 7 B i A Q ( P i r t ] 1 - t q w 7 q u r w n r 2 $ 7 Q V t t Q ] S 1 t ( t & ; J ( J t z r r G Q Q , > z 7 5 w t t Q V 5 r a 8 ",
"% 7 Z u n Q ] h t 5 t @.6 % t q w 5 q u 0 t R t 6 $ 6 R t 9 w A h S 6 t L q & & S / L t z V u A Q { : > w 8 w w 5 t ( B w w a 8 ",
"% 7 t t S } X.J t 2 V @.5 % t q w w q u r t Q Z w @ 6 U a q w S S s 2 r J t % % s / L t 8 R A V { { , & r r 7 ; = J ( Z r w V 8 ",
"% 5 w 5 P X.| S t 2 t @.6 % t q w 7 r u r t { { Z % 4 a t n r V G a 5 q h u & & S L L t r R A A ( ( , ; 7 7 & ; t L T R r w Z r ",
"% 5 w 1 n X.( t t 2 r @.2 % t q w w t u q u } } Y % , x r t t A V t r t h s & ; J ( L t r U A S ( } 1 - ; % ; w i g Q J r w s r ",
"% 7 w : r o.P q r 1 r X.6 % t r w 9 t u t A { } S % , x 7 r r A n w w t H H & ; f ( T t r R S S Q ( 6 o % 2 w r B / ( J r w f r ",
"% 7 0 = 7 ..S x x 2 w X.5 & t r w w t u t V { } S & , x 7 G x V t w 7 t J Q & % s T j u r U S R Q { , o , t w w h ( ( J r e a r ",
"$ 7 t 1 t &.{ 9 5 5 w #.w % u r w r t u t V { } S ; , t 7 Q V n n w 6 t L J - & a ( L a r R S S ( ( : @ 5 t w w k ( } S t 0 V r ",
"$ 6 5 : , 6 ; - % # 2 J 1 & i t t q t V t a { ..G & , r 7 Q t u t 7 6 r J A & 1 S / T u z R d x ( ( : @ 5 B w w J ( ..Z Z q V r ",
"# & # # % # % ; $ o . X   , a t r q t t t A { X.J & , t 7 S n A t 7 6 r f V & 1 S L L a r S V x ( ( : @ w i w w J ( | Z Z t V r ",
"- 9 t t R ..X.V t V Z S : & t q q q t V t a ( X.J & , r 7 R S S q 7 2 t J V & 1 s T L a y U n t ( ( : % t i w w Z ( | Z Z S V r ",
"% t Y S U Q } S n Q X.%.w % i t q q r V t t { X.Y & , r 8 R A A t 7 1 t S V & 1 H J L a t U n t ( ( ; % t i w w Z ( X.Z Z P a r ",
"% r u t G Q Q n n U ( X.5 & t r r r 5 u Q Q ( ..T ; , r w T V N t 7 2 t s u ; , Z L L a t S n t ( Q % % t t w 8 s ' X.Z Z H V r ",
"# 7 u r S Q { n x S ( #.5 & t q r 5 7 r t Q $.#./ & , t r J V A q 7 1 t a u ; , S L / a t U u r } H % & t x w w s ( X.Z S J V r ",
"# 6 t t U Q { t t S { #.7 % t t r 7 5 t r 7 R X.{ > 1 t 7 J t u t 5 1 q a n ; , S L L A t I w r X.H # & t t w w s ' X.Z Z J V 8 ",
"# 6 t t U ..{ n V G { #.7 % t r r 5 5 V S t t x r % 6 t 8 V t t t 7 4 r a u ; , f T L a u t & e X.Z # & V x r 7 a ( X.Z a J V 8 ",
"# 4 w t U { { B n G } X.5 % r w w 5 6 V a A } ] i % 6 t 8 V t t t 7 8 t t x ; , s L J s t x ; 5  .S & % a Y t w t ( X.( L S n 8 ",
"# 4 5 r U ..} t x S } #.7 % r w w 6 6 a s V } &.} & 6 n 7 V t t q 7 x S t u & , J / / H z n & 5 O.P ; % S R t 7 t ( | X.( a n 8 ",
"# 1 6 w U ..} t t Z } X.5 % 0 w 7 2 6 a a V Q ..Q & 6 n 7 a q r r 7 w n t t & 1 H ( ( Y n S ; % J } ; % Y Q B 5 t (  .X.( a n 8 ",
"% 1 , w R ..} q t S ( } 6 # w 5 w 2 6 a a n J J H ; 6 n 7 V r t t 7 8 u u t ; 2 ( ( T t r n :   t %.1 # J Q t w t ( X.X.( f n 8 ",
"@ 1 , 7 R ..} r t Z J g , % w 7 w 2 2 V a t J R P & 6 n 7 V q t V 5 w t t V ; $ : ; # # - ; > # & 2 % ; Q Q n w t ( X.X.( f n 8 ",
"# 6 6 w Y } } w r V V i , # 5 7 w 1 2 V a t Y S V > 6 n r u q t S 7 w t n n ; $ 1 5 r w , > , 5 8 ;   ; ( T n 7 B X.#.X.} J u 8 ",
"@ 6 w t Y } } r r V V t , @ 5 5 w 1 1 V a t T u r > , n r t r t R r z t t t % , ( ] ] L t z t / @.} # @ J ( a w t } #.X.X.T t 8 ",
"# 6 w q S } } r r t x t , @ 2 5 w 1 2 S a t J V r & < n t u w t Q r z a t u & , J ( j Z w 5 9 a X.( % @ Z { V w t ..#.X.X.Y t 8 ",
"@ 6 7 q G } ( r 5 8 r i 1 @ 6 7 w 1 6 J Z u T P r ; , S A u r x Q r n V t t - , h ( J s 7 6 7 Z X.Q # # T ( S w a P ..#.X.J r 8 ",
"@ 6 7 q G } } t 5 5 0 a 1 @ 2 w r 1 6 S s u Q S 7 % , G A t r t ..t n V t t % , J ( g s 7 6 9 s } ( % ; T ( V w B V ( #.X.J r 8 ",
"@ 6 7 q S } ' t 7 w r g 1 @ 2 5 7 1 6 S s x S t 7 % , U G t t A o.t n V t t % , L T g s 7 6 9 H } / % ; L { V w V n { #.X.J r 8 ",
"@ 1 w t Y T J n r w r g 2 @ 1 7 7 , 2 Y s n J t 7 % , U G n S R O.t n V t n & , Q T g s 8 6 7 J } Q % ; J } S w t x ..#.X.J r 8 ",
"@ 1 7 t J J t t t q w H 2 @ 1 6 7 , 5 T s t J t 5 # , U S A Q Y O.t n V t n % 1 ( L g a 7 6 7 Z X.T % ; J } V w t t ..#.X.J w 8 ",
"@ , 5 t R G 5 r d t t s 1 # 2 1 9 1 9 ( J J ( V w % , U J d Q Q +.t n V t n % 1 ( L g i 7 6 7 H X.Q % & S { V 7 t t } #...J 8 8 ",
"# , , 8 S S 5 V t r t L 2 @ 1 6 6 ; = 1 1 6 7 6 , @ , R T u Q ( O.t S V t V & 1 ' J i t 7 5 7 H X.Q % * V { n 7 t t } X.X.J 8 8 ",
"# , , 7 S i w a x r s / 5 X % % O . o X X O o @ O X 1 Q T N { ..O.u R A t V & 1 ( a q w 6 5 7 Z | Y # : S ( n w n t } X.X.s 8 8 ",
"@ , , 7 Z i 9 t r t L ] 5 @ 1 2 : 1 7 n 0 7 r 5 1 @ , Q Q n { ..+.n R V t V % 1 ( a w w 5 7 w Z X.Y # 5 ] Q t 0 V t } X. .V 8 8 ",
"@ 1 1 7 J B 9 t r t J ] 6 O 5 w 5 9 t { t 0 t w 1 @ , Q Q a ..X.O.t S a t V % 1 ( V w w 7 7 w Z } J # w X.Q t r V t } X.X.V 8 8 ",
"# 1 1 0 J t r t r r i g , @ 5 w 6 5 9 J t 7 V t 1 O , ( ( a { X.&.n R V t n ; 1 ( V w w 7 7 w i T V # w } Q t r V r { X...A 8 8 ",
"# 1 4 7 Z t r s t w s H ; @ 6 w 5 8 5 J t 7 L Z 1 O , ( ( S ( X.$.V U t t u & 5 ] a w w 7 7 r t s t # r X.T r t N 7 ( X.| A r 8 ",
"# , 4 5 Z t r ( a r i L : @ 6 9 0 r 5 f r 7 Q V 2 @ 1 Q ( S { X.&.S t t u u & 5 ] s w w 7 7 r i B t # r  .Q r x V 5 Q X.( S t 8 ",
"# 1 2 5 V i s ( a r a L , @ 5 t q r 7 L t w Q V 2 @ 1 ( ( J { X.*.J r q a n & 5 ] a w w 7 7 r i s t # r X.J r t S 7 T X...A t 8 ",
"@ 1 2 5 Z L } ( a t B L 1 @ 5 t t r 5 L L q L S 2 @ 4 ( ( Q ..$.=.Q t t a V & 5 ( a r w 7 7 r i s q + r X.Q r n S 6 Q &.o.Y n 8 ",
"# 1 2 7 a L ] Q i t i l 1 @ 5 r t r 5 J Q q g G 5 @ 6 ( ( Q ..$.=.( t t S V & 5 ( a r w 7 7 r i g t % 6 i q 7 r , . 7 t t 7 1 < ",
"# 1 4 9 t i  .] a q i l 2 @ w t t 0 w f L t t i 5 @ 1 ( } ( | X.=.X.a g Q V - 5 ( a r w 5 7 r t s t % : 1 > % : > : , > # & & ; ",
"@ 1 1 5 t B ( ( i t B / 2 @ 5 Z t r 9 s i t t i w # 6 ' ' ( ( X.%.X.V Z J V % 5 Q t r w 7 7 q i Z t # 0 ' a 7 z f R { R : w n 8 ",
"@ 1 1 2 q a J s Z q i L 1 @ w a Z t w s i i t i e # 3 } } { ( Q *.X.a S ( t & : Z V r w 7 7 t i H t # 7 T V t t a A Q S % w n 8 ",
"# 6 1 7 r s s n g t i g 2 @ 5 t s t 0 s i i q i t # 2 } ( { ( Q *.X.s s ( u 6 & t n t w 8 8 t i s t # 5 Z t w r n u Q V ; x n 5 ",
"$ 6 6 5 r s i t j t a Z 2 # 5 w a t 0 s i t q L t % 6 { ( Q J Q #.} h a ( t 6 : h t t w 8 8 t Z J n % 6 s q 7 r n N U S , t v 8 ",
"% : 5 w r s Z t ( i g Z : # 2 6 S V w s i q 0 L Z % 1 ( } J a S ( ( Q t L t , : ( t t r 7 7 a Q Q t - 6 s r 7 w u N R Y 6 8 z 8 ",
"% % & 1 1 t w , t t a 5 # - 5 6 S J 5 s i 0 5 s J % 1 ( ' S n a Q ( Q a L t ; = L t q r 8 7 V Q Q a ; 2 Z r 7 w N u S Y ~ t 8 8 ",
"# o o O o $ @ o @ # % o @ ; 5 5 V J 5 S B 9 5 t s # , ( ' S V S T ' Q d H t ; * ( t r r 8 8 V Q R a : 1 Z r 7 w n n S U ^ u 8 8 "
};
