/* XPM */
static char *e4f1b9c63b0142a59427b4947a9b781b[] = {
/* columns rows colors chars-per-pixel */
"32 32 7 1 ",
"  c None",
". c #3C72FF",
"X c #4478FF",
"o c #477BFF",
"O c #5A8AFF",
"+ c #5F8BFF",
"@ c #7B9EFF",
/* pixels */
"++XXXXXX................XXXXXX++",
"+@++OOO                  OOO++@+",
"X+X                          X+X",
"X+                            +X",
"XO                            OX",
"XO                            OX",
"XO                            OX",
"X                              X",
".                              .",
".                              .",
".                              .",
".                              .",
".                              .",
".                              .",
".                              .",
".                              .",
".                              .",
".                              .",
".                              .",
".                              .",
".                              .",
".                              .",
".                              .",
".                              .",
"X                              X",
"XO                            OX",
"XO                            OX",
"XO                            OX",
"X+                            +X",
"X+X                          X+X",
"+@++OOO                  OOO++@+",
"++XXXXXX................XXXXXX++"
};
