/* XPM */
static char *eb2f52a9a76244dbba1d25d32e1f1870[] = {
/* columns rows colors chars-per-pixel */
"32 32 11 1 ",
"  c black",
". c #000400",
"X c gray2",
"o c gray4",
"O c #0B0D0B",
"+ c #101010",
"@ c #161616",
"# c #212021",
"$ c #292829",
"% c #393839",
"& c white",
/* pixels */
"&&&&&&&&&&&&&&&&&&&&&&&&&&&&&&&&",
"&%%%$$$$################$$$$%%%&",
"&%%%$$$$################$$$$%%%&",
"&%%%$$$$################$$$$%%%&",
"&$$$#@@O++++++++++++++++O@@#$$$&",
"&$$$@@OOooooooooooooooooOO@@$$$&",
"&$$$@OO.XXXXXXXXXXXXXXXX.OO@$$$&",
"&$$$OO..                ..OO$$$&",
"&###+oX                  Xo+###&",
"&###+oX                  Xo+###&",
"&###+oX                  Xo+###&",
"&###+oX                  Xo+###&",
"&###+oX                  Xo+###&",
"&###+oX                  Xo+###&",
"&###+oX                  Xo+###&",
"&###+oX                  Xo+###&",
"&###+oX                  Xo+###&",
"&###+oX                  Xo+###&",
"&###+oX                  Xo+###&",
"&###+oX                  Xo+###&",
"&###+oX                  Xo+###&",
"&###+oX                  Xo+###&",
"&###+oX                  Xo+###&",
"&###+oX                  Xo+###&",
"&$$$OO..                ..OO$$$&",
"&$$$@OO.XXXXXXXXXXXXXXXX.OO@$$$&",
"&$$$@@OOooooooooooooooooOO@@$$$&",
"&$$$#@@O++++++++++++++++O@@#$$$&",
"&%%%$$$$################$$$$%%%&",
"&%%%$$$$################$$$$%%%&",
"&%%%$$$$################$$$$%%%&",
"&&&&&&&&&&&&&&&&&&&&&&&&&&&&&&&&"
};
