/* XPM */
static char *_b56254b39564a9ca4bd0bf6f4dfee77[] = {
/* columns rows colors chars-per-pixel */
"32 32 4 1 ",
"  c None",
". c #DEDBDE",
"X c gainsboro",
"o c #E7E7E7",
/* pixels */
"ooXX........................XXoo",
"o                              o",
"X                              X",
"X                              X",
".                              .",
".                              .",
".                              .",
".                              .",
".                              .",
".                              .",
".                              .",
".                              .",
".                              .",
".                              .",
".                              .",
".                              .",
".                              .",
".                              .",
".                              .",
".                              .",
".                              .",
".                              .",
".                              .",
".                              .",
".                              .",
".                              .",
".                              .",
".                              .",
"X                              X",
"X                              X",
"o                              o",
"ooXX........................XXoo"
};
