/* XPM */
static char *e031403bf635423485ef31d70df12fd5[] = {
/* columns rows colors chars-per-pixel */
"32 32 7 1 ",
"  c None",
". c #FF3F3C",
"X c #FF4544",
"o c #FF4A47",
"O c #FF5D5A",
"+ c #FF5F5F",
"@ c #FF797B",
/* pixels */
"++XXoooo................ooooXX++",
"+@++OOO                  OOO++@+",
"X+X                          X+X",
"X+                            +X",
"oO                            Oo",
"oO                            Oo",
"oO                            Oo",
"o                              o",
".                              .",
".                              .",
".                              .",
".                              .",
".                              .",
".                              .",
".                              .",
".                              .",
".                              .",
".                              .",
".                              .",
".                              .",
".                              .",
".                              .",
".                              .",
".                              .",
"o                              o",
"oO                            Oo",
"oO                            Oo",
"oO                            Oo",
"X+                            +X",
"X+X                          X+X",
"+@++OOO                  OOO++@+",
"++XXoooo................ooooXX++"
};
