/* XPM */
static char *_0d3184aff5b42b5ab37cfdf46a6173f[] = {
/* columns rows colors chars-per-pixel */
"64 64 179 2 ",
"   c #3E2712",
".  c #3E2814",
"X  c #3F2B1B",
"o  c #412B16",
"O  c #442E1A",
"+  c #47311D",
"@  c #48321E",
"#  c #432C22",
"$  c #463223",
"%  c #4B3523",
"&  c #4E3826",
"*  c #46342C",
"=  c #4A352B",
"-  c #4E392B",
";  c #513A26",
":  c #533D2B",
">  c #493730",
",  c #4D3B32",
"<  c #523E33",
"1  c #584127",
"2  c #56402E",
"3  c #59422E",
"4  c #564133",
"5  c #5B4534",
"6  c #5E4837",
"7  c #55433A",
"8  c #5B463A",
"9  c #57493F",
"0  c #5E493B",
"q  c #604737",
"w  c #624A36",
"e  c #624C3C",
"r  c #684F3F",
"t  c #66513E",
"y  c #6A513E",
"u  c #5A4740",
"i  c #574941",
"p  c #5D4C42",
"a  c #5F5046",
"s  c #5F5148",
"d  c #634E42",
"f  c #665143",
"g  c #6A5444",
"h  c #6D5847",
"j  c #64534A",
"k  c #6B564A",
"l  c #67584E",
"z  c #6D594C",
"x  c #705644",
"c  c #765D46",
"v  c #725C4D",
"b  c #795E4D",
"n  c #665952",
"m  c #6D5C53",
"M  c #6C5F59",
"N  c #735E52",
"B  c #785F50",
"V  c #715F59",
"C  c #76604F",
"Z  c #7C634F",
"A  c #6E615A",
"S  c #756154",
"D  c #7A6455",
"F  c #7E6857",
"G  c #74635A",
"H  c #7B665A",
"J  c #7D695C",
"K  c #746660",
"L  c #766861",
"P  c #7C6B63",
"I  c #7F6E68",
"U  c #7D716A",
"Y  c #806355",
"T  c #806A56",
"R  c #81675A",
"E  c #826C5D",
"W  c #8A6C5E",
"Q  c #86705F",
"!  c #826E63",
"~  c #8A6F62",
"^  c #836F68",
"/  c #857264",
"(  c #8A7465",
")  c #85736B",
"_  c #8A756B",
"`  c #8D796C",
"'  c #917565",
"]  c #91766C",
"[  c #927B6D",
"{  c #847671",
"}  c #8A7671",
"|  c #867A73",
" . c #8D7B72",
".. c #8D7F7A",
"X. c #927D73",
"o. c #987E74",
"O. c #917E79",
"+. c #8F8173",
"@. c #8F827A",
"#. c #948275",
"$. c #998476",
"%. c #95847B",
"&. c #9B867B",
"*. c #97897D",
"=. c #9C8A7C",
"-. c #A58475",
";. c #A0877A",
":. c #A18B7E",
">. c #978B83",
",. c #9D8C82",
"<. c #9C8E88",
"1. c #9F9084",
"2. c #9E9289",
"3. c #A28D83",
"4. c #AA8E80",
"5. c #A39285",
"6. c #A99286",
"7. c #A4948A",
"8. c #AA958A",
"9. c #A6988C",
"0. c #AB9A8C",
"q. c #B29B8E",
"w. c #B89C8D",
"e. c #A69A92",
"r. c #AC9C92",
"t. c #AE9F98",
"y. c #B29E92",
"u. c #AEA095",
"i. c #AEA29A",
"p. c #B3A195",
"a. c #B9A395",
"s. c #B2A59B",
"d. c #B6A69A",
"f. c #B3A59C",
"g. c #B4A79C",
"h. c #B7A69C",
"j. c #B8A399",
"k. c #B8A69A",
"l. c #B7A99E",
"z. c #BAAA9E",
"x. c #B6ABA2",
"c. c #BBAAA0",
"v. c #B9ADA2",
"b. c #BCADA3",
"n. c #BDB1A5",
"m. c #BDB1A6",
"M. c #BEB3AA",
"N. c #BFB8B0",
"B. c #C1AB9C",
"V. c #D4B39F",
"C. c #C1AFA5",
"Z. c #C3B2A5",
"A. c #C1B2A6",
"S. c #CBB6A5",
"D. c #C2B4A9",
"F. c #C3B5AA",
"G. c #C4B7AD",
"H. c #C8B7AA",
"J. c #C4B9AE",
"K. c #C6B9AE",
"L. c #CABAAD",
"P. c #C2B7B1",
"I. c #C4BBB3",
"U. c #C9BDB2",
"Y. c #CABDB3",
"T. c #CCBEB4",
"R. c #C7BFB8",
"E. c #CDC1B6",
"W. c #CDC2B7",
"Q. c #C7C1BA",
"!. c #CDC3BA",
"~. c #D3C6BA",
"^. c #D0C6BC",
"/. c #D5C8BD",
"(. c #D5C9BD",
"). c #CCC7C0",
"_. c #D4CAC1",
"`. c #D9CDC1",
"'. c #DAD3CB",
/* pixels */
"3.8 H m.U.%.; 7.^.l.: ! U.g.K./ & / 0.:.f % 0.(.~.,.$ & S z _ d.e 4 % $ z #.6 % % S _ ! J - - H 0 j  .z 5.K./ 5 : e j 4 - %.b.b.",
"5.P %.W.W.9.: 5.v.*.0 k r.,.A.m.2 + G D + S r.d.b.` $ % v &.j.b.p.5.F 5 _ s.E $ + % 4 8 f $ ! D.D J u.f H m.e.) G v.r.%...%.s.) ",
"d 8 P f.s.) u j 0 7 - + z ` 7.7.; = j 8 $ e H N h 8 % o + e X.7.z.k.8.G m z ; $ < f z 7 = O l ) : e %.d 5 S f n ,.U.g.G.l.7 p = ",
"< - = 8 p 7 = 7 u j 9 O O & : 5 : / r.j O   & e z ` X.` X.&.S 0 _ 3.z < < = $ d X.p.8.%.H p = j d 2 0 < = = , p | s.) ) H 7 = - ",
"- O o - < , 7 j [ 3.L 7 o . f ,.r.b.D.8 O 6 F :.q.y.q.y.k.T.c.f 6 p O o # < ! 8.z.A.D.d.=.) 8 = d d - , 9 n #.8.^ j j u 7 7 = = ",
"O o < p p a H :.q.q.q.) i . 2 D.D.P z & H &.6.8.8.8.a.A.L.T.H.X.6 $ O 8 z $.p.z.A.D.G.I.v.#.J $ + = $ 9 J 8.W.b.&._ P S m j - + ",
"o : z z N ! 3.p.0.0.k.K.i.n X S r.m = v $.&.:.6.p.H.L.S.S.S.H.3.z o + H &.q.k.D.G.D.D.M.D.r.) z O o = L 7.!.b.d.y.8.6.&.o.O.- o ",
"o f ( _ 3.d.y.0.p.b.D.W.`.g.d = n p 0 _ &.&.6.a.B.B.B.B.H.H.y.&.m o % ` 3.q.D.K.D.A.D.m.b.p.X./ < o 8 ) M.v.) ` r.d.g. .H &.z o ",
"o g ` 3.p.v.D.b.z.b.j.8.C.c.J 7 $ O k X.3.&.:.8.B.D.a.z.7.5.y.o.S o : &.3.a.!.^.U.D.I.K.K.H.y.X.4 . 0 _ f.G 9 j #.k.9.j 7 G ) = ",
"o f %.&.E ( s.y.6.6._ z E *.P 8 O o j :.` t x F 3.y.$.W g e _ 3.G $ 5 $.6.D.K.v.U.D.k.,.G  .=.#.z - f ,.) 8 9 = J D.z.8 l l / 7 ",
"o j I f < k &.a.q.o.j 7 f D ) p O o k $.6 ; ; 5 [ a.:.f 1 ; r [ J , f ( #.=.z 0 m r.:.e : 4 z X.! l @.e.N z 7 , ! b.u./ 7 - J G ",
"O p d 4 > p b.g.x.z.) < e D / j o o e / 8 2 ; % %.`.&.= ; 1 e _ ` 7 f ! E g 0 8 6 =.g.0 - 8 P =.J A e.I.) } *.,.r.*.j s.) m 7.P ",
"+ m 9 < > u b.G S _.H , , 7 ) G O o 0  .K A m #.v.r.p.#.f f m 7.,.p G 8._ 8 = e z  .>.1.p n r._ z j P r.x.3.o.! r.L = } O.*.^ : ",
"$ H P 7 z 7.x.7 - l.s.j i G 3.) $ o 4 _ *.g.S.V.;.8 5.W.8.d.&.! V 9 j 7.5.#.) J ) } < ` 0.9.=.k f 7 j G G P N *.M.p * P ^ p $ o ",
"O G m.5.r.K.2.* = ` _.u.u.b.K.@.$ o 4 g _ 4.-.w.` $ m a.F c E l , 7 , = v c.T.o.3.L # 7 D f 8 4 u 7 , < p n P s.Q.e.2.i.) * O O ",
"o z i.s.7.p.5.P m *.z.^ ) %.>.A u 7 7 0 8 6 z 0.,.l S z.&.z p 4 , < < < < 8 f g y.| 9 p #.f = < j j 4 8 9 s ^ ,.r.t.v.,.^ = o o ",
"o 8 m L U  .#.%...K.K...j p 7 l 9.3.` %.0 + 8 0.b.8.0.k.,.9 = p 4 < S k e < * g z.x.7.m.'.L < m { ) N J z < L `  .P U ) A 8 : ; ",
"( O + 4 m } %.9.U.W.D. .< , , %.z.m.m.m.S : % X.z.b.0.&.) O + S V  .U.y.P e < 8 8.g.D.G.K.f , P 7.P.s.%.N = n H G z j P u d *.d.",
"5.O   o 8 %.0.8.c.7.*._ 7 < 7 / p.5.&._ : & : G ) %.=.P l o : &.r.z.D.U.7.g 8 < J ( 7.a.[ k p G ,.M.i.P 8 = M n f f j d p z p.K.",
"7.+ f S u m J k S P L z 4 8 8 8 z v e ;   o & 0 d p V p : O 6 8.H.z.k.b.7.m l l 8 8 0 d f m } P V G n - * < H I ) P L l j N r.K.",
"X.S O.O.m 7 = = $ - - < 4 d d g 0 f N z / S 4 - : $ & = $ $ 4 ` 0.p.! ! H m G G d 8 4 4 l ^ O. ., < p 9 , n ..f.b.r.<.G k #.m.D.",
"8 ^ ..7.G $ X 4 p 4 7 4 d ) ^ H l k S  .b.p. .g % o 8 / #.: : d 0 e + = < L e.r.%.K m ) } b.M.^ = j P ) ) ^ =.s.P.).R./ e D H H ",
"0  .O.J < : k O.%.s.,.8 H r.v.l.J d ` U.D.*.J N ; g y.z.A.0.E z e O o + _ r.v.D.,.G _ s.3.M.I.^ z x.x.r.,.( X.1.f.N.1.S d & o o ",
"4 k H d 9 ,.y.7.r.v.5.$ l b.^.c.( 0 %.i.*.O.S d 4 X.3.O.%.*.X./ ! 4 % 0 x.D.g.7.) m ,.9.,.s.s.J O.M.P.I.f.( E =.,.#.S z 0 & 8 o ",
"O + % 8 - ! d.,.H k H $ % O.*.H z d H V V P j N N ^ _ } _ g 8 N D J H } v.v.,.^ V f O.3.` ` v g S _ r.m.i.z : E #.E N e w _ %.8 ",
": - 0 V e O g 8 z #.9.; o + O S _ ; < < 4 0 H a.a.! d d e < z p.c.O.V N / X.H f f f d D H d 6 0 v g v J v ; 2 8 z 8 2 k &.C.c.) ",
"z % / 7.g o & H I.(.M.z - % _ I.I.f O O H r.z.z.a.=.( F 8 8 7.~.~.r.0 + : 6 : : f D W e 5 8 : 5 %.! z d : w z J &.D 2 J y.b.A.7.",
"f : 0.b.H . ; _ u.D.s.%.d S !.W.I._ ; h D.(.~.D.$.( =.:.J v A.~.D.K.,.& % : v :.0.0.0.[ e & : *.U.z.#.v d H *.0.r.5.v w 5.G.U.9.",
": f l.W.s./ e H $.$._ / k %.s.g.,.j J K.(.W.A.5.F [ 0.a.&.( p.z.p.u.v.D w F 7.D.U.U.D.z.#.% H s.m.G.A.&.N X.d.z.c.b.0.g v y.3.G ",
"& 8 5.I.s.D e 6 N H S f H 7.=.#.S 8 ,.(.b.:.#.S v $.r.5.[ w t [ 7.r.r./ C ` =.5.0.s.d.s.u.6 e %.0.0.8.#.8 z p.m.c.r.5.D 0 H f : ",
"+ 6 p.l.&.2 & % ; 8 0 & 6 #.$.! f : 0 ` _ N G : g $.` _ E 6 + 6 D S  .J z ( ` _ X.=.8.3.5.R b h J X.X.F % : #.y.0.&.[ E f S z : ",
"; f r.7.S % & 0 8 & % % 2 D ! g : : O + k H ` : 2 E N F J e % & 4 k ^ G g N v N ^ ^ _ ,.%.W W d 4 e d 2 % % z &.:.#._ ) V H d 5 ",
"5 5 #._ e e f G G 0 % % : e d 2 0 H 0 % z ,.x.) f v N H H z 0 8 *.r.t.%.4 6 f f z ) P  .X.Y g g w 5 5 % % + 8  .8.*.) G N N h 0 ",
"5 2 e g 0 H ` $.` f & 2 H f 6 w D _ G k r.P.K.P.<.^ _ ( J v k #.!.W.I.x.H 8 6 w w w : : e g ! 7.:.&.! 5 5 3 d  .%.O.V : 5 f 6 5 ",
"v 2 2 : 8 } p.0.&.H z v E F g v $.9.P z 5.x.K.M.#.H  ._ H m d %.W.m.r.0.3.N 5 w g e h f ; & 2.!.K.K.s.%./ [ _ ) J S 5 ; 0 8 % h ",
"f e 4 5 k 7.!.s.5.g h F E ! v S 5.D. .d J 5.m.m.` f z P V f k ) r.8.3.&.] f 6 f F [ z.y.e + J l.m.K.I.9.%.p.5.*.,.X.H :  .>.0 : ",
"% 2 6 d H %.U.I.7.2 h [ #.3.F D $.u.#.N f H ( / H 6 8 2 2 5 k S ) 3.] E v w 6 v ;.8.d.D.v % e E g.m.7.D _ 5.5.0.l.:.[ k g.U.u.6 ",
"v $ ; g D =.d.P.x.f : R =.r.D C / ( _ ` f 5 ; : 6 : 5 f S v 0 e v ` R e ; 2 e R $.:.=.9._ v e 5 #.7./ f h ( [ &.#.( z N $.x.I.r.",
"M.S + f v v H 7.9.( 5 6 %.7./ t v S R F v f : % & & : V ,.m.%.e e 6 5 % ; z o._ ~ ~ E _ ` ( t & f #.#.E f f e v D e 0 z ! r.M.P.",
"x.H % ; : & $ ; J &./ : g #.R 3 6 5 r 5 w J H 2 % : w N ,.d.m.,.^ 8 + & D p.U.7.H k D F D 6 ; & : ` =.` 0 5 2 5 5 f ^ H S #.0.u.",
"_ : % + % % % $ f #.S & z / C & : 5 & % : v [ ,.%.#.J S _ 5.r.s...f : v b.U.l.$.! 8 : h e & & & % e v g 0 e e e N  .9.5.S E &.=.",
"g + & 8 w g 6 % : e & g / ! D 5 ; : : 5 5 6 N %.P.x.$.N f =.0.X.H : 3 S 5.&._ D N z 4 O + % & + O o + : z k z S _ =.b.f.D f X.=.",
"& 4 0 f P ) N % % % v 7.7.3.! w 0 8 D ,.%.e 5 z ` d.=.F & H =.H 6 o % 5 f S z d d k d f  .H 0 4 $ 0  .8.3.( J N $.7.&._ g ; 0 e ",
"4 g z _ O.*./ ; % $ ` x.r.,.v 6 6 N 9.K.I.i.v 5 e X.&./ & ; 6 & O O + ; $ $ 4 d d d 0 J r.s.r./ f S U.W.8.&./ g f E D v 0 : & & ",
"e H ` &.8.p.0.D & & ` r.7.` f e v ` x.D.f.f.,.6 & : 6 e & : g g o O O O O ; k N J ) _ H ,.x.K.,.v e 5.p.5.$.f & % : d 0 f e 5 2 ",
"w v ` &.0.0.7./ 2 e E _ _ D e g ( &.$.=.} J t : ; : f ; % 6 5.d.J + + : z 7.m.s.=.$.X.H #.I.!.s.v 6 ( :.#.H 8 % & & 0 k P ) ( d ",
"& : F 3.b.:.! 0 : N z N d & % 5 z g z F S w & & : D D % % 6 5.M.x.e ; S ,.u.s.=._ ! D H  .D.D.&.v : D F 6 m ! 6 : ! ) ) } %.#.2 ",
"o % 0 E b.#.z & e D e 3 + + % & ; 3 2 5 h f ; ; S =._ ; $ w ` 7.r.d ; 2 f S v 0 w g h v J X.=._ S : & & e  .5.D w #.` / ( ` g o ",
"+ o : g v h f f v Z b g & & ; & 6 / ) N v 0 ; v 0.z.m.) % 5 E #.%.v : & % % O O : 6 2 3 z E F z 6 % z 5.r.z.m.( 5 h ( ` ( F z N ",
"H : + z g 6 5 z f y g w & w h S 9.I.G.g. .h v ( 0.m.s.7.C v ( %.=.E 2 : : + & 5 H ` g + % : : % O : 3.z.U.D.6.Q ; ; D ` ! H 3.D.",
"d.&.8 : f f : 6 : 2 ; % ; : w ` s.l.D.U.r.! v F ` [ ( / g f ( ` #.H ` 7. .g t E i.M.7.8 + 5 8 : $ 5 J #.r.5.v : + + : v B S r.K.",
"7.5.v 6 d e 5 : 2 2 5 5 ; & 3 g S ` 5.$.] ~ g 3 v H E 6 + g ( _ E g 5.I.I.M.x.s.p.g.5.e 6 S >./ : : ( 5.=.W & & ( D q g f F 3.0.",
"H z ; 5 0 : ; 5 v F ! z 2 + + ; 3 v $.F v w : ; e f 6 & 6 ( ( _ E 8 ` 0.s.r.5.=.=.=./ 6 v ` i.9.z : ` =.W v E 0.T.' g h g h ( $.",
"2 : O & 8 d 6 ; e S v 8 % + O o O 3 r w 6 % : w T Z w v [ 5.r.c.3.f N X.` / w : 6 6 & ; z +.M.i.m ; D ` v R p.W.y.g w ( ( e 5 z ",
"+ O o % m ` E 8 4 < + + : 0 4 ; = w v v W ( F 6.z.5.w g &.9.b.v.*.F 3 6 e R x 5 w w 2 : t 5.I.7.h 5 6 N S 5.W.U.] 3 5 W A.b.6 + ",
"+ & $ j i.b.:.f = + O $ J ,.) f 0 v D H ,.d.d.K.U.0.3 ; C H [ &._ E : & : D ( ` ( z t C *.e.x.*.g F 0 H #.0.U.W.( ; 3 ~ L.W.S O ",
"+ z ! *.M.z.X.f : 6 % 6 &.7.0.! g N z f r.g.p.K.U.5.3 + : 5 g v S v : O 6 &.$.=.$.e : ` ,.,.5.D 5 F 8 G 9.=.7.1.v 5 v [ K.U.v & ",
"o S 5.d.5.` z H ` ! w d #.7.0.` 8 : 4 6 ( &.( / [ E e 0 6 & : y 2 & : % % / r.9.E ; + g %.=.` 0 : w p j ` / e 2 5 : 4 G =.y.v O ",
"O g =.#.W 6 0 %.W.b.N & S 5.5.f o + % % ; w N r w 3 4 ) v.*.- % + % O 5 ; 6 ` ` e + : 6 v v 5 % = f _ S N e 0 8 e S j 4 z v ; % ",
"e e R R D + : ( r.0.H & v / ! k f z g e : % 4 ; + o N I.!.d.v : % + O % & + w g ; : 2 : : : % - U 7.3.[ S f k j ! y.f   & ; O f ",
"z 5 5 & : O & [ =.=.( : 5 z g f J H / 3.E : + + O z r.s.0.3.f 8 - - + + + 6 x ; % 2 z z e 2 : S x.9.=./ 5 g m N ( p./ O o & f v ",
"v 2 + & 5 & 5 W [ h & = e z g 6 S X.r.D.$.& o o o g =.=.X.v 2 z - 0 : O z J D % + & / 7.#.z - f J E g % o ; g / [ #.#.w + ; e v ",
"h 6 @ w ( v 8 % 2 O   0 r.7.J 0 H :.b.z.[ ; 5 6 e r v F r 2 5.r.H X.S & 4 8 z 0 $ 6 H ,._ k - : e 8 o O 5 8 4 S v e f : : ; & 2 ",
"e & 2 #.d.7.e J =.S + W K.~.p.8 e #.z.0.R % S c.a.( e $ o 5 #.b.H v E 6 $ $ 4 k 4 g J ! S 8 & = : : & e 0.5.& - & & ; : 4 e / %."
};
